<svg height="436pt" viewBox="-21 0 436 436.90155" width="436pt" xmlns="http://www.w3.org/2000/svg"><path d="m197.902344 47.785156-77.960938 16.707032-64.484375 47.238281-39.84375 69.59375-8.332031 79.921875 24.625 76.425781 53.328125 59.722656 72.8125 32.6875h79.703125l72.816406-32.6875 53.324219-59.722656 24.632813-76.425781-8.335938-79.921875-39.847656-69.59375-64.476563-47.238281z" fill="#adf2a2"/><path d="m197.902344 47.785156-1.433594-6.671875-77.960938 16.703125c-.929687.199219-1.832031.605469-2.605468 1.171875l-64.472656 47.234375c-.773438.566406-1.421876 1.289063-1.894532 2.113282l-39.847656 69.597656c-.476562.824218-.765625 1.734375-.863281 2.679687l-8.335938 79.921875c-.097656.953125 0 1.894532.296875 2.808594l24.625 76.421875c.292969.910156.773438 1.742187 1.40625 2.453125l53.328125 59.722656c.640625.707032 1.425781 1.289063 2.300781 1.679688l72.8125 32.679687c.871094.390625 1.839844.601563 2.792969.601563h79.703125c.953125 0 1.921875-.207032 2.796875-.601563l72.816407-32.679687c.867187-.390625 1.660156-.972656 2.292968-1.679688l53.324219-59.722656c.640625-.710938 1.117187-1.542969 1.40625-2.453125l24.636719-76.421875c.289062-.910156.390625-1.855469.289062-2.808594l-8.332031-79.921875c-.101563-.945312-.390625-1.855469-.867187-2.679687l-39.851563-69.597656c-.476563-.824219-1.125-1.546876-1.886719-2.113282l-64.484375-47.234375c-.773437-.566406-1.667969-.972656-2.605469-1.171875l-77.960937-16.703125c-.929687-.207031-1.925781-.207031-2.859375 0l1.433594 6.671875-1.433594 6.675782 76.535156 16.398437 62.132813 45.519531 38.414062 67.085938 8.035157 77.058594-23.746094 73.675781-51.402344 57.5625-70.148438 31.492187h-76.78125l-70.148437-31.496094-51.394531-57.550781-23.746094-73.683593 8.035156-77.058594 38.414063-67.089844 62.132812-45.515625 76.527344-16.398437-1.425781-6.675782-1.433594 6.675782z" fill="#54596e"/><path d="m379.875 244.097656-15.984375 49.582032-53.332031 59.722656-72.808594 32.691406h-79.703125l-72.804687-32.691406-53.335938-59.722656-15.976562-49.582032-1.710938 16.425782 23.746094 73.683593 51.398437 57.550781 70.144531 31.496094h76.78125l70.148438-31.492187 51.402344-57.5625 23.746094-73.675781z" fill="#9bd398"/><path d="m385.058594 228.007812-5.183594 16.089844 1.710938 16.425782-23.746094 73.675781-51.402344 57.5625-70.148438 31.492187h-76.78125l-70.144531-31.496094-51.398437-57.550781-23.746094-73.683593 1.710938-16.425782-5.183594-16.089844-3.464844 33.238282 24.625 76.425781 53.335938 59.722656 72.804687 32.6875h79.703125l72.808594-32.6875 53.332031-59.722656 24.632813-76.425781z" fill="#54596e"/><path d="m136.460938 276.480469c0 13.195312-10.699219 23.894531-23.894532 23.894531-13.195312 0-23.890625-10.699219-23.890625-23.894531 0-13.195313 10.695313-23.894531 23.890625-23.894531 13.195313 0 23.894532 10.699218 23.894532 23.894531zm0 0" fill="#54596e"/><path d="m115.980469 269.652344c0 5.65625-4.585938 10.242187-10.238281 10.242187-5.65625 0-10.242188-4.585937-10.242188-10.242187s4.585938-10.238282 10.242188-10.238282c5.652343 0 10.238281 4.582032 10.238281 10.238282zm0 0" fill="#fff"/><path d="m307.128906 276.480469c0 13.195312-10.699218 23.894531-23.894531 23.894531s-23.894531-10.699219-23.894531-23.894531c0-13.195313 10.699218-23.894531 23.894531-23.894531s23.894531 10.699218 23.894531 23.894531zm0 0" fill="#54596e"/><path d="m286.648438 269.652344c0 5.65625-4.585938 10.242187-10.242188 10.242187-5.652344 0-10.238281-4.585937-10.238281-10.242187s4.585937-10.238282 10.238281-10.238282c5.65625 0 10.242188 4.582032 10.242188 10.238282zm0 0" fill="#fff"/><path d="m225.207031 245.761719c0 15.078125-12.226562 27.304687-27.304687 27.304687-15.082032 0-27.308594-12.226562-27.308594-27.304687 0-15.082031 12.226562-27.308594 27.308594-27.308594 15.078125 0 27.304687 12.226563 27.304687 27.308594zm0 0" fill="#54596e"/><path d="m204.726562 235.519531c0 5.65625-4.582031 10.242188-10.238281 10.242188s-10.242187-4.585938-10.242187-10.242188 4.585937-10.238281 10.242187-10.238281 10.238281 4.582031 10.238281 10.238281zm0 0" fill="#fff"/><path d="m136.25 368.640625 20.691406-40.960937h-41.382812zm0 0" fill="#fff"/><path d="m136.25 368.640625 6.09375 3.078125 20.691406-40.960938c1.066406-2.117187.960938-4.636718-.28125-6.65625-1.246094-2.019531-3.441406-3.246093-5.816406-3.246093h-41.382812c-2.371094 0-4.570313 1.226562-5.8125 3.246093-1.242188 2.023438-1.347657 4.539063-.277344 6.65625l20.691406 40.960938c1.160156 2.292969 3.523438 3.746094 6.09375 3.746094s4.933594-1.457032 6.09375-3.746094l-6.09375-3.078125 6.09375-3.082031-15.691406-31.054688h19.191406l-15.6875 31.058594 6.09375 3.078125 6.09375-3.082031zm0 0" fill="#54596e"/><path d="m177.210938 368.640625 20.691406-40.960937h-41.386719zm0 0" fill="#fff"/><path d="m177.210938 368.640625 6.09375 3.078125 20.6875-40.960938c1.070312-2.117187.964843-4.636718-.277344-6.65625-1.246094-2.019531-3.445313-3.246093-5.816406-3.246093h-41.382813c-2.371094 0-4.570313 1.226562-5.816406 3.246093-1.242188 2.023438-1.347657 4.539063-.277344 6.65625l20.695313 40.960938c1.15625 2.292969 3.523437 3.746094 6.09375 3.746094 2.570312 0 4.933593-1.457032 6.09375-3.746094l-6.09375-3.078125 6.09375-3.082031-15.691407-31.054688h19.191407l-15.6875 31.058594 6.09375 3.078125 6.09375-3.082031zm0 0" fill="#54596e"/><path d="m218.171875 368.640625 20.6875-40.960937h-41.382813zm0 0" fill="#fff"/><path d="m218.171875 368.640625 6.089844 3.078125 20.691406-40.960938c1.070313-2.117187.964844-4.636718-.28125-6.65625-1.242187-2.019531-3.441406-3.246093-5.8125-3.246093h-41.382813c-2.375 0-4.574218 1.226562-5.816406 3.246093-1.242187 2.023438-1.347656 4.539063-.277344 6.65625l20.695313 40.960938c1.15625 2.292969 3.523437 3.746094 6.09375 3.746094 2.566406 0 4.933594-1.457032 6.089844-3.746094l-6.089844-3.078125 6.089844-3.082031-15.6875-31.054688h19.191406l-15.6875 31.058594 6.09375 3.078125 6.089844-3.082031zm0 0" fill="#54596e"/><path d="m259.128906 368.640625 20.691406-40.960937h-41.382812zm0 0" fill="#fff"/><path d="m259.128906 368.640625 6.09375 3.078125 20.691406-40.960938c1.066407-2.117187.964844-4.636718-.28125-6.65625-1.242187-2.019531-3.441406-3.246093-5.8125-3.246093h-41.382812c-2.375 0-4.574219 1.226562-5.816406 3.246093-1.242188 2.023438-1.347656 4.539063-.277344 6.65625l20.691406 40.960938c1.160156 2.292969 3.527344 3.746094 6.09375 3.746094 2.570313 0 4.9375-1.457032 6.09375-3.746094l-6.09375-3.078125 6.09375-3.082031-15.6875-31.054688h19.191406l-15.6875 31.058594 6.089844 3.078125 6.09375-3.082031zm0 0" fill="#54596e"/><path d="m197.902344 6.828125-34.136719 136.53125c21.011719 12.609375 47.257813 12.609375 68.269531 0zm0 0" fill="#fff"/><g fill="#54596e"><path d="m197.902344 6.828125-6.625-1.660156-34.132813 136.535156c-.730469 2.917969.527344 5.960937 3.109375 7.507813 11.585938 6.949218 24.621094 10.429687 37.648438 10.425781 13.023437.003906 26.0625-3.476563 37.644531-10.425781 2.578125-1.546876 3.839844-4.589844 3.109375-7.507813l-34.132812-136.535156c-.761719-3.039063-3.488282-5.167969-6.621094-5.167969-3.132813 0-5.863282 2.128906-6.625 5.167969l6.625 1.660156-6.625 1.652344 34.132812 136.535156 6.625-1.65625-3.511718-5.855469c-9.429688 5.65625-20.023438 8.484375-30.621094 8.484375-10.601563 0-21.195313-2.828125-30.621094-8.484375l-3.515625 5.855469 6.625 1.65625 34.132813-136.535156-6.621094-1.652344-6.625 1.652344zm0 0"/><path d="m129.632812 150.1875h34.132813c3.773437 0 6.828125-3.058594 6.828125-6.828125s-3.054688-6.824219-6.828125-6.824219h-34.132813c-3.769531 0-6.824218 3.054688-6.824218 6.824219s3.054687 6.828125 6.824218 6.828125"/><path d="m232.035156 150.1875h34.132813c3.769531 0 6.824219-3.058594 6.824219-6.828125s-3.054688-6.824219-6.824219-6.824219h-34.132813c-3.769531 0-6.828125 3.054688-6.828125 6.824219s3.058594 6.828125 6.828125 6.828125"/></g></svg>