<svg height="423.25333pt" viewBox="0 0 423.25333 423.25333" width="423.25333pt" xmlns="http://www.w3.org/2000/svg"><g fill="#fff35f"><path d="m232.105469 20.480469c0-11.3125-9.164063-20.480469-20.480469-20.480469-11.3125 0-20.476562 9.167969-20.476562 20.480469 0 11.308593 9.164062 40.960937 20.476562 40.960937 11.316406 0 20.480469-29.652344 20.480469-40.960937zm0 0"/><path d="m232.105469 402.773438c0 11.308593-9.164063 20.480468-20.480469 20.480468-11.3125 0-20.476562-9.171875-20.476562-20.480468 0-11.308594 9.164062-40.960938 20.476562-40.960938 11.316406 0 20.480469 29.652344 20.480469 40.960938zm0 0"/><path d="m20.480469 191.148438c-11.3125 0-20.480469 9.167968-20.480469 20.476562 0 11.3125 9.167969 20.480469 20.480469 20.480469s40.960937-9.167969 40.960937-20.480469c0-11.308594-29.648437-20.476562-40.960937-20.476562zm0 0"/><path d="m402.773438 191.148438c11.3125 0 20.480468 9.167968 20.480468 20.476562 0 11.3125-9.167968 20.480469-20.480468 20.480469s-40.960938-9.167969-40.960938-20.480469c0-11.308594 29.648438-20.476562 40.960938-20.476562zm0 0"/><path d="m90.945312 61.984375c-8-8-20.964843-8-28.960937 0-8 7.996094-8 20.964844 0 28.960937 7.996094 8 35.449219 22.480469 43.441406 14.480469 8-7.996093-6.476562-35.445312-14.480469-43.441406zm0 0"/><path d="m361.265625 332.308594c8.003906 7.996094 8.003906 20.960937 0 28.960937-7.992187 8-20.957031 8-28.957031 0-8.003906-8-22.480469-35.445312-14.480469-43.445312 7.992187-7.996094 35.445313 6.484375 43.4375 14.484375zm0 0"/><path d="m361.265625 90.945312c8.003906-7.996093 8.003906-20.964843 0-28.960937-7.992187-8-20.957031-8-28.957031 0-8.003906 7.996094-22.480469 35.445313-14.480469 43.441406 7.992187 8 35.445313-6.480469 43.4375-14.480469zm0 0"/><path d="m90.945312 361.269531c-8 8-20.964843 8-28.960937 0-8-8-8-20.964843 0-28.960937 7.996094-8 35.449219-22.480469 43.441406-14.484375 8 8-6.476562 35.445312-14.480469 43.445312zm0 0"/></g><path d="m222.800781 53.511719 33.3125-10.785157c16.957031-5.484374 35.378907 2.148438 43.488281 18.015626l15.925782 31.179687c3.472656 6.796875 9.003906 12.328125 15.804687 15.804687l31.183594 15.929688c15.867187 8.105469 23.5 26.535156 18.011719 43.488281l-10.785156 33.308594c-2.347657 7.265625-2.347657 15.085937 0 22.351563l10.785156 33.308593c5.488281 16.953125-2.144532 35.382813-18.011719 43.488281l-31.183594 15.929688c-6.796875 3.472656-12.332031 9.003906-15.804687 15.804688l-15.925782 31.175781c-8.109374 15.871093-26.535156 23.503906-43.488281 18.015625l-33.3125-10.78125c-7.261719-2.351563-15.085937-2.351563-22.347656 0l-33.3125 10.78125c-16.957031 5.488281-35.378906-2.144532-43.488281-18.015625l-15.925782-31.175781c-3.472656-6.800782-9.007812-12.332032-15.808593-15.804688l-31.179688-15.929688c-15.867187-8.105468-23.5-26.535156-18.011719-43.488281l10.785157-33.308593c2.347656-7.265626 2.347656-15.085938 0-22.351563l-10.785157-33.308594c-5.488281-16.953125 2.144532-35.382812 18.011719-43.488281l31.179688-15.929688c6.800781-3.476562 12.335937-9.003906 15.808593-15.804687l15.925782-31.179687c8.109375-15.867188 26.535156-23.5 43.488281-18.015626l33.3125 10.785157c7.261719 2.351562 15.085937 2.351562 22.347656 0zm0 0" fill="#ff927d"/><path d="m222.800781 53.511719 2.101563 6.492187 33.316406-10.78125c3.011719-.976562 6.058594-1.4375 9.066406-1.441406 10.816406.003906 21.09375 5.984375 26.234375 16.066406l15.929688 31.179688c4.125 8.078125 10.699219 14.648437 18.777343 18.777344l31.183594 15.925781c10.074219 5.140625 16.054688 15.421875 16.058594 26.238281 0 3.007812-.460938 6.058594-1.4375 9.074219l-10.785156 33.304687c-1.398438 4.316406-2.09375 8.796875-2.09375 13.277344 0 4.476562.695312 8.953125 2.089844 13.269531l10.789062 33.316407c.972656 3.007812 1.433594 6.054687 1.4375 9.070312-.003906 10.8125-5.984375 21.09375-16.0625 26.238281l-31.179688 15.929688c-8.078124 4.125-14.652343 10.699219-18.777343 18.777343l-15.929688 31.175782c-5.140625 10.078125-15.417969 16.058594-26.234375 16.0625-3.007812 0-6.0625-.464844-9.070312-1.4375l-33.308594-10.78125c-4.316406-1.398438-8.796875-2.097656-13.277344-2.097656-4.480468 0-8.964844.699218-13.28125 2.097656l-33.308594 10.78125c-3.007812.972656-6.058593 1.433594-9.070312 1.4375-10.8125-.007813-21.09375-5.988282-26.234375-16.0625l-15.925781-31.179688c-4.128906-8.078125-10.703125-14.648437-18.78125-18.777344l-31.179688-15.925781c-10.078125-5.144531-16.058594-15.425781-16.0625-26.242187 0-3.011719.460938-6.0625 1.4375-9.066406l10.789063-33.3125c1.390625-4.320313 2.089843-8.796876 2.089843-13.277344 0-4.480469-.695312-8.960938-2.089843-13.273438l-10.789063-33.3125c-.972656-3.007812-1.4375-6.058594-1.4375-9.070312.003906-10.816406 5.988282-21.097656 16.0625-26.234375l31.179688-15.929688c8.078125-4.128906 14.652344-10.699219 18.78125-18.777343l15.925781-31.179688c5.144531-10.078125 15.421875-16.058594 26.234375-16.066406 3.015625.003906 6.058594.464844 9.0625 1.441406l33.324219 10.78125c4.316406 1.398438 8.796875 2.097656 13.277343 2.09375 4.480469 0 8.960938-.695312 13.273438-2.089844l-2.105469-6.492187-2.101562-6.5c-2.949219.957031-6.007813 1.433593-9.070313 1.433593s-6.128906-.476562-9.070312-1.429687l-33.316406-10.78125c-4.378907-1.425781-8.863282-2.105469-13.273438-2.105469-15.832031-.003906-30.855469 8.765625-38.394531 23.507813l-15.925781 31.175781c-2.820313 5.519531-7.3125 10.011719-12.832032 12.832031l-31.183594 15.929688c-14.742187 7.53125-23.507812 22.558593-23.5 38.394531 0 4.417969.679688 8.898438 2.101563 13.277344l10.785156 33.308594c.949219 2.941406 1.425781 6.007812 1.425781 9.070312s-.472656 6.125-1.429687 9.078125l-10.78125 33.304687c-1.421875 4.375-2.101563 8.855469-2.101563 13.273438-.003906 15.832031 8.761719 30.859375 23.5 38.394531l31.183594 15.929688c5.519532 2.820312 10.011719 7.3125 12.832032 12.832031l15.925781 31.179688c7.535156 14.738281 22.558593 23.503906 38.394531 23.5 4.410156.003906 8.890625-.679688 13.269531-2.097657l33.316407-10.78125c2.945312-.960937 6.007812-1.433593 9.070312-1.433593s6.125.476562 9.070312 1.433593l33.316407 10.78125c4.378906 1.417969 8.859375 2.097657 13.273437 2.097657 15.832032.003906 30.855469-8.761719 38.394532-23.503907l15.925781-31.175781c2.820312-5.519531 7.3125-10.011719 12.835937-12.832031l31.179688-15.929688c14.738281-7.542969 23.503906-22.566406 23.5-38.398437 0-4.414063-.679688-8.894532-2.097656-13.273438l-10.785157-33.308594c-.953125-2.953124-1.429687-6.011718-1.429687-9.074218s.476562-6.125 1.429687-9.070313l10.785157-33.308593c1.414062-4.382813 2.101562-8.863282 2.097656-13.273438.003906-15.835938-8.761719-30.859375-23.5-38.394531l-31.183594-15.929688c-5.519531-2.820312-10.015625-7.3125-12.832031-12.832031l-15.925781-31.179688c-7.539063-14.746093-22.5625-23.507812-38.394532-23.503906-4.417968-.003906-8.898437.683594-13.277344 2.101563l-33.3125 10.78125zm0 0" fill="#54596e"/><path d="m150.1875 232.105469c0 33.933593 27.503906 61.441406 61.4375 61.441406s61.441406-27.507813 61.441406-61.441406zm0 0" fill="#54596e"/><path d="m150.1875 232.105469h-6.828125c.003906 37.703125 30.558594 68.261719 68.265625 68.265625 37.707031-.003906 68.261719-30.5625 68.269531-68.265625 0-1.796875-.730469-3.554688-2-4.828125-1.273437-1.269532-3.03125-1.996094-4.828125-1.996094h-122.878906c-1.796875 0-3.558594.726562-4.828125 1.996094-1.273437 1.273437-2 3.03125-2 4.828125h6.828125v6.824219h122.878906v-6.824219h-6.828125c0 15.101562-6.101562 28.710937-15.996093 38.617187-9.902344 9.894532-23.511719 15.992188-38.617188 15.996094-15.101562-.003906-28.710938-6.101562-38.617188-15.996094-9.894531-9.90625-15.992187-23.515625-15.996093-38.617187h-6.824219v6.824219zm0 0" fill="#54596e"/><path d="m235.519531 266.238281c-9.425781 0-17.066406-7.640625-17.066406-17.066406v-10.238281h34.132813v10.238281c0 9.425781-7.640626 17.066406-17.066407 17.066406zm0 0" fill="#fff"/><path d="m163.839844 170.667969c0 15.078125-12.226563 27.304687-27.304688 27.304687-15.082031 0-27.308594-12.226562-27.308594-27.304687 0-15.082031 12.226563-27.308594 27.308594-27.308594 15.078125 0 27.304688 12.226563 27.304688 27.308594zm0 0" fill="#fff"/><path d="m163.839844 170.667969h6.828125c-.003907-18.855469-15.28125-34.132813-34.132813-34.132813-18.855468 0-34.132812 15.277344-34.136718 34.132813.003906 18.851562 15.28125 34.125 34.136718 34.128906 18.851563-.003906 34.125-15.277344 34.132813-34.128906h-13.65625c-.019531 11.308593-9.171875 20.457031-20.476563 20.480469-11.308594-.023438-20.460937-9.171876-20.480468-20.480469.019531-11.3125 9.171874-20.460938 20.480468-20.484375 11.304688.023437 20.457032 9.171875 20.476563 20.484375zm0 0" fill="#54596e"/><path d="m129.707031 163.839844v13.652344c0 3.769531 3.054688 6.828124 6.828125 6.828124 3.769532 0 6.824219-3.058593 6.824219-6.828124v-13.652344c0-3.773438-3.054687-6.828125-6.824219-6.828125-3.773437 0-6.828125 3.054687-6.828125 6.828125" fill="#54596e"/><path d="m314.027344 170.667969c0 15.078125-12.226563 27.304687-27.308594 27.304687-15.078125 0-27.304688-12.226562-27.304688-27.304687 0-15.082031 12.226563-27.308594 27.304688-27.308594 15.082031 0 27.308594 12.226563 27.308594 27.308594zm0 0" fill="#fff"/><path d="m314.027344 170.667969h6.824218c0-18.855469-15.277343-34.132813-34.132812-34.132813-18.851562 0-34.128906 15.277344-34.132812 34.132813.003906 18.851562 15.28125 34.125 34.132812 34.128906 18.851562-.003906 34.128906-15.277344 34.132812-34.128906h-13.652343c-.019531 11.308593-9.171875 20.457031-20.480469 20.480469-11.304688-.023438-20.457031-9.171876-20.480469-20.480469.023438-11.3125 9.175781-20.460938 20.480469-20.484375 11.308594.023437 20.460938 9.171875 20.480469 20.484375zm0 0" fill="#54596e"/><path d="m279.894531 163.839844v13.652344c0 3.769531 3.054688 6.828124 6.824219 6.828124s6.828125-3.058593 6.828125-6.828124v-13.652344c0-3.773438-3.058594-6.828125-6.828125-6.828125s-6.824219 3.054687-6.824219 6.828125" fill="#54596e"/><path d="m102.398438 150.1875h218.453124c3.773438 0 6.828126-3.058594 6.828126-6.828125s-3.054688-6.824219-6.828126-6.824219h-218.453124c-3.769532 0-6.824219 3.054688-6.824219 6.824219s3.054687 6.828125 6.824219 6.828125" fill="#54596e"/></svg>