<svg height="409pt" viewBox="-41 0 409 409.6006" width="409pt" xmlns="http://www.w3.org/2000/svg"><path d="m233.128906 364.863281 20.476563 40.960938c1.6875 3.375 5.789062 4.738281 9.160156 3.050781 3.375-1.683594 4.742187-5.789062 3.054687-9.152344l-20.480468-40.964844c-1.6875-3.375-5.785156-4.738281-9.160156-3.054687-3.371094 1.691406-4.738282 5.789063-3.050782 9.160156" fill="#54596e"/><path d="m260.433594 364.863281 20.480468 40.960938c1.6875 3.375 5.785157 4.738281 9.15625 3.050781 3.375-1.683594 4.742188-5.789062 3.054688-9.152344l-20.480469-40.964844c-1.6875-3.375-5.785156-4.738281-9.160156-3.054687-3.371094 1.691406-4.738281 5.789063-3.050781 9.160156" fill="#54596e"/><path d="m239.234375 204.800781c-7.539063 0-13.652344-6.113281-13.652344-13.652343v-88.75c0-7.539063 6.113281-13.652344 13.652344-13.652344s13.652344 6.113281 13.652344 13.652344v88.75c0 7.539062-6.113281 13.652343-13.652344 13.652343zm0 0" fill="#ff927d"/><path d="m239.234375 204.800781v-6.828125c-3.765625-.007812-6.820313-3.0625-6.828125-6.824218v-88.75c.007812-3.765626 3.0625-6.816407 6.828125-6.828126 3.765625.011719 6.820313 3.0625 6.824219 6.828126v88.75c-.003906 3.761718-3.058594 6.816406-6.824219 6.824218v13.652344c11.3125-.003906 20.472656-9.164062 20.480469-20.476562v-88.75c-.007813-11.3125-9.167969-20.476563-20.480469-20.476563s-20.476563 9.164063-20.480469 20.476563v88.75c.003906 11.3125 9.167969 20.472656 20.480469 20.476562zm0 0" fill="#54596e"/><path d="m82.21875 204.800781c-7.539062 0-13.652344-6.113281-13.652344-13.652343v-88.75c0-7.539063 6.113282-13.652344 13.652344-13.652344 7.542969 0 13.65625 6.113281 13.65625 13.652344v88.75c0 7.539062-6.113281 13.652343-13.65625 13.652343zm0 0" fill="#ff927d"/><path d="m82.21875 204.800781v-6.828125c-3.765625-.007812-6.816406-3.0625-6.824219-6.824218v-88.75c.007813-3.765626 3.058594-6.816407 6.824219-6.828126 3.769531.011719 6.820312 3.0625 6.828125 6.828126v88.75c-.007813 3.761718-3.058594 6.816406-6.828125 6.824218v13.652344c11.316406-.003906 20.476562-9.164062 20.480469-20.476562v-88.75c-.003907-11.3125-9.164063-20.476563-20.480469-20.476563-11.3125 0-20.472656 9.164063-20.476562 20.476563v88.75c.003906 11.3125 9.164062 20.472656 20.476562 20.476562zm0 0" fill="#54596e"/><path d="m280.40625 362.648438c18.296875.164062 34.296875-12.515626 38.117188-30.414063 1.726562-8.117187 2.628906-16.480469 2.628906-25.03125 0-75.410156-70.296875-136.535156-157.015625-136.535156-86.714844 0-157.011719 61.125-157.011719 136.535156 0 7.6875.730469 15.222656 2.136719 22.5625 3.417969 17.875 20.628906 31.890625 38.820312 32.042969z" fill="#ff927d"/><path d="m280.40625 362.648438v6.824218h.347656c21.34375 0 39.960938-14.847656 44.441406-35.816406 1.832032-8.574219 2.78125-17.429688 2.78125-26.453125.011719-39.878906-18.632812-75.902344-48.335937-101.699219-29.707031-25.828125-70.53125-41.664062-115.503906-41.664062-44.960938 0-85.789063 15.835937-115.5 41.664062-29.703125 25.796875-48.34375 61.820313-48.335938 101.699219 0 8.117187.769531 16.085937 2.253907 23.84375 2.058593 10.714844 8.136718 19.988281 16.242187 26.65625 8.117187 6.660156 18.382813 10.828125 29.230469 10.9375h.03125l232.324218.832031h.023438v-6.824218l.023438-6.824219-232.316407-.839844h.035157c-7.347657-.050781-14.785157-2.976563-20.679688-7.828125-5.90625-4.847656-10.144531-11.507812-11.503906-18.667969-1.320313-6.925781-2.011719-14.035156-2.011719-21.285156.003906-35.539063 16.511719-67.78125 43.644531-91.394531 27.113282-23.582032 64.792969-38.324219 106.539063-38.316406 41.753906-.007813 79.433593 14.734374 106.550781 38.316406 27.125 23.613281 43.628906 55.855468 43.640625 91.394531 0 8.0625-.851563 15.953125-2.484375 23.605469-3.09375 14.589844-16.136719 25.015625-31.085938 25.015625h-.347656.023438z" fill="#54596e"/><path d="m13.957031 307.738281c.03125 7.066407.71875 13.996094 2.007813 20.746094 1.363281 7.160156 5.597656 13.824219 11.507812 18.671875 5.890625 4.851562 13.332032 7.777344 20.675782 7.828125h-.035157l232.320313.839844h.324218c14.949219 0 27.992188-10.425781 31.085938-25.015625 1.503906-7.046875 2.34375-14.292969 2.46875-21.691406-6.738281 11.765624-19.449219 19.402343-33.566406 19.402343-.113282 0-.226563 0-.335938 0l-232.324218-.839843c-13.808594-.121094-27.054688-8.226563-34.128907-19.941407" fill="#ee8c7b"/><g fill="#54596e"><path d="m319.835938 289.800781c-.386719 2.777344-.734376 5.570313-1.3125 8.296875-.84375 3.953125-2.285157 7.65625-4.210938 11.019532-.125 7.398437-.964844 14.644531-2.46875 21.691406-3.097656 14.589844-16.136719 25.015625-31.089844 25.015625h-.347656.023438l-232.316407-.839844h.035157c-7.347657-.050781-14.785157-2.976563-20.679688-7.828125-5.90625-4.847656-10.144531-11.511719-11.503906-18.671875-1.289063-6.75-1.976563-13.679687-2.007813-20.746094-2.246093-3.71875-3.871093-7.800781-4.695312-12.109375-.367188-1.898437-.558594-3.855468-.828125-5.789062-.828125 5.683594-1.308594 11.472656-1.308594 17.359375 0 7.6875.730469 15.226562 2.136719 22.566406 3.417969 17.875 20.628906 31.886719 38.820312 32.042969l232.324219.839844.023438-6.824219-.023438 6.824219h.347656c18.152344 0 33.972656-12.632813 37.769532-30.414063 1.726562-8.117187 2.628906-16.484375 2.628906-25.035156 0-5.902344-.480469-11.695313-1.316406-17.398438"/><path d="m55.632812 358.761719-20.480468 40.957031c-1.683594 3.375-.316406 7.472656 3.054687 9.160156 3.371094 1.683594 7.472657.320313 9.160157-3.054687l20.480468-40.960938c1.683594-3.371093.316406-7.46875-3.054687-9.15625-3.371094-1.6875-7.472657-.320312-9.160157 3.054688"/><path d="m82.941406 358.761719-20.480468 40.957031c-1.6875 3.375-.320313 7.472656 3.054687 9.160156 3.371094 1.683594 7.472656.320313 9.15625-3.054687l20.480469-40.960938c1.6875-3.371093.320312-7.46875-3.050782-9.15625-3.375-1.6875-7.476562-.320312-9.160156 3.054688"/><path d="m114.988281 311.292969.003907-.003907c.234374-.320312 3.8125-4.90625 9.0625-9.164062 2.617187-2.132812 5.640624-4.171875 8.761718-5.617188 3.128906-1.453124 6.308594-2.292968 9.386719-2.292968 3.195313.023437 6.351563.808594 9.953125 3.1875 10.105469 6.742187 21.496094 9.585937 32.480469 9.578125 17.800781-.058594 34.695312-7.183594 45.769531-18.164063 2.664062-2.667968 2.667969-6.988281 0-9.65625-2.664062-2.664062-6.988281-2.667968-9.652344 0-8.054687 8.136719-22.105468 14.230469-36.117187 14.167969-8.679688-.007813-17.277344-2.203125-24.90625-7.285156-5.679688-3.816407-11.808594-5.503907-17.527344-5.480469-5.734375.003906-10.988281 1.582031-15.5625 3.757812-6.863281 3.285157-12.355469 7.921876-16.257813 11.734376-3.890624 3.820312-6.171874 6.851562-6.320312 7.046874-2.261719 3.015626-1.652344 7.292969 1.363281 9.558594 3.019531 2.261719 7.300781 1.652344 9.5625-1.367187zm0 0"/></g><path d="m130.007812 54.613281c0 26.390625-21.394531 47.785157-47.789062 47.785157-26.390625 0-47.785156-21.394532-47.785156-47.785157s21.394531-47.785156 47.785156-47.785156c26.394531 0 47.789062 21.394531 47.789062 47.785156zm0 0" fill="#fff"/><path d="m130.007812 54.613281h6.824219c-.003906-30.164062-24.445312-54.60937475-54.613281-54.613281-30.164062.00390625-54.605469 24.449219-54.613281 54.613281.007812 30.164063 24.449219 54.609375 54.613281 54.613281 30.167969-.003906 54.609375-24.449218 54.613281-54.613281h-13.652343c-.003907 11.332031-4.574219 21.527344-11.996094 28.960938-7.433594 7.425781-17.628906 11.992187-28.964844 12-11.332031-.007813-21.527344-4.578125-28.960938-12-7.421874-7.429688-11.992187-17.628907-11.996093-28.960938.003906-11.332031 4.574219-21.53125 11.996093-28.964843 7.433594-7.421876 17.628907-11.992188 28.960938-11.996094 11.335938.003906 21.53125 4.574218 28.964844 11.996094 7.421875 7.433593 11.992187 17.632812 11.996094 28.964843zm0 0" fill="#54596e"/><path d="m102.699219 47.785156c0 11.3125-9.167969 20.480469-20.480469 20.480469-11.308594 0-20.476562-9.167969-20.476562-20.480469 0-11.308594 9.167968-20.476562 20.476562-20.476562 11.3125 0 20.480469 9.167968 20.480469 20.476562zm0 0" fill="#54596e"/><path d="m287.019531 54.613281c0 26.390625-21.394531 47.785157-47.785156 47.785157-26.394531 0-47.789063-21.394532-47.789063-47.785157s21.394532-47.785156 47.789063-47.785156c26.390625 0 47.785156 21.394531 47.785156 47.785156zm0 0" fill="#fff"/><path d="m287.019531 54.613281h6.828125c-.003906-30.164062-24.445312-54.60937475-54.613281-54.613281-30.167969.00390625-54.609375 24.449219-54.613281 54.613281.003906 30.164063 24.445312 54.609375 54.613281 54.613281 30.164063-.003906 54.609375-24.449218 54.613281-54.613281h-13.652344c-.003906 11.332031-4.574218 21.527344-11.996093 28.960938-7.4375 7.425781-17.632813 11.992187-28.964844 12-11.335937-.007813-21.53125-4.578125-28.964844-12-7.421875-7.429688-11.992187-17.628907-11.996093-28.960938.003906-11.332031 4.574218-21.53125 11.996093-28.964843 7.433594-7.421876 17.628907-11.992188 28.964844-11.996094 11.332031.003906 21.527344 4.574218 28.964844 11.996094 7.421875 7.433593 11.992187 17.632812 11.996093 28.964843zm0 0" fill="#54596e"/><path d="m259.714844 47.785156c0 11.3125-9.171875 20.480469-20.480469 20.480469-11.3125 0-20.480469-9.167969-20.480469-20.480469 0-11.308594 9.167969-20.476562 20.480469-20.476562 11.308594 0 20.480469 9.167968 20.480469 20.476562zm0 0" fill="#54596e"/></svg>