<svg height="436pt" viewBox="-88 0 436 436.90155" width="436pt" xmlns="http://www.w3.org/2000/svg"><path d="m133.574219 95.570312h-6.828125c-65.976563 0-119.46875 53.488282-119.46875 119.46875v215.039063h245.761718v-215.039063c0-65.980468-53.488281-119.46875-119.464843-119.46875" fill="#fff"/><path d="m133.574219 95.570312v-6.820312h-6.828125c-69.75 0-126.289063 56.539062-126.296875 126.289062v215.039063c0 1.828125.714843 3.539063 2.003906 4.828125 1.289063 1.285156 3 1.996094 4.824219 1.996094h245.761718c1.824219 0 3.535157-.710938 4.824219-1.996094 1.292969-1.289062 2.003907-3 2.003907-4.828125v-215.039063c-.007813-69.75-56.542969-126.289062-126.296876-126.289062v13.648438c31.125.007812 59.246094 12.597656 79.652344 32.988281 20.394532 20.414062 32.988282 48.523437 32.988282 79.652343v208.214844h-232.105469v-208.214844c.003906-31.128906 12.59375-59.242187 32.996093-79.652343 20.402344-20.390625 48.519532-32.980469 79.644532-32.988281h6.828125z" fill="#54596e"/><path d="m246.210938 315.847656c-16.734376 46.636719-62.375 80.101563-116.050782 80.101563-53.675781 0-99.316406-33.464844-116.054687-80.101563v107.40625h232.105469z" fill="#e6e6e9"/><path d="m253.039062 276.480469c0 13.792969-2.40625 27.039062-6.828124 39.363281v107.410156h-232.105469v-107.410156c-4.421875-12.328125-6.828125-25.570312-6.828125-39.363281v153.597656h245.761718z" fill="#54596e"/><path d="m41.414062 294.125c25.578126 8.261719 56.03125 19.902344 88.746094 19.902344 32.71875 0 63.167969-11.640625 88.746094-19.902344v-110.386719c-25.578125-8.257812-56.027344-13.070312-88.746094-13.070312-32.714844 0-63.167968 4.8125-88.746094 13.070312zm0 0" fill="#8065c4"/><path d="m41.414062 294.125-2.097656 6.496094c25.335938 8.144531 56.507813 20.195312 90.84375 20.230468 34.339844-.035156 65.507813-12.085937 90.84375-20.230468 2.824219-.910156 4.730469-3.523438 4.730469-6.496094v-110.386719c0-2.96875-1.902344-5.582031-4.730469-6.496093-26.347656-8.503907-57.457031-13.402344-90.84375-13.402344-33.386718 0-64.496094 4.898437-90.84375 13.402344-2.824218.910156-4.730468 3.527343-4.730468 6.496093v110.386719c0 2.96875 1.90625 5.585938 4.730468 6.496094l2.097656-6.496094h6.828126v-110.386719h-6.828126l2.097657 6.496094c24.8125-8.011719 54.601562-12.746094 86.648437-12.742187 32.046875-.003907 61.835938 4.730468 86.648438 12.742187l2.097656-6.496094h-6.824219v110.386719h6.824219l-2.097656-6.496094c-25.820313 8.378906-55.550782 19.605469-86.648438 19.570313-31.09375.035156-60.824218-11.191407-86.648437-19.570313l-2.097657 6.496094h6.828126zm0 0" fill="#54596e"/><path d="m96.027344 232.105469c0 7.542969-6.113282 13.65625-13.652344 13.65625-7.542969 0-13.652344-6.113281-13.652344-13.65625 0-7.539063 6.109375-13.652344 13.652344-13.652344 7.539062 0 13.652344 6.113281 13.652344 13.652344zm0 0" fill="#9af43b"/><path d="m191.601562 232.105469c0 7.542969-6.113281 13.65625-13.652343 13.65625-7.542969 0-13.65625-6.113281-13.65625-13.65625 0-7.539063 6.113281-13.652344 13.65625-13.652344 7.539062 0 13.652343 6.113281 13.652343 13.652344zm0 0" fill="#9af43b"/><path d="m136.988281 88.746094v-40.960938c0-3.769531-3.058593-6.824218-6.828125-6.824218-3.769531 0-6.824218 3.054687-6.824218 6.824218v40.960938c0 3.769531 3.054687 6.828125 6.824218 6.828125 3.769532 0 6.828125-3.058594 6.828125-6.828125" fill="#54596e"/><path d="m150.640625 27.308594c0 11.308594-9.167969 20.476562-20.480469 20.476562-11.308594 0-20.480468-9.167968-20.480468-20.476562 0-11.3125 9.171874-20.480469 20.480468-20.480469 11.3125 0 20.480469 9.167969 20.480469 20.480469zm0 0" fill="#9af43b"/><g fill="#54596e"><path d="m150.640625 27.308594h6.828125c-.007812-15.085938-12.222656-27.30468775-27.308594-27.308594-15.082031.00390625-27.300781 12.222656-27.304687 27.308594.003906 15.082031 12.222656 27.300781 27.304687 27.304687 15.085938-.003906 27.300782-12.222656 27.308594-27.304687h-13.65625c-.011719 7.53125-6.113281 13.636718-13.652344 13.652344-7.535156-.015626-13.640625-6.121094-13.652344-13.652344.011719-7.539063 6.117188-13.640625 13.652344-13.65625 7.539063.015625 13.640625 6.117187 13.652344 13.65625zm0 0"/><path d="m82.375 354.988281v27.304688c0 3.769531 3.054688 6.828125 6.824219 6.828125 3.773437 0 6.828125-3.058594 6.828125-6.828125v-27.304688c0-3.773437-3.054688-6.828125-6.828125-6.828125-3.769531 0-6.824219 3.054688-6.824219 6.828125"/><path d="m102.855469 354.988281v27.304688c0 3.769531 3.054687 6.828125 6.824219 6.828125 3.769531 0 6.828124-3.058594 6.828124-6.828125v-27.304688c0-3.773437-3.058593-6.828125-6.828124-6.828125-3.769532 0-6.824219 3.054688-6.824219 6.828125"/><path d="m123.335938 354.988281v27.304688c0 3.769531 3.054687 6.828125 6.824218 6.828125 3.769532 0 6.828125-3.058594 6.828125-6.828125v-27.304688c0-3.773437-3.058593-6.828125-6.828125-6.828125-3.769531 0-6.824218 3.054688-6.824218 6.828125"/><path d="m143.8125 354.988281v27.304688c0 3.769531 3.058594 6.828125 6.828125 6.828125s6.828125-3.058594 6.828125-6.828125v-27.304688c0-3.773437-3.058594-6.828125-6.828125-6.828125-3.773437 0-6.828125 3.054688-6.828125 6.828125"/><path d="m164.292969 354.988281v27.304688c0 3.769531 3.058593 6.828125 6.828125 6.828125 3.769531 0 6.828125-3.058594 6.828125-6.828125v-27.304688c0-3.773437-3.058594-6.828125-6.828125-6.828125-3.773438 0-6.828125 3.054688-6.828125 6.828125"/></g></svg>