<svg height="423pt" viewBox="-54 0 423 423.25333" width="423pt" xmlns="http://www.w3.org/2000/svg"><path d="m307.328125 416.425781h-300.375v-228.691406c0-77.289063 62.65625-139.949219 139.945313-139.949219h20.480468c77.289063 0 139.949219 62.660156 139.949219 139.949219zm0 0" fill="#8065c4"/><path d="m307.328125 416.425781v-6.824219h-293.546875v-221.867187c.003906-36.78125 14.886719-70.019531 38.988281-94.128906 24.113281-24.101563 57.347657-38.988281 94.128907-38.992188h20.480468c36.78125.003907 70.019532 14.890625 94.128906 38.992188 24.101563 24.109375 38.988282 57.347656 38.992188 94.128906v228.691406h6.828125v-6.824219 6.824219h6.824219v-228.691406c-.003906-81.0625-65.710938-146.769531-146.773438-146.773437h-20.480468c-81.0625.003906-146.765626 65.710937-146.773438 146.773437v228.691406c0 1.824219.710938 3.535157 2 4.828125 1.292969 1.289063 3.003906 2 4.828125 2h300.375c1.820313 0 3.535156-.707031 4.824219-2 1.289062-1.289062 2-3.003906 2-4.824218h-6.824219zm0 0" fill="#54596e"/><path d="m157.140625 6.828125-34.132813 102.398437c21.007813 12.605469 47.253907 12.605469 68.265626 0zm0 0" fill="#fff"/><path d="m157.140625 6.828125-6.476563-2.160156-34.132812 102.398437c-1.011719 3.027344.222656 6.367188 2.964844 8.011719 11.582031 6.949219 24.617187 10.429687 37.644531 10.425781 13.027344.003906 26.0625-3.476562 37.644531-10.425781 2.738282-1.644531 3.976563-4.984375 2.964844-8.011719l-34.132812-102.398437c-.925782-2.777344-3.550782-4.667969-6.476563-4.667969s-5.550781 1.886719-6.476563 4.667969l6.476563 2.160156-6.476563 2.15625 34.132813 102.402344 6.476563-2.160157-3.511719-5.855468c-9.429688 5.652344-20.023438 8.480468-30.621094 8.484375-10.601563-.003907-21.195313-2.828125-30.621094-8.484375l-3.511719 5.855468 6.476563 2.160157 34.132813-102.402344-6.476563-2.15625-6.476563 2.15625zm0 0" fill="#54596e"/><path d="m225.40625 232.105469c0 37.703125-30.5625 68.269531-68.265625 68.269531s-68.265625-30.566406-68.265625-68.269531 30.5625-68.265625 68.265625-68.265625 68.265625 30.5625 68.265625 68.265625zm0 0" fill="#fff"/><path d="m225.40625 232.105469h6.828125c-.007813-41.476563-33.617187-75.089844-75.09375-75.09375-41.476563.003906-75.089844 33.617187-75.09375 75.09375.003906 41.476562 33.617187 75.089843 75.09375 75.09375 41.476563-.003907 75.085937-33.617188 75.09375-75.09375h-13.65625c0 16.988281-6.863281 32.304687-17.992187 43.445312-11.140626 11.128907-26.457032 17.992188-43.445313 17.996094-16.988281-.003906-32.304687-6.867187-43.445313-17.996094-11.128906-11.140625-17.992187-26.457031-17.996093-43.445312.003906-16.988281 6.867187-32.304688 17.996093-43.445313 11.140626-11.128906 26.457032-17.988281 43.445313-17.996094 16.988281.007813 32.304687 6.867188 43.445313 17.996094 11.128906 11.140625 17.992187 26.457032 17.992187 43.445313zm0 0" fill="#54596e"/><path d="m143.488281 232.105469c0 13.832031 5.179688 26.417969 13.652344 36.039062 8.472656-9.621093 13.652344-22.210937 13.652344-36.039062s-5.179688-26.417969-13.652344-36.039063c-8.472656 9.621094-13.652344 22.210938-13.652344 36.039063zm0 0" fill="#54596e"/><path d="m266.367188 238.933594c-.003907-60.328125-48.902344-109.222656-109.226563-109.226563-60.328125.003907-109.222656 48.898438-109.226563 109.226563 0 3.769531 3.054688 6.828125 6.824219 6.828125 3.773438 0 6.828125-3.058594 6.828125-6.828125.003906-26.414063 10.6875-50.261719 27.992188-67.582032 17.320312-17.304687 41.167968-27.988281 67.582031-27.992187 26.410156.003906 50.261719 10.691406 67.578125 27.992187 17.308594 17.320313 27.992188 41.167969 27.996094 67.582032 0 3.769531 3.054687 6.828125 6.824218 6.828125 3.769532 0 6.828126-3.058594 6.828126-6.828125zm0 0" fill="#aca3d3"/><path d="m95.488281 300.375-20.691406 40.957031h41.382813zm0 0" fill="#fff"/><path d="m239.058594 368.640625h-163.839844c-7.539062 0-13.652344-6.113281-13.652344-13.652344 0-7.542969 6.113282-13.65625 13.652344-13.65625h163.839844c7.542968 0 13.65625 6.113281 13.65625 13.65625 0 7.539063-6.113282 13.652344-13.65625 13.652344zm0 0" fill="#ff80c3"/></svg>