<svg height="436pt" viewBox="-47 0 436 436.90496" width="436pt" xmlns="http://www.w3.org/2000/svg"><path d="m102.851562 293.546875v122.878906c0 7.539063-6.113281 13.652344-13.652343 13.652344-7.539063 0-13.652344-6.113281-13.652344-13.652344v-122.878906" fill="#aca3d3"/><path d="m96.027344 293.546875v122.878906c-.007813 3.765625-3.0625 6.820313-6.828125 6.828125-3.765625-.007812-6.820313-3.0625-6.828125-6.828125v-122.878906c0-3.773437-3.054688-6.828125-6.824219-6.828125s-6.828125 3.054688-6.828125 6.828125v122.878906c.003906 11.3125 9.167969 20.476563 20.480469 20.480469 11.3125-.003906 20.476562-9.167969 20.480469-20.480469v-122.878906c0-3.773437-3.058594-6.828125-6.828126-6.828125-3.769531 0-6.824218 3.058594-6.824218 6.828125zm0 0" fill="#54596e"/><path d="m253.039062 293.546875v122.878906c0 7.539063-6.113281 13.652344-13.652343 13.652344-7.539063 0-13.652344-6.113281-13.652344-13.652344v-122.878906" fill="#aca3d3"/><path d="m246.210938 293.546875v122.878906c-.003907 3.765625-3.058594 6.820313-6.824219 6.828125-3.765625-.007812-6.820313-3.0625-6.828125-6.828125v-122.878906c0-3.773437-3.054688-6.828125-6.824219-6.828125-3.773437 0-6.828125 3.054688-6.828125 6.828125v122.878906c.003906 11.3125 9.167969 20.476563 20.480469 20.480469 11.3125-.003906 20.472656-9.167969 20.480469-20.480469v-122.878906c0-3.773437-3.058594-6.828125-6.828126-6.828125-3.769531 0-6.828124 3.058594-6.828124 6.828125zm0 0" fill="#54596e"/><path d="m307.652344 197.972656c0-86.714844-61.125-191.144531-136.53125-191.144531-75.410156 0-136.535156 104.429687-136.535156 191.144531 0 67.351563 36.945312 104.09375 88.746093 117.199219v101.253906c0 7.539063 6.113281 13.652344 13.652344 13.652344 7.542969 0 13.65625-6.113281 13.65625-13.652344v-63.820312c4.273437 1.515625 8.851563 2.382812 13.652344 2.382812 4.804687 0 9.371093-.929687 13.652343-2.449219v63.886719c0 7.539063 6.113282 13.652344 13.652344 13.652344 7.542969 0 13.65625-6.113281 13.65625-13.652344v-98.40625c58.851563-9.851562 102.398438-46.914062 102.398438-120.046875zm0 0" fill="#8065c4"/><path d="m307.652344 197.972656h6.828125c-.042969-44.953125-15.683594-93.75-41.140625-131.886718-12.753906-19.058594-27.996094-35.460938-45.226563-47.226563-17.210937-11.753906-36.539062-18.86328125-56.992187-18.859375-20.457032-.00390625-39.785156 7.105469-56.996094 18.859375-25.835938 17.664063-47.242188 45.695313-62.390625 77.601563-15.121094 31.929687-23.960937 67.792968-23.976563 101.511718-.027343 34.894532 9.660157 62.683594 26.488282 83.257813 16.808594 20.59375 40.441406 33.746093 67.414062 40.554687l1.671875-6.613281h-6.828125v101.253906c.007813 11.3125 9.167969 20.476563 20.480469 20.480469 11.316406-.003906 20.476563-9.167969 20.480469-20.480469v-63.820312h-6.824219l-2.285156 6.433593c4.949219 1.753907 10.3125 2.777344 15.9375 2.773438 5.6875.003906 11.042969-1.101562 15.9375-2.839844l-2.285157-6.429687h-6.824218v63.882812c.003906 11.3125 9.164062 20.476563 20.476562 20.480469 11.316406-.003906 20.476563-9.167969 20.480469-20.480469v-98.40625h-6.824219l1.125 6.730469c30.5-5.097656 57.621094-17.371094 77.144532-38.378906 19.546874-20.984375 31-50.507813 30.957031-88.398438h-13.65625c-.042969 35.242188-10.359375 60.820313-27.304688 79.109375-16.964843 18.265625-41.039062 29.453125-69.394531 34.207031-3.292969.546876-5.699219 3.394532-5.699219 6.730469v98.40625c-.007812 3.765625-3.058593 6.820313-6.828125 6.828125-3.765625-.007812-6.816406-3.0625-6.824218-6.828125v-63.886719c0-2.214843-1.082032-4.300781-2.890626-5.578124-1.808593-1.277344-4.136718-1.597657-6.222656-.855469-3.664062 1.300781-7.441406 2.054687-11.367187 2.054687-3.976563 0-7.769531-.714844-11.371094-1.992187-2.085937-.742188-4.414063-.417969-6.222656.859375-1.808594 1.277344-2.886719 3.363281-2.886719 5.578125v63.820312c-.007812 3.765625-3.058594 6.820313-6.828125 6.828125-3.765625-.007812-6.820313-3.0625-6.824219-6.828125v-101.253906c0-3.136719-2.117187-5.855469-5.152344-6.621094-24.828124-6.292969-45.570312-18.0625-60.183593-35.957031-14.597657-17.90625-23.382813-42.167969-23.410157-74.621094-.042968-41.765625 14.878907-88.542968 38.835938-124.296875 11.957031-17.886719 26.132812-33.015625 41.570312-43.539062 15.460938-10.535157 32.050782-16.480469 49.300782-16.484375 17.246094.007812 33.835937 5.949218 49.296875 16.484375 23.164062 15.773437 43.449219 41.964843 57.746093 72.171875 14.328126 30.191406 22.675782 64.34375 22.660157 95.664062zm0 0" fill="#54596e"/><path d="m82.371094 242.347656c0 20.734375-16.808594 37.546875-37.546875 37.546875-20.734375 0-37.546875-16.8125-37.546875-37.546875 0-20.738281 16.8125-37.546875 37.546875-37.546875 20.738281 0 37.546875 16.808594 37.546875 37.546875zm0 0" fill="#fff"/><path d="m82.371094 242.347656h6.828125c-.003907-24.511718-19.867188-44.371094-44.375-44.375-24.503907.003906-44.367188 19.863282-44.371094 44.375.003906 24.507813 19.867187 44.367188 44.371094 44.371094 24.507812-.003906 44.371093-19.863281 44.375-44.371094h-13.652344c-.003906 8.5-3.429687 16.140625-9 21.722656-5.582031 5.570313-13.21875 8.992188-21.722656 8.996094-8.5-.003906-16.136719-3.429687-21.722657-8.996094-5.566406-5.582031-8.992187-13.21875-8.996093-21.722656.003906-8.503906 3.429687-16.144531 9-21.726562 5.582031-5.570313 13.21875-8.992188 21.722656-8.996094 8.503906.003906 16.140625 3.429688 21.71875 8.996094 5.570313 5.582031 8.996094 13.21875 9 21.726562zm0 0" fill="#54596e"/><path d="m61.890625 242.347656c0 9.425782-7.640625 17.066406-17.066406 17.066406s-17.066407-7.640624-17.066407-17.066406c0-9.425781 7.640626-17.066406 17.066407-17.066406s17.066406 7.640625 17.066406 17.066406zm0 0" fill="#54596e"/><path d="m82.371094 143.359375c0 18.851563-15.28125 34.132813-34.132813 34.132813-18.851562 0-34.132812-15.28125-34.132812-34.132813s15.28125-34.132813 34.132812-34.132813c18.851563 0 34.132813 15.28125 34.132813 34.132813zm0 0" fill="#fff"/><path d="m82.371094 143.359375h6.828125c-.003907-22.625-18.332031-40.957031-40.960938-40.960937-22.625.003906-40.957031 18.335937-40.960937 40.960937.003906 22.625 18.335937 40.957031 40.960937 40.957031s40.957031-18.332031 40.960938-40.957031h-13.652344c-.003906 7.5625-3.046875 14.34375-8 19.308594-4.960937 4.953125-11.742187 7.996093-19.308594 8-7.5625-.007813-14.34375-3.046875-19.308593-8-4.949219-4.960938-7.992188-11.746094-7.996094-19.308594.003906-7.5625 3.046875-14.34375 7.996094-19.308594 4.964843-4.949219 11.746093-7.992187 19.308593-7.996093 7.566407.003906 14.347657 3.046874 19.308594 7.996093 4.953125 4.964844 7.996094 11.746094 8 19.308594zm0 0" fill="#54596e"/><path d="m109.679688 61.441406c0 15.078125-12.226563 27.304688-27.308594 27.304688-15.078125 0-27.304688-12.226563-27.304688-27.304688 0-15.082031 12.226563-27.308594 27.304688-27.308594 15.082031 0 27.308594 12.226563 27.308594 27.308594zm0 0" fill="#fff"/><path d="m109.679688 61.441406h6.824218c0-18.855468-15.277344-34.132812-34.132812-34.132812-18.851563 0-34.128906 15.277344-34.132813 34.132812.007813 18.851563 15.28125 34.128906 34.132813 34.132813 18.851562-.003907 34.128906-15.277344 34.132812-34.132813h-13.652344c-.019531 11.308594-9.171874 20.457032-20.480468 20.480469-11.304688-.023437-20.457032-9.171875-20.480469-20.480469.023437-11.308594 9.175781-20.460937 20.480469-20.480468 11.308594.019531 20.460937 9.171874 20.480468 20.480468zm0 0" fill="#54596e"/><path d="m61.890625 143.359375c0 7.542969-6.109375 13.652344-13.652344 13.652344-7.539062 0-13.652343-6.109375-13.652343-13.652344 0-7.539063 6.113281-13.652344 13.652343-13.652344 7.542969 0 13.652344 6.113281 13.652344 13.652344zm0 0" fill="#54596e"/><path d="m89.199219 61.441406c0 3.769532-3.054688 6.824219-6.828125 6.824219-3.769532 0-6.824219-3.054687-6.824219-6.824219 0-3.773437 3.054687-6.828125 6.824219-6.828125 3.773437 0 6.828125 3.054688 6.828125 6.828125zm0 0" fill="#54596e"/><path d="m334.960938 242.347656c0 20.734375-16.8125 37.546875-37.546876 37.546875-20.738281 0-37.546874-16.8125-37.546874-37.546875 0-20.738281 16.808593-37.546875 37.546874-37.546875 20.734376 0 37.546876 16.808594 37.546876 37.546875zm0 0" fill="#fff"/><path d="m259.867188 242.347656h6.824218c.003906-8.503906 3.429688-16.144531 9-21.726562 5.582032-5.570313 13.21875-8.992188 21.722656-8.996094 8.503907.003906 16.140626 3.429688 21.722657 8.996094 5.570312 5.582031 8.992187 13.21875 8.996093 21.726562-.003906 8.5-3.425781 16.140625-8.996093 21.722656-5.582031 5.570313-13.21875 8.992188-21.722657 8.996094-8.503906-.003906-16.140624-3.429687-21.722656-8.996094-5.570312-5.582031-8.996094-13.21875-9-21.722656h-13.652344c.003907 24.507813 19.867188 44.367188 44.375 44.371094 24.503907-.003906 44.367188-19.863281 44.371094-44.371094-.003906-24.511718-19.867187-44.371094-44.371094-44.375-24.507812.003906-44.371093 19.863282-44.375 44.375zm0 0" fill="#54596e"/><path d="m314.480469 242.347656c0 9.425782-7.640625 17.066406-17.066407 17.066406-9.425781 0-17.066406-7.640624-17.066406-17.066406 0-9.425781 7.640625-17.066406 17.066406-17.066406 9.425782 0 17.066407 7.640625 17.066407 17.066406zm0 0" fill="#54596e"/><path d="m328.132812 143.359375c0 18.851563-15.28125 34.132813-34.132812 34.132813s-34.132812-15.28125-34.132812-34.132813 15.28125-34.132813 34.132812-34.132813 34.132812 15.28125 34.132812 34.132813zm0 0" fill="#fff"/><path d="m259.867188 143.359375h6.824218c.003906-7.5625 3.046875-14.34375 8-19.308594 4.960938-4.949219 11.742188-7.992187 19.308594-8 7.5625.007813 14.34375 3.046875 19.308594 8 4.949218 4.964844 7.992187 11.746094 7.996094 19.308594-.003907 7.5625-3.046876 14.34375-7.996094 19.308594-4.964844 4.949219-11.746094 7.992187-19.308594 8-7.566406-.007813-14.347656-3.046875-19.308594-8-4.953125-4.964844-7.996094-11.746094-8-19.308594h-13.652344c.003907 22.625 18.332032 40.957031 40.960938 40.957031 22.625 0 40.957031-18.332031 40.960938-40.957031-.003907-22.625-18.335938-40.957031-40.960938-40.960937-22.628906.003906-40.957031 18.335937-40.960938 40.960937zm0 0" fill="#54596e"/><path d="m287.171875 61.441406c0 15.078125-12.226563 27.304688-27.304687 27.304688-15.082032 0-27.308594-12.226563-27.308594-27.304688 0-15.082031 12.226562-27.308594 27.308594-27.308594 15.078124 0 27.304687 12.226563 27.304687 27.308594zm0 0" fill="#fff"/><g fill="#54596e"><path d="m232.558594 61.441406h6.828125c.019531-11.3125 9.171875-20.460937 20.480469-20.484375 11.304687.023438 20.457031 9.171875 20.480468 20.484375-.023437 11.308594-9.175781 20.457032-20.480468 20.480469-11.308594-.023437-20.460938-9.171875-20.480469-20.480469h-13.652344c0 18.851563 15.277344 34.125 34.132813 34.128906 18.851562-.003906 34.125-15.277343 34.132812-34.128906-.003906-18.855468-15.28125-34.132812-34.132812-34.132812-18.855469 0-34.132813 15.277344-34.132813 34.132812zm0 0"/><path d="m307.652344 143.359375c0 7.542969-6.113282 13.652344-13.652344 13.652344-7.542969 0-13.652344-6.109375-13.652344-13.652344 0-7.539063 6.109375-13.652344 13.652344-13.652344 7.539062 0 13.652344 6.113281 13.652344 13.652344zm0 0"/><path d="m266.691406 61.441406c0 3.769532-3.054687 6.824219-6.824218 6.824219-3.773438 0-6.828126-3.054687-6.828126-6.824219 0-3.773437 3.054688-6.828125 6.828126-6.828125 3.769531 0 6.824218 3.054688 6.824218 6.828125zm0 0"/><path d="m225.734375 191.148438c0-41.476563-24.453125-75.09375-54.613281-75.09375-30.164063 0-54.617188 33.617187-54.617188 75.09375 0 41.472656 24.453125 75.089843 54.617188 75.089843 30.160156 0 54.613281-33.617187 54.613281-75.089843zm0 0"/><path d="m225.734375 191.148438h6.824219c-.011719-22.082032-6.460938-42.1875-17.300782-57.117188-5.425781-7.460938-11.980468-13.632812-19.449218-17.980469-7.457032-4.34375-15.871094-6.832031-24.6875-6.824219-8.820313-.007812-17.234375 2.480469-24.691406 6.824219-11.207032 6.535157-20.339844 17.121094-26.722657 30.101563-6.378906 12.988281-10.023437 28.433594-10.027343 44.996094.015624 22.074218 6.464843 42.183593 17.304687 57.113281 5.425781 7.457031 11.976563 13.628906 19.449219 17.976562 7.457031 4.347657 15.871094 6.832031 24.6875 6.828125 8.816406.003906 17.230468-2.480468 24.6875-6.828125 11.207031-6.53125 20.339844-17.121093 26.722656-30.097656 6.378906-12.988281 10.023438-28.4375 10.027344-44.992187h-13.652344c.011719 19.394531-5.765625 36.832031-14.691406 49.082031-4.457032 6.128906-9.671875 10.953125-15.269532 14.207031-5.609374 3.253906-11.5625 4.96875-17.824218 4.976562-6.265625-.007812-12.21875-1.722656-17.828125-4.976562-8.394531-4.867188-15.9375-13.324219-21.332031-24.316406-5.402344-10.980469-8.632813-24.429688-8.628907-38.972656-.015625-19.398438 5.761719-36.839844 14.691407-49.085938 4.457031-6.132812 9.671874-10.957031 15.269531-14.207031 5.609375-3.253907 11.5625-4.96875 17.828125-4.976563 6.261718.007813 12.214844 1.726563 17.824218 4.976563 8.390626 4.867187 15.9375 13.324219 21.332032 24.316406 5.398437 10.980469 8.632812 24.429687 8.628906 38.976563zm0 0"/></g><path d="m130.160156 225.28125s20.480469-20.480469 54.613282-13.65625c34.132812 6.828125 61.4375 6.828125 68.265624-13.652344 0 0-20.480468 68.265625-61.441406 54.613282-39.390625-13.128907-40.957031 0-40.957031 0l-9.207031-9.203126c-2.949219-2.949218-5.402344-6.351562-7.261719-10.078124zm0 0" fill="#ff80c3"/><path d="m150.640625 197.972656-16.429687-44.785156c-.925782-2.523438-.359376-5.359375 1.46875-7.332031l11.691406-12.621094c1.160156-1.257813 3.269531-.433594 3.269531 1.28125zm0 0" fill="#fff"/><path d="m194.144531 197.972656 16.425781-44.785156c.929688-2.523438.355469-5.359375-1.472656-7.332031l-11.6875-12.621094c-1.164062-1.257813-3.265625-.433594-3.265625 1.28125zm0 0" fill="#fff"/></svg>