<svg height="430pt" viewBox="-44 0 430 430.08356" width="430pt" xmlns="http://www.w3.org/2000/svg"><path d="m173.875 6.859375c-91.835938-1.742187-167.007812 75.644531-167.007812 167.5v228.417969c0 11.308594 9.171874 20.480468 20.480468 20.480468h6.828125c11.308594 0 20.480469-9.171874 20.480469-20.480468v-49.847656c0-12.9375 9.6875-24.535157 22.605469-25.210938 13.78125-.722656 25.179687 10.234375 25.179687 23.859375v51.199219c0 11.308594 9.171875 20.480468 20.480469 20.480468h6.828125c11.308594 0 20.476562-9.171874 20.476562-20.480468v-83.980469c0-12.941406 9.6875-24.535156 22.609376-25.210937 13.777343-.722657 25.179687 10.234374 25.179687 23.859374v85.332032c0 11.308594 9.167969 20.480468 20.480469 20.480468h6.824218c11.3125 0 20.480469-9.171874 20.480469-20.480468v-22.542969c0-12.9375 9.6875-24.535156 22.609375-25.210937 13.777344-.722657 25.179688 10.238281 25.179688 23.859374v23.894532c0 11.308594 9.167968 20.480468 20.480468 20.480468 11.308594 0 20.476563-9.171874 20.476563-20.480468v-232.105469c0-89.429687-71.644531-162.125-160.671875-163.8125zm0 0" fill="#9af43b"/><path d="m173.875 6.859375.132812-6.828125c-1.050781-.0195312-2.109374-.03125-3.171874-.03125-47.183594-.00390625-89.9375 20.019531-120.796876 51.765625-30.871093 31.746094-49.992187 75.3125-49.9960932 122.59375v228.417969c.0039062 15.082031 12.2226562 27.300781 27.3046872 27.304687h6.828125c15.082031-.003906 27.300781-12.222656 27.304688-27.304687v-49.847656c-.007813-4.757813 1.808593-9.34375 4.765625-12.703126 2.972656-3.367187 6.890625-5.453124 11.371094-5.691406h.011718l.917969-.03125c9.425781.019532 17.050781 7.644532 17.066406 17.074219v51.199219c.007813 15.082031 12.226563 27.300781 27.308594 27.304687h6.828125c15.082031-.003906 27.300781-12.222656 27.304688-27.304687v-83.980469c-.007813-4.761719 1.808593-9.34375 4.765624-12.703125 2.972657-3.367188 6.890626-5.453125 11.371094-5.691406h.011719l.917969-.03125c9.421875.019531 17.050781 7.644531 17.066406 17.074218v85.332032c.007812 15.082031 12.222656 27.300781 27.308594 27.304687h6.824218c15.085938-.003906 27.304688-12.222656 27.308594-27.304687v-22.542969c-.007812-4.757813 1.808594-9.34375 4.761719-12.703125 2.972656-3.363281 6.894531-5.449219 11.375-5.691406h.011719l.917968-.027344c9.421876.019531 17.050782 7.640625 17.066407 17.070312v23.894532c.003906 15.082031 12.222656 27.300781 27.308593 27.304687 15.082032-.003906 27.300782-12.222656 27.304688-27.304687v-232.105469c-.007812-93.160156-74.625-168.875-167.371094-170.6367188h.003906l-.132812 6.8242188-.128906 6.824219c85.304687 1.613281 153.980468 71.285156 153.972656 156.984375v232.105469c-.011719 7.535156-6.117188 13.640624-13.652344 13.65625-7.535156-.015626-13.640625-6.121094-13.652344-13.65625v-23.890626c-.003906-16.976562-13.753906-30.722656-30.722656-30.722656l-1.652344.042969h.011719c-8.441406.4375-15.824219 4.488281-20.925781 10.324219-5.117188 5.84375-8.144531 13.523437-8.152344 21.707031v22.539063c-.011718 7.535156-6.117187 13.640624-13.652344 13.65625h-6.828124c-7.535157-.015626-13.636719-6.121094-13.652344-13.65625v-85.332032c-.003906-16.972656-13.753906-30.71875-30.722656-30.722656l-1.652344.042969h.011718c-8.441406.4375-15.824218 4.488281-20.921874 10.324219-5.121094 5.84375-8.144532 13.527343-8.15625 21.707031v83.980469c-.011719 7.535156-6.113282 13.640624-13.652344 13.65625h-6.824219c-7.539063-.015626-13.640625-6.121094-13.65625-13.65625v-51.199219c-.003906-16.972657-13.75-30.71875-30.71875-30.722657l-1.65625.042969h.011719c-8.4375.4375-15.820313 4.488281-20.921875 10.324219-5.121094 5.84375-8.144531 13.527344-8.152344 21.707031v49.847657c-.015625 7.535156-6.117187 13.640624-13.65625 13.65625h-6.824219c-7.539062-.015626-13.640625-6.121094-13.652344-13.65625v-228.414063c-.003906-43.5625 17.632813-83.761719 46.132813-113.074219 28.507813-29.304687 67.738281-47.628906 111.007813-47.632812.957031 0 1.925781.011718 2.902343.035156h.007813zm0 0" fill="#54596e"/><path d="m146.816406 221.871094c17.285156 0 33.023438-6.476563 45.046875-17.066406-12.027343-10.59375-27.761719-17.066407-45.046875-17.066407s-33.023437 6.472657-45.050781 17.066407c12.027344 10.589843 27.761719 17.066406 45.050781 17.066406zm0 0" fill="#ff927d"/><path d="m146.816406 221.871094v6.824218c19.003906.003907 36.367188-7.140624 49.558594-18.769531 1.464844-1.289062 2.316406-3.171875 2.316406-5.121093 0-1.953126-.851562-3.835938-2.316406-5.125-13.191406-11.628907-30.554688-18.773438-49.558594-18.769532-19.007812-.003906-36.367187 7.140625-49.5625 18.769532-1.464844 1.289062-2.316406 3.171874-2.316406 5.125 0 1.949218.851562 3.832031 2.316406 5.121093 13.195313 11.628907 30.554688 18.773438 49.5625 18.769531v-13.652343c-15.566406-.003907-29.679687-5.808594-40.539062-15.363281l-4.511719 5.125 4.511719 5.121093c10.859375-9.554687 24.972656-15.359375 40.539062-15.363281 15.5625.003906 29.675782 5.808594 40.539063 15.363281l4.511719-5.121093-4.511719-5.125c-10.863281 9.554687-24.972657 15.359374-40.539063 15.363281zm0 0" fill="#54596e"/><path d="m242.386719 153.605469c17.289062 0 33.027343-6.476563 45.050781-17.070313-12.027344-10.589844-27.765625-17.066406-45.050781-17.066406-17.285157 0-33.023438 6.476562-45.046875 17.066406 12.023437 10.59375 27.761718 17.070313 45.046875 17.070313zm0 0" fill="#ff927d"/><path d="m242.386719 153.605469v6.824219c19.007812.003906 36.367187-7.140626 49.5625-18.769532 1.464843-1.292968 2.316406-3.171875 2.316406-5.125 0-1.949218-.851563-3.832031-2.316406-5.121094-13.195313-11.628906-30.554688-18.777343-49.5625-18.769531-19.003907-.007812-36.367188 7.140625-49.558594 18.769531-1.464844 1.289063-2.316406 3.171876-2.316406 5.121094 0 1.953125.851562 3.832032 2.316406 5.125 13.191406 11.628906 30.554687 18.773438 49.558594 18.769532v-13.652344c-15.566407-.003906-29.675781-5.808594-40.535157-15.363282l-4.515624 5.121094 4.515624 5.125c10.859376-9.554687 24.972657-15.363281 40.535157-15.363281 15.566406.003906 29.679687 5.808594 40.539062 15.363281l4.511719-5.125-4.511719-5.121094c-10.859375 9.554688-24.972656 15.359376-40.539062 15.363282zm0 0" fill="#54596e"/><path d="m78.546875 174.082031c17.289063 0 33.027344-6.472656 45.050781-17.066406-12.027344-10.589844-27.765625-17.066406-45.050781-17.066406s-33.023437 6.476562-45.046875 17.066406c12.023438 10.59375 27.761719 17.066406 45.046875 17.066406zm0 0" fill="#ff927d"/><path d="m78.546875 174.082031v6.828125c19.007813.003906 36.367187-7.140625 49.5625-18.773437 1.464844-1.289063 2.316406-3.167969 2.316406-5.121094 0-1.949219-.851562-3.832031-2.316406-5.121094-13.195313-11.628906-30.554687-18.777343-49.5625-18.769531-19.003906-.007812-36.367187 7.140625-49.558594 18.769531-1.464843 1.289063-2.316406 3.171875-2.316406 5.121094 0 1.953125.851563 3.832031 2.316406 5.121094 13.191407 11.632812 30.554688 18.773437 49.558594 18.773437v-13.652344c-15.566406-.007812-29.675781-5.808593-40.535156-15.363281l-4.515625 5.121094 4.515625 5.121094c10.859375-9.550781 24.972656-15.359375 40.535156-15.363281 15.566406.007812 29.679687 5.8125 40.539063 15.363281l4.511718-5.121094-4.511718-5.121094c-10.859376 9.554688-24.972657 15.355469-40.539063 15.363281zm0 0" fill="#54596e"/><path d="m262.867188 215.042969c17.289062 0 33.023437-6.472657 45.050781-17.066407-12.027344-10.589843-27.765625-17.066406-45.050781-17.066406-17.285157 0-33.023438 6.476563-45.046876 17.066406 12.023438 10.59375 27.761719 17.066407 45.046876 17.066407zm0 0" fill="#ff927d"/><path d="m262.867188 215.042969v6.824219c19.007812.007812 36.367187-7.140626 49.5625-18.769532 1.464843-1.289062 2.316406-3.171875 2.316406-5.121094 0-1.953124-.851563-3.835937-2.316406-5.125-13.195313-11.628906-30.554688-18.773437-49.5625-18.769531-19.007813-.003906-36.367188 7.140625-49.558594 18.769531-1.464844 1.289063-2.316406 3.171876-2.316406 5.125 0 1.949219.851562 3.832032 2.316406 5.121094 13.191406 11.628906 30.550781 18.777344 49.558594 18.769532v-13.648438c-15.566407-.007812-29.675782-5.8125-40.539063-15.367188l-4.511719 5.125 4.511719 5.121094c10.863281-9.554687 24.972656-15.355468 40.539063-15.363281 15.566406.007813 29.679687 5.808594 40.539062 15.363281l4.511719-5.121094-4.511719-5.125c-10.859375 9.554688-24.972656 15.359376-40.539062 15.367188zm0 0" fill="#54596e"/><path d="m201.769531 92.164062c14.53125 0 27.769531-5.828124 37.882813-15.359374-10.113282-9.53125-23.351563-15.359376-37.882813-15.359376-14.539062 0-27.773437 5.828126-37.886719 15.359376 10.113282 9.527343 23.347657 15.359374 37.886719 15.359374zm0 0" fill="#ff927d"/><g fill="#54596e"><path d="m201.769531 92.164062v6.824219c16.382813.007813 31.320313-6.601562 42.566407-17.21875 1.363281-1.285156 2.144531-3.09375 2.144531-4.964843 0-1.878907-.78125-3.683594-2.144531-4.96875-11.246094-10.617188-26.183594-17.226563-42.566407-17.21875-16.390625-.007813-31.324219 6.601562-42.570312 17.21875-1.367188 1.285156-2.144531 3.09375-2.144531 4.96875s.777343 3.679687 2.144531 4.964843c11.246093 10.617188 26.179687 17.226563 42.570312 17.21875v-13.652343c-12.6875-.007813-24.222656-5.054688-33.207031-13.5l-4.679688 4.96875 4.679688 4.964843c8.984375-8.445312 20.519531-13.492187 33.207031-13.5 12.679688.003907 24.21875 5.054688 33.199219 13.5l4.683594-4.964843-4.683594-4.96875c-8.980469 8.445312-20.515625 13.492187-33.199219 13.5zm0 0"/><path d="m143.402344 191.148438v27.308593c0 3.769531 3.054687 6.828125 6.824218 6.828125 3.773438 0 6.828126-3.058594 6.828126-6.828125v-27.308593c0-3.769532-3.054688-6.824219-6.828126-6.824219-3.769531 0-6.824218 3.054687-6.824218 6.824219"/><path d="m259.457031 184.324219v27.304687c0 3.769532 3.054688 6.828125 6.824219 6.828125s6.828125-3.058593 6.828125-6.828125v-27.304687c0-3.773438-3.058594-6.828125-6.828125-6.828125s-6.824219 3.054687-6.824219 6.828125"/><path d="m238.976562 122.882812v27.308594c0 3.769532 3.054688 6.824219 6.824219 6.824219s6.828125-3.054687 6.828125-6.824219v-27.308594c0-3.769531-3.058594-6.824218-6.828125-6.824218s-6.824219 3.054687-6.824219 6.824218"/><path d="m198.015625 68.269531v20.480469c0 3.769531 3.054687 6.828125 6.824219 6.828125 3.773437 0 6.828125-3.058594 6.828125-6.828125v-20.480469c0-3.769531-3.054688-6.824219-6.828125-6.824219-3.769532 0-6.824219 3.054688-6.824219 6.824219"/></g><path d="m133.5 126.296875c14.535156 0 27.769531-5.828125 37.882812-15.359375-10.113281-9.53125-23.347656-15.359375-37.882812-15.359375s-27.769531 5.828125-37.886719 15.359375c10.117188 9.53125 23.351563 15.359375 37.886719 15.359375zm0 0" fill="#ff927d"/><path d="m133.5 126.296875v6.824219c16.386719.007812 31.320312-6.601563 42.566406-17.21875 1.363282-1.285156 2.144532-3.089844 2.144532-4.964844 0-1.878906-.777344-3.683594-2.144532-4.96875-11.246094-10.617188-26.179687-17.226562-42.566406-17.21875-16.386719-.007812-31.324219 6.601562-42.566406 17.21875-1.367188 1.285156-2.148438 3.09375-2.148438 4.96875s.78125 3.679688 2.148438 4.964844c11.242187 10.617187 26.179687 17.226562 42.566406 17.21875v-13.652344c-12.6875-.007812-24.222656-5.054688-33.203125-13.5l-4.683594 4.96875 4.683594 4.964844c8.980469-8.445313 20.515625-13.492188 33.203125-13.5 12.683594.007812 24.222656 5.054687 33.203125 13.5l4.679687-4.964844-4.679687-4.96875c-8.980469 8.445312-20.519531 13.496094-33.203125 13.5zm0 0" fill="#54596e"/><path d="m129.75 102.402344v20.480468c0 3.769532 3.054688 6.828126 6.824219 6.828126s6.828125-3.058594 6.828125-6.828126v-20.480468c0-3.769532-3.058594-6.824219-6.828125-6.824219s-6.824219 3.054687-6.824219 6.824219" fill="#54596e"/><path d="m75.136719 143.363281v27.308594c0 3.769531 3.054687 6.824219 6.824219 6.824219 3.769531 0 6.828124-3.054688 6.828124-6.824219v-27.308594c0-3.769531-3.058593-6.828125-6.828124-6.828125-3.769532 0-6.824219 3.058594-6.824219 6.828125" fill="#54596e"/></svg>