<?xml version="1.0" encoding="iso-8859-1"?>
<!-- Generator: Adobe Illustrator 19.0.0, SVG Export Plug-In . SVG Version: 6.00 Build 0)  -->
<svg version="1.1" id="Layer_1" xmlns="http://www.w3.org/2000/svg" xmlns:xlink="http://www.w3.org/1999/xlink" x="0px" y="0px"
	 viewBox="0 0 508 508" style="enable-background:new 0 0 508 508;" xml:space="preserve">
<path style="fill:#FFD05B;" d="M508,254c0,70.8-28.8,134.4-75.2,180.4C386.8,480,323.6,508,254,508s-132.8-28-178.8-73.6
	C28.8,388.4,0,324.8,0,254C0,113.6,113.6,0,254,0S508,113.6,508,254z"/>
<path style="fill:#324A5E;" d="M376,221.6H262.8v-88h-18v88H132c-4.8,0-8.8,4-8.8,8.8v90.4h18v-81.2h104.4v127.6h18V239.6H368v81.2
	h18v-90.4C385.2,225.6,381.2,221.6,376,221.6z"/>
<path style="fill:#FFFFFF;" d="M278,78.4h-48c-17.2,0-31.2,14-31.2,31.2v47.6c0,17.2,14,31.2,31.2,31.2h48c17.2,0,31.2-14,31.2-31.2
	v-47.6C309.2,92.4,295.2,78.4,278,78.4z"/>
<path style="fill:#FF7058;" d="M230,170.8c-7.2,0-13.2-6-13.2-13.2v-48c0-7.2,6-13.2,13.2-13.2h48c7.2,0,13.2,6,13.2,13.2v47.6
	c0,7.2-6,13.2-13.2,13.2h-48V170.8z"/>
<path style="fill:#FFFFFF;" d="M272,325.6h-36c-13.2,0-23.6,10.4-23.6,23.6v36c0,13.2,10.4,23.6,23.6,23.6h36
	c13.2,0,23.6-10.4,23.6-23.6v-36C295.6,336,285.2,325.6,272,325.6z"/>
<path style="fill:#FF7058;" d="M236,390.8c-3.2,0-5.6-2.4-5.6-5.6v-36c0-3.2,2.4-5.6,5.6-5.6h36c3.2,0,5.6,2.4,5.6,5.6v36
	c0,3.2-2.4,5.6-5.6,5.6H236z"/>
<path style="fill:#FFFFFF;" d="M394,279.2h-36c-13.2,0-23.6,10.4-23.6,23.6v36c0,13.2,10.4,23.6,23.6,23.6h36
	c13.2,0,23.6-10.4,23.6-23.6v-36C417.6,290,407.2,279.2,394,279.2z"/>
<path style="fill:#84DBFF;" d="M358,344.4c-3.2,0-5.6-2.4-5.6-5.6v-36c0-3.2,2.4-5.6,5.6-5.6h36c3.2,0,5.6,2.4,5.6,5.6v36
	c0,3.2-2.4,5.6-5.6,5.6H358z"/>
<path style="fill:#FFFFFF;" d="M150,279.2h-36c-13.2,0-23.6,10.4-23.6,23.6v36c0,13.2,10.4,23.6,23.6,23.6h36
	c13.2,0,23.6-10.4,23.6-23.6v-36C173.6,290,162.8,279.2,150,279.2z"/>
<path style="fill:#4CDBC4;" d="M114,344.4c-3.2,0-5.6-2.4-5.6-5.6v-36c0-3.2,2.4-5.6,5.6-5.6h36c3.2,0,5.6,2.4,5.6,5.6v36
	c0,3.2-2.4,5.6-5.6,5.6H114z"/>
<g>
</g>
<g>
</g>
<g>
</g>
<g>
</g>
<g>
</g>
<g>
</g>
<g>
</g>
<g>
</g>
<g>
</g>
<g>
</g>
<g>
</g>
<g>
</g>
<g>
</g>
<g>
</g>
<g>
</g>
</svg>
