<?xml version="1.0" encoding="iso-8859-1"?>
<!-- Generator: Adobe Illustrator 19.0.0, SVG Export Plug-In . SVG Version: 6.00 Build 0)  -->
<svg version="1.1" id="Layer_1" xmlns="http://www.w3.org/2000/svg" xmlns:xlink="http://www.w3.org/1999/xlink" x="0px" y="0px"
	 viewBox="0 0 508.8 508.8" style="enable-background:new 0 0 508.8 508.8;" xml:space="preserve">
<g>
	<circle style="fill:#84DBFF;" cx="254.8" cy="254.4" r="254"/>
	<circle style="fill:#84DBFF;" cx="254.8" cy="254.4" r="254"/>
</g>
<g>
	<path style="fill:#F9B54C;" d="M153.2,345.6c0-2,0-3.6,0.4-5.6c0.8-4.8,3.2-9.2,6-13.2c0.4-0.4,0.8-1.2,1.2-1.6s1.2-0.4,1.6-0.4
		c2.8,0,5.6,0,8.4,0c0.8,0,1.2,0,2,0s1.2,0.8,2,1.2c2,1.6,3.2,3.6,4,6c1.6,4.8,0,10-1.6,14.8c-0.8,2-1.2,4.4-2,6.4
		c-0.4,1.2-0.8,2.4-1.6,3.6c-1.6,2-4,3.2-6,4c-3.2,1.2-6.4,2.4-9.2,0.8c-2-1.2-2.8-3.2-3.6-5.2C153.6,353.2,153.2,349.2,153.2,345.6
		z"/>
	<path style="fill:#F9B54C;" d="M396.4,279.2c-9.6,10.4-16,14.8-25.6,25.2c-3.6,4-8,8.4-13.6,8.4c-0.8,0-2-0.4-2.8-0.4
		c-3.6-1.2-6.4-4-8.8-6.8c-10-10.8-19.6-22.8-31.2-32c-12.4-10-27.6-16.4-39.2-27.6c-4.8-4.8-12.8-4.4-19.2-5.2
		c-5.2-0.8-10,1.6-14,4.8s-7.2,6.8-11.6,10c-6.4,4.8-14.8,6.8-22.8,6.4c-2.4-0.4-5.2-0.8-7.2-2.4s-3.2-4.4-2-6.8
		c0.4-1.2,1.6-2.4,2.8-3.2c7.6-8,7.2-22.4,16.8-28c4-2.4,8.4-2.8,12.8-4.4c4-1.6,7.6-4.4,11.2-6.4c3.6-2,7.6-3.2,11.6-4
		c6.8-1.6,14-1.6,21.2-1.6s14.4,0.4,21.2,2.4c5.2,1.6,10,4,15.6,5.2c8,1.6,16-0.4,24-1.6c1.6-0.4,3.2-0.4,4.4,0.4
		c0.8,0.4,1.6,1.2,2,1.6c2.4,2.4,5.2,4.8,7.6,7.2C368,237.6,386.8,256,396.4,279.2z"/>
	<path style="fill:#F9B54C;" d="M396.4,279.2c-9.6,10.4-16,14.8-25.6,25.2c-3.6,4-8,8.4-13.6,8.4c-0.8,0-2-0.4-2.8-0.4
		c-3.6-1.2-6.4-4-8.8-6.8c-10-10.8-19.6-22.8-31.2-32c-12.4-10-27.6-16.4-39.2-27.6c-4.8-4.8-12.8-4.4-19.2-5.2
		c-5.2-0.8-10,1.6-14,4.8s-7.2,6.8-11.6,10c-6.4,4.8-14.8,6.8-22.8,6.4c-0.8,0-1.6,0-2.4-0.4c-1.6-0.4-3.6-0.8-4.8-2
		c-2-1.6-3.2-4.4-2-6.8c0.4-1.2,1.6-2.4,2.8-3.2c3.6-3.6,5.2-8.8,7.2-13.6c2-5.6,4.4-11.2,9.6-14.4c4-2.4,8.8-2.8,12.8-4.4
		c4-1.6,7.6-4.4,11.2-6.4c3.6-2,7.6-3.2,11.6-4c6.8-1.6,14-1.6,21.2-1.6s14.4,0.4,21.2,2.4c5.2,1.6,10,4.4,15.6,5.2
		c8,1.6,16-0.4,24-1.6c1.6,0,3.2-0.4,4.4,0.4c0.8,0.4,1.6,1.2,2,1.6c2.4,2.4,5.2,4.8,7.6,7.2C368,237.6,386.8,256,396.4,279.2z"/>
	<path style="fill:#F9B54C;" d="M396.4,279.2c-9.6,10.4-16,14.8-25.6,25.2c-3.6,4-8,8.4-13.6,8.4c-0.8,0-2-0.4-2.8-0.4
		c-3.6-1.2-6.4-4-8.8-6.8c-10-10.8-19.6-22.8-31.2-32c-12.4-10-27.6-16.4-39.2-27.6c-4.8-4.8-12.8-4.4-19.2-5.2
		c-5.2-0.8-10,1.6-14,4.8s-7.2,6.8-11.6,10c-6.4,4.8-14.8,6.8-22.8,6.4c-0.8,0-1.6,0-2.4-0.4c-1.6-0.4-3.6-0.8-4.8-2
		c-2-1.6-3.2-4.4-2-6.8v-0.4c0.4-1.2,1.6-2,2.4-2.8c3.6-3.6,5.2-8.8,7.2-13.6c0-0.4,0-0.4,0.4-0.8c2-5.2,4.4-10.4,9.2-13.6
		c4-2.4,8.8-2.8,12.8-4.4c4-1.6,7.6-4.4,11.2-6.4c3.6-2,7.6-3.2,11.6-4c6.8-1.6,14-1.6,21.2-1.6s14.4,0.4,21.2,2.4
		c5.2,1.6,10,4.4,15.6,5.2c8,1.6,16-0.4,24-1.6c1.6,0,3.2-0.4,4.4,0.4c0.8,0.4,1.6,1.2,2,1.6c2.4,2.4,5.2,4.8,7.6,7.2
		C368,237.6,386.8,256,396.4,279.2z"/>
</g>
<g>
	<path style="fill:#FFD05B;" d="M355.6,320.8c-0.4,4.8-3.2,9.2-7.6,11.2s-9.6,2-13.6-0.8c3.2,4.8,0,11.6-5.2,14s-11.2,2-16.8,1.2
		c2,1.2,2.4,4.4,1.2,6.4c-1.2,2-3.6,3.2-6,4c-5.2,1.6-11.2,1.6-16.4,0.4c2.4,2,0.8,6.4-1.6,8.4c-6.8,6.4-16.8,8.4-26,6.4
		c-9.2-1.6-17.6-6.4-25.6-11.2c-8-4.8-16-9.6-25.2-12.4c-8.8-2.4-18.4-2.4-27.6-4.8c-14-3.6-25.6-13.2-36.4-22.4c-2-1.6-4-3.6-5.2-6
		c-0.8-2.8,0-5.6,0.8-8c5.6-18.8,12-37.2,20-55.2c1.6-4,3.6-8,6.4-11.6c4.8-6.4,13.2-10.4,13.6-18c0.4-2.8,1.2-5.6,2.8-8
		c0.4-0.8,1.2-1.2,1.6-2c0.8-0.4,1.6-0.8,2.4-0.8c8.8-2.4,17.6-4.8,26.4-7.2c6.8-2,13.6-3.6,20.8-3.2c5.2,0.4,10.4,2.4,14.8,5.2
		c-4,0.8-8,2-11.6,4c-4,2-7.2,4.8-11.2,6.4c-4.4,1.6-8.8,2-12.8,4.4c-9.6,5.6-9.2,20-16.8,28c-0.8,1.2-2,2-2.8,3.2
		c-1.2,2.4,0,5.2,2,6.8c2,1.6,4.8,2,7.2,2.4c8,0.8,16-1.6,22.8-6.4c4-2.8,7.6-6.8,11.6-10s8.8-5.6,14-4.8c6.8,0.8,14.4,0.4,19.2,5.2
		c11.6,11.2,26.4,18,39.2,27.6c11.6,9.2,21.2,21.2,31.2,32c2.4,2.8,5.6,5.6,8.8,6.8C355.6,314.8,356,317.6,355.6,320.8z"/>
	<path style="fill:#FFD05B;" d="M355.6,320.8c-0.4,4.8-3.2,9.2-7.6,11.2c-3.6,1.6-7.6,2-11.2,0.4c-0.8-0.4-1.6-0.8-2.4-1.2
		c0.8,0.8,1.2,2,1.2,3.2c0.4,4-2.4,8.8-6.4,10.8c-4.4,2-9.6,2-14.4,1.6c-0.8,0-1.6,0-2.4-0.4c1.2,0.8,2,2.4,2,4c0,0.8-0.4,2-0.8,2.8
		c-1.2,2-3.6,3.2-6,4c-5.2,1.6-10.8,1.6-16,0.4h-0.4c1.2,0.8,1.6,2.4,1.2,3.6c-0.4,1.6-1.2,3.6-2.8,4.8c-6.8,6.4-16.8,8.4-26,6.4
		c-9.2-1.6-17.6-6.4-25.6-11.2c-8-4.8-16-10-25.2-12.4c-8.8-2.4-18.4-2.4-27.6-4.8c-14-3.6-25.6-13.2-36.4-22.4c-2-1.6-4-3.6-5.2-6
		c-0.8-2.4,0-5.2,0.8-8c5.6-18.8,12-37.2,20-55.2c1.6-4,3.6-8,6.4-11.6c4.8-6.4,13.2-10.4,13.6-18c0.4-2.8,1.2-5.6,2.8-8
		c0.4-0.8,1.2-1.2,1.6-2c0.8-0.4,1.6-0.8,2.4-0.8c8.8-2.4,17.6-4.8,26.4-7.2c6.8-2,13.6-3.6,20.8-3.2c5.2,0.4,10.4,2.4,14.8,5.2
		c-4,0.8-8,2-11.6,4s-7.2,4.8-11.2,6.4c-4.4,1.6-8.8,2-12.8,4.4c-9.6,5.6-9.2,20-16.8,28c-0.8,1.2-2,2-2.8,3.2c-1.2,2.4,0,5.2,2,6.8
		c2,1.6,4.8,2,7.2,2.4c8,0.8,16-1.6,22.8-6.4c4-2.8,7.6-6.8,11.6-10s8.8-5.6,14-4.8c6.8,0.8,14.4,0.4,19.2,5.2
		c11.6,11.2,26.4,17.6,39.2,27.6c11.6,9.2,21.2,21.2,31.2,32c2.4,2.8,5.6,5.6,8.8,6.8C355.6,314.8,356,317.6,355.6,320.8z"/>
</g>
<g>
	<path style="fill:#F9B54C;" d="M194.8,359.6c0-2.8,0-5.2,0.8-7.6c0.4-1.2,1.2-2,2-2.8c1.2-1.6,3.2-3.2,4.8-4.4
		c4.4-2.4,9.6-2.4,14.8-2.4c0.8,0,1.6,0,2.4,0.4c1.6,0.8,2.8,2.8,4.4,3.6c0.4,0.4,1.2,0.8,1.6,1.2c1.2,0.8,1.6,2.4,1.6,3.6
		c0.4,6-2.4,12-7.2,15.6s-11.6,4.4-17.2,2c-1.6-0.4-2.8-1.2-4.4-2c-0.8-0.4-2-1.2-2.8-2C195.2,363.6,194.8,361.6,194.8,359.6z"/>
	<path style="fill:#F9B54C;" d="M258.4,371.2c-1.6,0.8-3.2,0.8-4.8,1.6c-0.8,0.4-1.6,0.8-2,1.2c-2,0.8-4,0.8-6,0.8
		c-2.8,0-5.6,0.4-8-0.4c-2.8-0.4-5.2-1.6-7.2-3.6c-1.2-1.2-2-3.2-2.4-4.8c-0.4-0.8-0.4-1.6-0.4-2.4c0-2,0.8-3.6,2-5.2
		c2.4-2.8,5.6-4.4,8.8-6c2.4-1.2,4.4-2.4,6.8-3.6c2-1.2,4.4-2.4,6.8-3.2c3.6-1.2,7.6-0.8,10.8,0.8c3.2,1.6,5.6,5.2,5.6,8.8
		c0,3.2-1.6,6.4-3.2,9.2C262.8,367.2,261.2,370,258.4,371.2z"/>
	<path style="fill:#F9B54C;" d="M274.8,378.8c-0.4,0.8-1.2,2-1.6,2.8c-1.6,1.6-3.2,2-5.2,2.8c-3.2,0.8-6.4,1.6-9.6,1.6
		c-3.2-0.4-6.4-1.6-8.4-4c-0.8-0.8-1.2-1.6-1.2-2.8c0-2,1.2-3.6,2.8-4.8c4-3.2,9.2-4,12.8-7.2c0.8-0.8,1.6-1.6,2.8-2.4
		c0.8-0.4,1.6-0.4,2.4-0.4c1.6-0.4,3.6-0.4,5.2,0.4s2.4,2,3.2,3.2C278.4,371.2,276.8,375.6,274.8,378.8z"/>
	<path style="fill:#F9B54C;" d="M334.4,331.2c0.8,0.8,1.2,2,1.2,3.2c-1.2-0.4-2-1.6-3.2-2.8c-6.4-7.2-16-10.4-23.2-16.4
		c-2.4-2-4.8-4.4-7.2-6c-2-1.6-4.4-2.8-6.8-4.4c-3.2-2-6.4-4.8-9.6-7.2c-2.8-2.4-6-5.2-6-8.8v-0.4c0-0.4,0.4-0.4,0.8-0.4
		c2.8-0.4,5.2,0.8,7.6,2.4c2,1.6,3.6,4,5.6,6c5.2,5.6,11.2,10,17.6,14.4c5.6,4,11.2,7.6,16.8,11.6c2.4,1.6,4.4,3.2,6.4,5.2
		c1.2,1.6,2.4,3.2,2.8,4.8C336,332,335.2,331.6,334.4,331.2z"/>
</g>
<path style="fill:#E6E9EE;" d="M122.4,293.6c1.6-16.8,9.6-32.8,17.6-48c4.8-9.6,10-19.2,14.8-29.2c1.2-2.4,2.4-4.8,4-6.4
	c4.8-5.6,13.6-7.2,20.4-3.6c1.2,0.8,2.8,1.6,3.6,3.2c0.8,1.2,0.8,2.8,0.8,4c0.4,4.8,0.8,9.6,0,14c-0.8,4-2.4,7.6-4.4,11.2
	c-10.8,22-21.6,44-32.4,66c-0.8,1.6-1.6,3.2-2.8,4.8c-4.4,5.2-13.2,5.6-18,0.8C122,306,121.6,299.6,122.4,293.6z"/>
<path style="fill:#324A5E;" d="M165.2,210.8c-10.4,35.6-23.6,70.8-40.4,104c-0.8,1.6-2,3.6-4,4.4c-1.2,0.4-2.8,0-4,0
	c-8.4-0.8-16,5.2-24.8,6.8c-11.2,1.6-22-4.8-31.6-10.8c-18.8-12-38.4-22.8-58.8-32.8C0.8,273.2,0,264,0,254.8
	c0-46.4,12.4-89.6,34-127.2c8,4.4,15.6,9.2,23.6,13.6c6.4,3.6,12.8,7.6,19.2,11.2c10,6,20.4,12,29.6,20c6.8,5.6,13.2,12.4,22,14
	c3.6,0.4,7.2,0,10.8,0.4c7.6,0.8,14.4,6,20.4,10.8c2,1.6,4.4,3.6,5.2,6.4C166.4,206,165.6,208.4,165.2,210.8z"/>
<path style="fill:#E6E9EE;" d="M355.6,198.8c0.8-1.2,1.6-2.4,2.8-2.8c0.8-0.4,1.6,0,2.4,0c5.2,1.6,8,7.6,11.2,12s8,7.6,12,11.2
	c10.8,10,18,24,24.4,37.2c3.6,7.2,7.2,14.8,11.2,22c4.4,9.2,9.2,18.4,10.4,28.4c-6.4-1.2-13.6,2-19.2-0.8c-2.4-1.2-4-3.2-5.6-5.2
	c-7.6-9.6-14-20.4-19.6-31.2c-4.8-9.6-9.2-20-17.6-26.8c-3.2-2.8-7.2-4.8-9.6-7.6c-1.6-2-2.8-4.4-4.4-6.4
	c-4.4-7.6-10.4-14.4-17.2-20.4C344,208.4,351.6,204.8,355.6,198.8z"/>
<path style="fill:#324A5E;" d="M508.8,254.4c0,6.4-0.4,12.4-0.8,18.4c-20.4,12.8-39.6,28-58.4,43.6c-3.6,3.2-8,6.4-12.8,4.8
	c-2-0.8-3.6-2-4.8-3.6c-6.8-7.6-9.6-18.4-14-27.6c-4-8.4-9.6-16-14.8-23.6L356,201.2c-1.2-1.6-2.4-3.6-2-5.6c0.4-1.6,2-2.4,3.2-3.6
	c6.4-4.4,13.2-9.2,19.6-13.6c6.8-4.8,13.2-9.6,20.4-13.2c6.8-3.6,13.6-6.4,20.8-9.2c19.2-8.4,37.6-19.2,56-29.6
	C496,164,508.8,207.6,508.8,254.4z"/>
<g>
	<path style="fill:#F9B54C;" d="M314.4,350.4c-1.2-0.8-2.8-1.6-4-2.4c-4-2.4-8-5.2-12-8c-1.2-0.8-2.8-1.6-4-2.8c-6-4-12-7.6-18-11.6
		c-2.8-2-5.6-3.6-7.6-6.4c4.8-0.8,9.6,0.8,13.6,3.6c4,2.4,7.6,5.6,11.2,8.8c3.6,2.8,7.2,5.2,10.8,7.2c2.8,1.6,5.6,2.8,8,4.8
		c1.2,0.8,2,2,3.2,3.2c-0.8,0-1.6,0-2.4-0.4C314,347.2,314.4,348.8,314.4,350.4z"/>
	<path style="fill:#F9B54C;" d="M292,361.2c-4-1.6-8-3.2-12-4.8c-2-0.8-4-1.6-6-2.8c-1.6-1.2-3.2-2.4-4.8-4
		c-7.2-6-15.6-12-24.8-11.6c-1.2,0-2.4,0-3.2-0.8s0-2.4,0.8-3.2c0.8-0.8,2.4-0.8,3.6-0.8c3.6,0,7.2,0.8,10.8,2.4c4.8,2,9.2,5.6,14,8
		c2,0.8,4.4,1.6,6.4,2.8c5.6,2.4,10.4,6,14.8,10.4h-0.4C292,358.4,292.4,359.6,292,361.2z"/>
</g>
<g>
	<path style="fill:#FFFEFF;" d="M216,243.6c-0.4,1.6-1.2,2.8-2,4c-2.4,3.2-5.2,5.6-8.4,7.2c-1.2,0.4-2,0.8-3.2,0.8
		c-1.6,0-2.8-1.2-3.2-2.4c0-0.4-0.4-0.8-0.4-1.2c0.4-1.2,1.6-2,2.4-2.8c3.6-3.6,5.2-8.8,7.2-13.6c0-0.4,0-0.4,0.4-0.8
		c0.4-0.4,1.2-0.4,1.6-0.4c0.8,0,1.2,0.8,1.6,1.2C214.4,238,216.4,240.8,216,243.6z"/>
	<path style="fill:#FFFEFF;" d="M250.8,353.2c-0.4-1.6,0.4-3.6,2-4.8c2-1.6,4.4-2.8,6.8-2.8s5.2,1.6,6,4s0,5.6-1.2,8
		c-0.4,0.8-0.8,1.2-1.2,1.6c-0.4,0.4-1.2,0.4-2,0.4c-1.6,0-3.2,0.4-4.8,0c-1.6-0.4-3.2-1.6-3.6-3.2"/>
	<path style="fill:#FFFEFF;" d="M277.2,367.6c-0.8-2-2.4-3.2-4-3.6c-3.2-0.8-6.8,2-7.6,5.6c-0.4,1.6,0,3.6,1.6,4.4
		c0.4,0,0.8,0.4,1.2,0.4l8-0.8C277.6,371.6,277.6,369.6,277.2,367.6z"/>
</g>
<g>
</g>
<g>
</g>
<g>
</g>
<g>
</g>
<g>
</g>
<g>
</g>
<g>
</g>
<g>
</g>
<g>
</g>
<g>
</g>
<g>
</g>
<g>
</g>
<g>
</g>
<g>
</g>
<g>
</g>
</svg>
