<?xml version="1.0" encoding="iso-8859-1"?>
<!-- Generator: Adobe Illustrator 19.0.0, SVG Export Plug-In . SVG Version: 6.00 Build 0)  -->
<svg version="1.1" id="Layer_1" xmlns="http://www.w3.org/2000/svg" xmlns:xlink="http://www.w3.org/1999/xlink" x="0px" y="0px"
	 viewBox="0 0 508.4 508.4" style="enable-background:new 0 0 508.4 508.4;" xml:space="preserve">
<circle style="fill:#84DBFF;" cx="254.2" cy="254" r="254"/>
<path style="fill:#324A5E;" d="M123.8,472c-21.2-12.8-40.4-28.4-56.8-46.4c-7.2-8-14-16-20-24.8c1.6-17.2,2.8-27.6,2.8-27.6l0,0
	c2,1.2,32,20,46,20C104.6,393.2,120.6,432.4,123.8,472z"/>
<path style="fill:#84DBFF;" d="M361.8,464.4l-12.4,22.8l-1.6,2.8c-4.8,2-10,3.6-14.8,5.2s-9.6,3.2-14.4,4.4
	c-1.6,0.4-2.8,0.8-4.4,1.2c-5.6,1.2-11.2,2.4-16.8,3.6c-6,1.2-12,2-18.4,2.4c-0.4,0-1.2,0-2,0c-1.6,0-2.8,0.4-4.4,0.4
	c-6,0.4-12,0.8-18.4,0.8c-6,0-12.4-0.4-18.4-0.8c-1.6,0-3.2,0-4.4-0.4c-0.8,0-1.2,0-2,0c-6.4-0.4-12.4-1.6-18.4-2.4
	c-26.4-4.4-51.2-12.8-74-24.8c-8.8-34.4-17.6-71.6-12.8-77.2c8-9.6,39.2-51.6,39.2-51.6l12-3.6l24.8-7.2l4-1.2l1.6-0.4l3.6-1.2
	l16.8-4.8L255,324l29.2,7.6L301,336l3.2,0.8l1.6,0.4l4,1.2l26,6.8l20.4,5.2L361.8,464.4z"/>
<path style="fill:#FF7058;" d="M275,496.4l2,10.8c-1.6,0-2.8,0.4-4.4,0.4c-6,0.4-12,0.8-18.4,0.8c-6,0-12.4-0.4-18.4-0.8
	c-1.6,0-3.2,0-4.4-0.4l2-10.8l17.2-95.2l-18.8-23.6l-17.2-22h79.6L277,377.2l-18.8,23.6L275,496.4z"/>
<path style="fill:#E6E9EE;" d="M304.6,313.2c0,37.2-22.4,42.4-50.4,42.4s-50.4-5.6-50.4-42.4s22.8-96.4,50.4-96.4
	S304.6,276,304.6,313.2z"/>
<g>
	<path style="fill:#324A5E;" d="M229.4,506.8c-6.4-0.4-12.4-1.6-18.4-2.4c-26.4-4.4-51.2-12.8-74-24.8c-4.8-2.4-9.2-4.8-13.6-7.6
		c-21.2-12.8-40.4-28.4-56.8-46.4c-9.6-31.2-16.8-51.2-17.2-52.4l0,0c86.8-23.2,124.8-45.6,140.8-58.8c9.2-7.2,11.2-12,11.2-12
		c0,0.8,0,1.6,0,2.4c0.4,11.6,1.2,22.8,2.4,34c0.4,6.8,1.2,14,2,20.8C211.4,417.2,220.2,466.8,229.4,506.8z"/>
	<path style="fill:#324A5E;" d="M236.2,507.2c-1.6,0-3.2,0-4.4-0.4c-0.8,0-1.2,0-2,0c-6.4-0.4-12.4-1.6-18.4-2.4
		c-24.8-65.6-48-132.8-48-132.8l24-12.4l-12-12l-2-2c4.4-11.6,10.8-22.4,16.8-30.8c6.4-9.2,12-15.6,15.2-18.8c0.4,0,0.4-0.4,0.4-0.4
		c1.2-1.2,1.6-1.6,1.6-1.6c0,0.4-0.4,0.8-0.4,1.2c0,0.4-0.4,1.2-0.4,2c-1.6,5.6-2,14-1.6,24l0,0c0,5.6,0.4,11.6,0.8,18
		c0.8,8.8,2,18,3.2,28l0,0c5.2,38.8,15.2,86,24.8,129.6C234.2,500,235,503.6,236.2,507.2z"/>
	<path style="fill:#324A5E;" d="M461.4,400.8c-6,8.8-12.8,16.8-20,24.8c-16.4,18-35.6,33.6-56.8,46.4c3.2-39.2,19.2-78.4,28-78.4
		c13.6,0,44-18.8,46-20l0,0C458.6,373.6,459.8,383.6,461.4,400.8z"/>
	<path style="fill:#324A5E;" d="M458.6,373.2L458.6,373.2c-0.4,1.2-7.6,21.2-17.2,52.4c-16.4,18-35.6,33.6-56.8,46.4
		c-10.8,6.4-22,12.4-34,17.2c-0.8,0.4-2,0.8-2.8,1.2c-4.8,2-10,3.6-14.8,5.2s-9.6,3.2-14.4,4.4c-1.6,0.4-2.8,0.8-4.4,1.2
		c-5.6,1.2-11.2,2.4-16.8,3.6c-6,1.2-12,2-18.4,2.4c9.2-40,18.4-90,24-147.6c0.8-7.2,1.2-14.4,2-21.6c0.8-10.4,1.6-21.2,2-32.4l0,0
		c0-0.8,0-1.6,0-2.4c0,0,2,4.4,11.2,12C334.6,328,372.6,350.4,458.6,373.2z"/>
	<path style="fill:#324A5E;" d="M345,371.6c0,0-22.8,66.8-47.6,132.8c-6,1.2-12,2-18.4,2.4c-0.4,0-1.2,0-2,0c-1.6,0-2.8,0.4-4.4,0.4
		c0.8-3.6,1.6-7.6,2.4-11.2c10-43.6,19.6-91.2,24.8-130l0,0c1.6-10.4,2.4-20,3.2-29.2c0.4-6.4,0.8-12,0.8-17.2c0-0.4,0-0.4,0-0.4
		l0,0c0-9.2-0.4-17.2-2-22.4l0,0c0-0.4-0.4-1.2-0.4-1.6s-0.4-0.8-0.4-1.2c0,0,0.4,0.4,1.6,1.6l0.4,0.4c2.8,3.2,8.8,10,15.2,18.8
		c6,8.4,12.4,19.2,16.8,30.8l0,0l-14,14L345,371.6z"/>
</g>
<g>
	<path style="fill:#FFFFFF;" d="M207.4,293.6c0,0,7.2,42.8,46.8,62c0,0-26.4,20.4-31.6,37.2C222.6,393.2,180.2,331.2,207.4,293.6z"
		/>
	<path style="fill:#FFFFFF;" d="M301,293.6c0,0-7.2,42.8-46.8,62c0,0,26.4,20.4,31.6,37.2C285.8,393.2,328.2,331.2,301,293.6z"/>
</g>
<path style="fill:#324A5E;" d="M351,488.8c-0.8,0.4-2,0.8-2.8,1.2c-4.8,2-10,3.6-14.8,5.2l12-12L351,488.8z"/>
<circle style="fill:#FFD05B;" cx="254.2" cy="181.2" r="127.6"/>
<circle style="fill:#F9B54C;" cx="254.2" cy="181.2" r="105.2"/>
<circle style="fill:#FFD05B;" cx="254.2" cy="181.2" r="89.6"/>
<path style="fill:#FFFFFF;" d="M251,242.4v-10.8c-13.6-1.2-25.6-6.8-36.4-16l10.8-12.8c8.4,7.2,16.8,11.6,25.6,12.8v-28.8
	c-11.2-2.8-19.2-6-24.4-10.4s-7.6-10.8-7.6-19.2s2.8-15.6,8.8-20.8s13.6-8.4,23.2-8.8v-7.2h9.6v7.6c10.8,0.8,21.2,4.4,30.8,11.2
	l-9.6,13.6c-6.4-4.8-13.6-7.6-21.2-8.4V172h0.4c11.2,2.8,19.6,6.4,24.8,10.8c5.2,4.4,8,11.2,8,19.6c0,8.8-3.2,15.6-9.2,21.2
	c-6,5.6-14,8.4-24.4,8.8v10.8H251V242.4z M240.6,147.2c-2.4,2.4-3.6,4.8-3.6,8.4c0,3.2,0.8,6,2.8,8s5.6,3.6,11.2,5.6v-25.6
	C246.6,143.6,243,144.8,240.6,147.2z M271.8,212c2.8-2.4,4-5.2,4-8.4c0-3.6-1.2-6-3.2-8s-6-4-12-5.6v26.4
	C265,215.6,269,214,271.8,212z"/>
<g>
</g>
<g>
</g>
<g>
</g>
<g>
</g>
<g>
</g>
<g>
</g>
<g>
</g>
<g>
</g>
<g>
</g>
<g>
</g>
<g>
</g>
<g>
</g>
<g>
</g>
<g>
</g>
<g>
</g>
</svg>
