<?xml version="1.0" encoding="iso-8859-1"?>
<!-- Generator: Adobe Illustrator 21.0.0, SVG Export Plug-In . SVG Version: 6.00 Build 0)  -->
<svg xmlns="http://www.w3.org/2000/svg" xmlns:xlink="http://www.w3.org/1999/xlink" version="1.1" id="Capa_1" x="0px" y="0px" viewBox="0 0 511.95 511.95" style="enable-background:new 0 0 511.95 511.95;" xml:space="preserve" width="512" height="512">
<g>
	<path style="fill:#E0F4FF;" d="M476.496,143.575c1.91-1.91,3.181-4.455,4.031-7.001L511.68,20.872   c1.117-4.095-2.337-11.229-5.463-15.083c-3.326-4.103-8.558-7.051-14.992-5.247l-115.006,32.15   c-2.333,0.637-4.879,1.908-6.576,3.606L127.175,272.823c-5.94,5.94-5.939,15.274-0.425,21.213c0.212,0.212,0.212,0.212,0.212,0.212   l45.397,45.397l43.699,43.699c6.153,5.728,15.485,5.728,21.426-0.212L476.496,143.575z"/>
	<path style="fill:#BBDCFF;" d="M237.484,383.132l239.012-239.557c1.91-1.91,3.181-4.455,4.031-7.001L511.68,20.872   c1.117-4.095-2.337-11.229-5.463-15.083L172.36,339.645l43.699,43.699C222.211,389.072,231.544,389.072,237.484,383.132z"/>
	<path style="fill:#BBDCFF;" d="M390.643,121.362c-5.94-5.94-15.273-5.94-21.213,0L178.511,312.281   c-5.939,5.939-5.94,15.273,0,21.213c5.94,5.94,15.274,5.939,21.213,0l190.919-190.919   C396.583,136.635,396.583,127.302,390.643,121.362z"/>
	<path style="fill:#9ABADB;" d="M390.643,121.362L178.511,333.494c5.94,5.94,15.274,5.939,21.213,0l190.919-190.919   C396.583,136.635,396.583,127.302,390.643,121.362z"/>
	<polygon style="fill:#FF641A;" points="199.724,354.707 178.511,333.494 157.298,312.281 114.871,354.707 113.175,377.616    93.658,375.92 72.445,397.133 71.172,419.619 51.232,418.347 30.019,439.56 30.019,481.986 72.445,481.986 93.658,460.773    92.81,440.408 114.871,439.56 136.085,418.347 134.812,398.406 157.298,397.133  "/>
	<polygon style="fill:#F03800;" points="199.724,354.707 178.511,333.494 30.019,481.986 72.445,481.986 93.658,460.773    92.81,440.408 114.871,439.56 136.085,418.347 134.812,398.406 157.298,397.133  "/>
	<path style="fill:#FFDA2D;" d="M263.364,375.92l-63.64-63.64l-63.64-63.64c-5.94-5.94-15.273-5.94-21.213,0l-21.213,21.213   c-5.939,5.939-5.94,15.273,0,21.213l63.64,63.64l63.64,63.64c5.94,5.94,15.274,5.939,21.213,0l21.213-21.213   C269.304,391.193,269.304,381.861,263.364,375.92z"/>
	<g>
		<polygon style="fill:#F03800;" points="72.445,397.133 51.232,418.347 72.445,439.56 93.658,460.773 114.871,439.56     93.658,418.347   "/>
		<polygon style="fill:#F03800;" points="136.085,375.92 114.871,354.707 93.658,375.92 114.871,397.133 136.085,418.347     157.298,397.133   "/>
	</g>
	<path style="fill:#7C8388;" d="M51.232,460.773L30.019,439.56L8.805,460.773c-11.667,11.667-11.667,30.759,0,42.426   c11.667,11.667,30.759,11.667,42.426,0l21.213-21.213L51.232,460.773z"/>
	<path style="fill:#575F64;" d="M8.805,503.2c11.667,11.667,30.759,11.667,42.426,0l21.213-21.213l-21.213-21.213L8.805,503.2z"/>
	
		<rect x="121.085" y="382.133" transform="matrix(0.7071 -0.7071 0.7071 0.7071 -240.9576 212.544)" style="fill:#AE2538;" width="30" height="30"/>
	
		<rect x="78.658" y="424.56" transform="matrix(0.7071 -0.7071 0.7071 0.7071 -283.3839 194.9704)" style="fill:#AE2538;" width="30" height="30"/>
	<path style="fill:#FDBF00;" d="M263.364,375.92l-63.64-63.64l-42.426,42.426l63.64,63.64c5.94,5.94,15.274,5.939,21.213,0   l21.213-21.213C269.304,391.193,269.304,381.861,263.364,375.92z"/>
</g>















</svg>
