<?xml version="1.0" encoding="iso-8859-1"?>
<!-- Generator: Adobe Illustrator 19.0.0, SVG Export Plug-In . SVG Version: 6.00 Build 0)  -->
<svg version="1.1" id="Layer_1" xmlns="http://www.w3.org/2000/svg" xmlns:xlink="http://www.w3.org/1999/xlink" x="0px" y="0px"
	 viewBox="0 0 508 508" style="enable-background:new 0 0 508 508;" xml:space="preserve">
<circle style="fill:#FD8469;" cx="254" cy="254" r="254"/>
<path style="fill:#FFFFFF;" d="M335.2,162.4c-34-8.4-49.2-16.8-55.6-21.6c-2.4-3.2-4.8-5.6-6-6.8l0,0c7.2-6,12.4-14.8,14.4-25.2
	c2.4-1.2,5.2-4,6.4-8c2-5.6,1.2-11.2-2-12c-1.6-0.4-3.6,0-5.2,1.6C282.8,74,269.6,62,254,62s-28.8,12-32.8,28.4
	c-1.6-1.6-3.6-2-5.2-1.6c-3.2,1.2-4,6.4-2,12c1.6,4,4,6.8,6.4,8c1.6,10.4,6.8,19.6,14.4,25.2l0,0c-1.2,1.2-3.6,3.6-6,6.8
	c-6.4,4.8-21.6,12.8-55.6,21.2c0,0-0.4,4-1.2,10c2.4,3.2,5.2,6,8,9.2c6.4,6.4,14,12.4,22.4,16.8c1.6,0.8,3.6,2,5.2,2.8
	c9.2,4.4,18.8,7.6,29.6,9.2c2.4,0.4,4.8,0.8,7.2,0.8c0.4,0,0.4,0,0.8,0c0.4,0,1.2,0,1.6,0c2.4,0,4.8,0.4,7.2,0.4
	c2.4,0,4.8,0,7.2-0.4c0.8,0,1.2,0,1.6,0s0.4,0,0.8,0c2.4-0.4,4.8-0.4,7.2-0.8c2.4-0.4,4.4-0.8,6.8-1.2c0.8,0,1.2-0.4,1.6-0.4
	c2-0.4,4-0.8,5.6-1.6c2-0.4,4-1.2,6-2c0.4,0,0.8-0.4,1.2-0.4c4.8-1.6,9.2-4,13.6-6.4c8.4-4.4,16-10.4,22.4-16.8c2.8-2.8,5.6-6,8-9.2
	C335.6,166,335.2,162.4,335.2,162.4z"/>
<path style="fill:#324A5E;" d="M222.8,107.2c-17.6-34,7.2-44.8,7.2-44.8l-11.6,6c35.2-38.8,60.4-7.2,60.4-7.2
	c24.4,17.2,8.8,43.6,8.8,43.6s-2.8-19.2-13.2-27.6c0,0-12.4,13.2-41.6,1.2c0,0-6.8,9.2-4.4,22c0,0-2.8-1.6-3.6-8.4
	C224.4,92,220.8,100.4,222.8,107.2L222.8,107.2z"/>
<path style="fill:#FFFFFF;" d="M424.4,364c-24.8-6-36-12-40.4-15.6c-2-2.4-3.6-4-4.4-5.2l0,0c5.2-4.4,9.2-10.8,10.4-18.4
	c2-0.8,3.6-2.8,4.8-6c1.6-4,0.8-8-1.6-8.8c-1.2-0.4-2.4,0-4,1.2c-3.2-12-12.4-20.4-24-20.4c-11.2,0-20.8,8.8-24,20.4
	c-1.2-1.2-2.8-1.6-4-1.2c-2.4,0.8-3.2,4.8-1.6,8.8c1.2,2.8,2.8,5.2,4.8,6c1.2,7.6,5.2,14,10.4,18.4l0,0c-0.8,0.8-2.4,2.4-4.4,4.8
	c-4.4,4-15.2,10-40.4,16c0,0-0.4,2.8-0.8,7.2c1.6,2.4,3.6,4.4,5.6,6.4c4.8,4.8,10.4,8.8,16.4,12.4c1.2,0.8,2.4,1.2,4,2
	c6.4,3.2,13.6,5.6,21.2,6.4c1.6,0.4,3.6,0.4,5.2,0.8h0.4c0.4,0,0.8,0,1.2,0c1.6,0,3.6,0,5.2,0s3.6,0,5.2,0c0.4,0,0.8,0,1.2,0h0.4
	c1.6,0,3.6-0.4,5.2-0.8s3.2-0.4,4.8-0.8c0.4,0,0.8,0,1.2-0.4c1.6-0.4,2.8-0.8,4-1.2c1.6-0.4,2.8-0.8,4.4-1.6c0.4,0,0.4,0,0.8-0.4
	c3.2-1.2,6.8-2.8,9.6-4.4c6-3.2,11.6-7.6,16.4-12.4c2-2,4-4.4,5.6-6.4C424.4,366.8,424.4,364,424.4,364z"/>
<path style="fill:#324A5E;" d="M342.4,324c-12.8-24.8,5.2-32.8,5.2-32.8l-8.4,4.4c25.6-28,44-5.2,44-5.2
	c17.6,12.4,6.4,31.6,6.4,31.6s-2-14-9.6-20c0,0-9.2,9.6-30,0.8c0,0-4.8,6.8-3.2,16c0,0-2-1.2-2.8-6
	C343.6,312.8,341.2,319.2,342.4,324L342.4,324z"/>
<path style="fill:#FFFFFF;" d="M202,364c-24.8-6-36-12-40.4-15.6c-2-2.4-3.6-4-4.4-5.2l0,0c5.2-4.4,9.2-10.8,10.4-18.4
	c2-0.8,3.6-2.8,4.8-6c1.6-4,0.8-8-1.6-8.8c-1.2-0.4-2.4,0-4,1.2c-3.2-12-12.8-20.4-24-20.4s-20.8,8.8-24,20.4
	c-1.2-1.2-2.8-1.6-4-1.2c-2.4,0.8-3.2,4.8-1.6,8.8c1.2,2.8,2.8,5.2,4.8,6c1.2,7.6,5.2,14,10.4,18.4l0,0c-0.8,0.8-2.4,2.4-4.4,4.8
	c-4.8,3.6-15.6,9.6-40.4,15.6c0,0-0.4,2.8-0.8,7.2c1.6,2.4,3.6,4.4,5.6,6.4c4.8,4.8,10.4,8.8,16.4,12.4c1.2,0.8,2.4,1.2,4,2
	c6.4,3.2,13.6,5.6,21.2,6.4c1.6,0.4,3.6,0.4,5.2,0.8h0.4c0.4,0,0.8,0,1.2,0c1.6,0,3.6,0,5.2,0c1.6,0,3.6,0,5.2,0c0.4,0,0.8,0,1.2,0
	h0.4c1.6,0,3.6-0.4,5.2-0.8c1.6-0.4,3.2-0.4,4.8-0.8c0.4,0,0.8,0,1.2-0.4c1.6-0.4,2.8-0.8,4-1.2c1.6-0.4,2.8-0.8,4.4-1.6
	c0.4,0,0.4,0,0.8-0.4c3.2-1.2,6.8-2.8,9.6-4.4c6-3.2,11.6-7.6,16.4-12.4c2-2,4-4.4,5.6-6.4C202,366.8,202,364,202,364z"/>
<path style="fill:#324A5E;" d="M120,324c-12.8-24.8,5.2-32.8,5.2-32.8l-8.4,4.4c25.6-28,44-5.2,44-5.2c17.6,12.4,6.4,31.6,6.4,31.6
	s-2-14-9.6-20c0,0-9.2,9.6-30,0.8c0,0-4.8,6.8-3.2,16c0,0-2-1.2-2.8-6C121.2,312.8,118.8,319.2,120,324L120,324z"/>
<path style="fill:#FFFFFF;" d="M313.2,406.4c-24.8-6-36-12-40.4-15.6c-2-2.4-3.6-4-4.4-5.2l0,0c5.2-4.4,9.2-10.8,10.4-18.4
	c2-0.8,3.6-2.8,4.8-6c1.6-4,0.8-8-1.6-8.8c-1.2-0.4-2.4,0-4,1.2c-3.2-12-12.8-20.4-24-20.4s-20.8,8.8-24,20.8
	c-1.2-1.2-2.8-1.6-4-1.2c-2.4,0.8-3.2,4.8-1.6,8.8c1.2,2.8,2.8,5.2,4.8,6c1.2,7.6,5.2,14,10.4,18.4l0,0c-0.8,0.8-2.4,2.4-4.4,4.8
	c-4.8,3.6-15.6,9.6-40.4,15.6c0,0-0.4,2.8-0.8,7.2c1.6,2.4,3.6,4.4,5.6,6.4c4.8,4.8,10.4,8.8,16.4,12.4c1.2,0.8,2.4,1.2,4,2
	c6.4,3.2,13.6,5.6,21.2,6.4c1.6,0.4,3.6,0.4,5.2,0.8h0.4c0.4,0,0.8,0,1.2,0c1.6,0,3.6,0,5.2,0s3.6,0,5.2,0c0.4,0,0.8,0,1.2,0h0.4
	c1.6,0,3.6-0.4,5.2-0.8s3.2-0.4,4.8-0.8c0.4,0,0.8,0,1.2-0.4c1.6-0.4,2.8-0.8,4-1.2c1.6-0.4,2.8-0.8,4.4-1.6c0.4,0,0.4,0,0.8-0.4
	c3.2-1.2,6.8-2.8,9.6-4.4c6-3.2,11.6-7.6,16.4-12.4c2-2,4-4.4,5.6-6.4C313.2,409.2,313.2,406.4,313.2,406.4z"/>
<path style="fill:#324A5E;" d="M231.2,366.4c-12.8-24.8,5.2-32.8,5.2-32.8L228,338c25.6-28,44-5.2,44-5.2
	c17.6,12.4,6.4,31.6,6.4,31.6s-2-14-9.6-20c0,0-9.2,9.6-30,0.8c0,0-4.8,6.8-3.2,16c0,0-2-1.2-2.8-6
	C232.4,355.2,230,361.2,231.2,366.4L231.2,366.4z"/>
<path style="fill:#FFD05B;" d="M365.2,240H257.6v-16.8c0-2-1.6-3.6-3.6-3.6s-3.6,1.6-3.6,3.6V240H142.8c-2,0-3.6,1.6-3.6,3.6v23.6
	c0,2,1.6,3.6,3.6,3.6s3.6-1.6,3.6-3.6v-20H250v55.2c0,2,1.6,3.6,3.6,3.6s3.6-1.6,3.6-3.6v-54.8h104v20c0,2,1.6,3.6,3.6,3.6
	s3.6-1.6,3.6-3.6V244C368.8,241.6,367.2,240,365.2,240z"/>
<g>
</g>
<g>
</g>
<g>
</g>
<g>
</g>
<g>
</g>
<g>
</g>
<g>
</g>
<g>
</g>
<g>
</g>
<g>
</g>
<g>
</g>
<g>
</g>
<g>
</g>
<g>
</g>
<g>
</g>
</svg>
