<?xml version="1.0" encoding="iso-8859-1"?>
<!-- Generator: Adobe Illustrator 19.0.0, SVG Export Plug-In . SVG Version: 6.00 Build 0)  -->
<svg version="1.1" id="Layer_1" xmlns="http://www.w3.org/2000/svg" xmlns:xlink="http://www.w3.org/1999/xlink" x="0px" y="0px"
	 viewBox="0 0 508 508" style="enable-background:new 0 0 508 508;" xml:space="preserve">
<circle style="fill:#84DBFF;" cx="254" cy="254" r="254"/>
<path style="fill:#324A5E;" d="M254,147.2c-28.8,0-52-23.2-52-52s23.2-52,52-52s52,23.2,52,52C306,123.6,282.8,147.2,254,147.2z
	 M254,51.2c-24.4,0-44,19.6-44,44s19.6,44,44,44s44-19.6,44-44S278.4,51.2,254,51.2z"/>
<g>
	<path style="fill:#2B3B4E;" d="M388,162.4c-2.4-2.4-6-2.4-8.4,0L328,214c-2.4,2.4-2.4,6,0,8.4c1.2,1.2,2.8,1.6,4.4,1.6
		s3.2-0.4,4.4-1.6l51.6-51.6C390.4,168.4,390.4,164.8,388,162.4z"/>
	<path style="fill:#2B3B4E;" d="M128.4,162.4c-2.4-2.4-6-2.4-8.4,0s-2.4,6,0,8.4l51.6,51.6c1.2,1.2,2.8,1.6,4.4,1.6s3.2-0.4,4.4-1.6
		c2.4-2.4,2.4-6,0-8.4L128.4,162.4z"/>
	<rect x="238.8" y="106.8" style="fill:#2B3B4E;" width="30" height="56.8"/>
</g>
<g>
	<path style="fill:#324A5E;" d="M225.6,120v-16.4c0-3.6,3.2-6.8,6.8-6.8h43.2c3.6,0,6.8,3.2,6.8,6.8V120c0,3.6-3.2,6.8-6.8,6.8
		h-43.2C228.8,126.8,225.6,124,225.6,120z"/>
	<circle style="fill:#324A5E;" cx="254" cy="307.6" r="157.2"/>
</g>
<circle style="fill:#E6E9EE;" cx="254" cy="307.6" r="130.8"/>
<g>
	<circle style="fill:#ACB3BA;" cx="254" cy="200.4" r="12"/>
	<circle style="fill:#ACB3BA;" cx="254" cy="416.4" r="12"/>
	<circle style="fill:#ACB3BA;" cx="362" cy="308.4" r="12"/>
	<circle style="fill:#ACB3BA;" cx="146" cy="308.4" r="12"/>
	<circle style="fill:#ACB3BA;" cx="200" cy="214.8" r="12"/>
	<circle style="fill:#ACB3BA;" cx="308" cy="402" r="12"/>
	<circle style="fill:#ACB3BA;" cx="347.6" cy="254.4" r="12"/>
	<circle style="fill:#ACB3BA;" cx="160.4" cy="362.4" r="12"/>
	<circle style="fill:#ACB3BA;" cx="160.4" cy="254.4" r="12"/>
	<circle style="fill:#ACB3BA;" cx="347.6" cy="362.4" r="12"/>
	<circle style="fill:#ACB3BA;" cx="308" cy="214.8" r="12"/>
	<circle style="fill:#ACB3BA;" cx="200" cy="402" r="12"/>
</g>
<path style="fill:#324A5E;" d="M254,312.6c-2.8,0-5-2.2-5-5v-72.8c0-2.8,2.2-5,5-5c2.8,0,5,2.2,5,5v72.8
	C259,310.4,256.8,312.6,254,312.6z"/>
<circle style="fill:#F1543F;" cx="254" cy="307.6" r="18.8"/>
<circle style="fill:#FF7058;" cx="383.6" cy="166.4" r="16"/>
<circle style="fill:#2C9984;" cx="124.4" cy="166.4" r="16"/>
<g>
</g>
<g>
</g>
<g>
</g>
<g>
</g>
<g>
</g>
<g>
</g>
<g>
</g>
<g>
</g>
<g>
</g>
<g>
</g>
<g>
</g>
<g>
</g>
<g>
</g>
<g>
</g>
<g>
</g>
</svg>
