<?xml version="1.0" encoding="iso-8859-1"?>
<!-- Generator: Adobe Illustrator 19.0.0, SVG Export Plug-In . SVG Version: 6.00 Build 0)  -->
<svg version="1.1" id="Layer_1" xmlns="http://www.w3.org/2000/svg" xmlns:xlink="http://www.w3.org/1999/xlink" x="0px" y="0px"
	 viewBox="0 0 508 508" style="enable-background:new 0 0 508 508;" xml:space="preserve">
<circle style="fill:#FD8469;" cx="254" cy="254" r="254"/>
<path style="fill:#F1543F;" d="M81.6,440.4c45.2,42,106,67.6,172.4,67.6c66.8,0,127.2-25.6,172.4-67.6H81.6z"/>
<path style="fill:#54C0EB;" d="M218,351.2c-0.8,1.2,17.2,31.6,30,52.8h29.2l5.6-7.2l22.8-56l7.2-52.4l4.4-48.4L306,214.4
	c-4.8-1.2-8-4.8-9.2-8.8l-41.2-12c0,0-22.8,4-24.4,6c-1.6,2-15.6,16.8-15.6,16.8l-3.6,36.4C211.2,252.8,218.8,349.2,218,351.2z"/>
<path style="fill:#F9B54C;" d="M292.8,198.4c0,28.4-15.6,39.2-34.4,39.2S224,226.8,224,198.4s15.6-70.8,34.4-70.8
	S292.8,170,292.8,198.4z"/>
<ellipse style="fill:#FFD05B;" cx="258" cy="155.6" rx="53.2" ry="55.6"/>
<path style="fill:#2B3B4E;" d="M246.8,398.8c0,1.6,0,3.6,0,5.2h83.6c-5.6-35.6-4-57.6-2-68c0.8-4.8,1.6-7.2,1.6-7.2
	c10.8-19.2,22.8-99.6,22.8-99.6c-8,0.4-15.2-0.4-21.2-2c-26.8-6.8-37.6-26.4-38-27.2c32,87.6-46.8,198.4-46.8,198.4
	C246.8,398.4,246.8,398.4,246.8,398.8z"/>
<path style="fill:#E6E9EE;" d="M246.8,398c0,0.4,0,0.4,0,0.8c44.8-31.6,84.8-87.6,84.8-87.6l-18-30.4h26.8l-8.4-54
	c-26.8-6.8-37.6-26.4-38-27.2C325.6,287.2,246.8,398,246.8,398z"/>
<path style="fill:#324A5E;" d="M368.8,404c0-94-16-174.8-16-174.8s-12,80.4-22.8,99.6c0,0-0.8,2.4-1.6,7.2c4.4,12,8.8,41.2,12.8,68
	H368.8z"/>
<path style="fill:#2B3B4E;" d="M188,336c1.6,10.4,3.6,32.4-2,68h83.6c0-1.6,0-3.6,0-5.2c0,0,0-0.4,0-0.8c0,0-78.4-110.8-46.8-198.4
	c-0.4,0.8-11.2,20.8-38,27.2c-6.4,1.6-13.2,2.4-21.2,2c0,0,12,80.4,22.8,99.6C186.4,328.8,187.2,331.2,188,336z"/>
<path style="fill:#E6E9EE;" d="M269.6,398c0,0.4,0,0.4,0,0.8c-44.8-31.6-84.8-87.6-84.8-87.6l18-30.4H176l8.4-54
	c26.8-6.8,37.6-26.4,38-27.2C190.8,287.2,269.6,398,269.6,398z"/>
<g>
	<path style="fill:#324A5E;" d="M175.2,404c3.6-26.8,8.4-56,12.8-68c-0.8-4.8-1.6-7.2-1.6-7.2c-10.8-19.2-22.8-99.6-22.8-99.6
		s-16,80.8-16,174.8H175.2z"/>
	<path style="fill:#324A5E;" d="M320.4,174.8c-1.2-18-1.6-36-4-54c-0.8-5.6-1.6-13.6-3.2-22C309.2,72,286,52,258,51.6
		C230.4,52,207.2,72,202.8,99.2c-1.2,8.4-2.4,16.4-3.2,22c-2.4,18-2.8,36-4,54c-0.4,7.6,0,18,0.8,26.8c0.4,0.4,0.8,1.2,0.8,1.6
		c1.6,5.6,3.2,11.6,5.6,17.2c3.2,6,7.6,10.4,12.4,14.8c0.8,0.8,2,1.6,2.8,2.8c8.4,4.8,17.2,8.4,18.8,9.2c-2.8-2.4-26.4-30-28.8-48.4
		c14.4,18.4,29.2,18.8,29.2,18.8c-4.4-2.4-9.2-5.2-11.6-9.6c-1.6-2.8-2-6-2.8-9.2c-2.4-11.6-6.4-22.8-12-33.6
		c9.6,15.6,21.6,20.4,21.6,20.4s-26.4-26-10-56c1.2,2,3.2,4,5.6,5.2c3.6-4.8,6.8-10,9.2-15.6c0.4,4.8,16.4,8.4,17.2,11.2
		c1.2-2,2.4-1.2,3.6-3.2c1.2,2,2.4,1.2,3.6,3.2c0.8-2.8,16.8-6.4,17.2-11.2c2.4,5.6,5.6,10.8,9.2,15.6c2.4-1.2,4.4-2.8,5.6-5.2
		c16,30-10,56-10,56s11.6-4.8,21.6-20.4c-5.2,10.8-9.2,22-12,33.6c-0.8,3.2-1.2,6.4-2.8,9.2c-2.4,4.4-6.8,7.2-11.6,9.6
		c0,0,14.8-0.4,29.2-18.8c-2.8,18.4-26,46-28.8,48.4c1.6-0.8,10.4-4.4,18.8-9.2c0.8-0.8,2-1.6,2.8-2.8c4.8-4.4,9.2-8.8,12.4-14.8
		c2.8-5.2,4-11.2,5.6-17.2c0-0.8,0.4-1.2,0.8-1.6C320.4,192.8,320.8,182.4,320.4,174.8z"/>
</g>
<path style="fill:#FFFFFF;" d="M379.2,301.6H128.8c-7.6,0-12.4,6.4-11.2,14L136.4,430c0.8,5.6,6.8,10.4,12.8,10.4h209.6
	c6.4,0,12-4.4,12.8-10.4l18.8-114.4C391.6,308,386.8,301.6,379.2,301.6z"/>
<ellipse style="fill:#E6E9EE;" cx="254" cy="371.2" rx="34.8" ry="15.6"/>
<g>
</g>
<g>
</g>
<g>
</g>
<g>
</g>
<g>
</g>
<g>
</g>
<g>
</g>
<g>
</g>
<g>
</g>
<g>
</g>
<g>
</g>
<g>
</g>
<g>
</g>
<g>
</g>
<g>
</g>
</svg>
