<svg height="511pt" viewBox="-35 1 511 511.99976" width="511pt" xmlns="http://www.w3.org/2000/svg"><path d="m341.636719 304.351562c-1.59375 0-3.199219-.503906-4.5625-1.542968-3.296875-2.523438-3.929688-7.242188-1.40625-10.539063l67.253906-88.019531c2.523437-3.300781 7.242187-3.929688 10.539063-1.410156 3.300781 2.519531 3.929687 7.238281 1.410156 10.539062l-67.257813 88.019532c-1.476562 1.9375-3.714843 2.953124-5.976562 2.953124zm0 0" fill="#46738c"/><path d="m413.972656 170.914062 6.5 11.222657c1.507813 2.597656 4.191406 4.285156 7.183594 4.519531l12.929688 1.007812c1.582031.121094 2.335937 2.003907 1.273437 3.183594l-8.660156 9.652344c-2.003907 2.234375-2.785157 5.308594-2.082031 8.226562l3.039062 12.609376c.371094 1.539062-1.1875 2.839843-2.636719 2.195312l-11.855469-5.257812c-2.742187-1.214844-5.910156-1.003907-8.46875.566406l-11.050781 6.785156c-1.351562.832031-3.066406-.25-2.902343-1.828125l1.335937-12.898437c.308594-2.984376-.871094-5.933594-3.15625-7.878907l-9.867187-8.414062c-1.207032-1.03125-.710938-2.996094.839843-3.328125l12.679688-2.714844c2.9375-.628906 5.375-2.660156 6.523437-5.433594l4.949219-11.984375c.609375-1.46875 2.632813-1.601562 3.425781-.230469zm0 0" fill="#ffc305"/><path d="m88.351562 512c-4.96875 0-9.96875-1.609375-14.167968-4.929688-9.917969-7.832031-11.601563-22.222656-3.769532-32.136718l126.972657-160.691406c7.832031-9.914063 22.222656-11.601563 32.136719-3.765626 9.914062 7.832032 11.601562 22.222657 3.765624 32.136719l-126.96875 160.691407c-4.515624 5.714843-11.210937 8.695312-17.96875 8.695312zm0 0" fill="#ffb69e"/><path d="m23.351562 409.085938c-11.328124 0-21.164062-8.410157-22.660156-19.941407-1.625-12.53125 7.21875-24.007812 19.753906-25.632812l74.847657-9.695313 43.566406-57.300781c7.648437-10.058594 22.003906-12.011719 32.0625-4.363281 10.058594 7.648437 12.011719 22.003906 4.363281 32.0625l-49.355468 64.914062c-3.703126 4.871094-9.203126 8.054688-15.273438 8.839844l-84.335938 10.925781c-.996093.128907-1.988281.191407-2.96875.191407zm0 0" fill="#ffb69e"/><path d="m249.5 109.597656c2.65625 62.984375-56.128906 116.609375-56.128906 116.609375s-63.085938-48.488281-65.742188-111.46875c-2.253906-53.496093 39.8125-100.242187 52.539063-113.109375 2.019531-2.042968 5.273437-2.179687 7.460937-.316406 13.761719 11.753906 59.613282 54.792969 61.871094 108.285156zm0 0" fill="#87afb9"/><path d="m123.144531 170.523438c46.644531 5.761718 78.882813 55.566406 78.882813 55.566406s-43.390625 40.453125-90.035156 34.691406c-39.292969-4.855469-68.363282-40.964844-76.550782-52.222656-1.375-1.894532-1.050781-4.519532.746094-6.019532 10.679688-8.925781 47.664062-36.871093 86.957031-32.015624zm0 0" fill="#b4d7dc"/><path d="m72.570312 334.085938c-4.027343 3.882812-4.964843 9.964843-2.316406 14.890624 11.820313 21.976563 49.386719 79.988282 125.179688 100.332032 5.679687 1.523437 11.660156-1.074219 14.359375-6.300782l102.929687-199.707031c8.097656-15.710937 3.882813-34.964843-10.039062-45.863281l-22.300782-17.453125c-14.375-11.25-34.820312-10.269531-48.054687 2.304687zm0 0" fill="#827ddc"/><path d="m359.949219 138.449219c0 23.589843-19.125 42.710937-42.714844 42.710937s-42.714844-19.121094-42.714844-42.710937c0-23.59375 19.125-42.714844 42.714844-42.714844s42.714844 19.121094 42.714844 42.714844zm0 0" fill="#ffb69e"/><path d="m351.777344 315.476562-74.367188-14.769531c-7.957031-1.582031-14.109375-7.910156-15.472656-15.90625l-13.445312-79.027343c-1.8125-10.648438 5.347656-20.75 16-22.5625 10.644531-1.8125 20.75 5.351562 22.5625 16l11.1875 65.75 61.15625 12.144531c10.59375 2.105469 17.476562 12.402343 15.371093 22.996093-2.101562 10.597657-12.398437 17.476563-22.992187 15.375zm0 0" fill="#ffb69e"/><path d="m294.523438 243.097656-7.46875-43.886718c-1.8125-10.648438-11.917969-17.8125-22.5625-16-10.648438 1.8125-17.8125 11.914062-16 22.5625l7.421874 43.621093zm0 0" fill="#6e64c3"/></svg>