<svg height="512pt" viewBox="0 0 512 512" width="512pt" xmlns="http://www.w3.org/2000/svg"><path d="m407.621094 279.777344h-86.140625v-150.527344c0-14.875 12.058593-26.933594 26.933593-26.933594h48.40625c7.300782 0 14.289063 2.960938 19.363282 8.210938 5.074218 5.246094 7.800781 12.332031 7.558594 19.628906l-4.914063 146.113281zm0 0" fill="#ffb69e"/><g fill="#a56941"><path d="m425.011719 505.453125-27.179688-206.03125-41.371093 5.457031 42.652343 202.523438c.5625 2.679687 2.925781 4.597656 5.664063 4.597656h14.496094c3.5 0 6.199218-3.078125 5.738281-6.546875zm0 0"/><path d="m119.203125 506.496094 4.792969-96.851563c.269531-5.460937 1.648437-10.808593 4.058594-15.71875l23.632812-48.171875-37.464844-18.378906-22.761718 46.394531c-5.617188 11.449219-7.789063 24.28125-6.257813 36.941407l11.625 96.195312c.351563 2.90625 2.820313 5.09375 5.746094 5.09375h10.847656c3.085937 0 5.628906-2.421875 5.78125-5.503906zm0 0"/><path d="m162.476562 225.507812c-46.011718 0-78.453124 46.273438-61.527343 89.054688.242187.617188.496093 1.226562.753906 1.828125 2.429687 5.617187 5.402344 10.78125 8.792969 15.425781 10.707031 14.671875 16.773437 32.207032 17.148437 50.367188.140625 7 1.121094 13.957031 2.917969 20.722656l27.785156 104.789062c.675782 2.539063 2.96875 4.304688 5.59375 4.304688h11.921875c3.429688 0 6.109375-2.96875 5.757813-6.378906l-9.902344-96.59375c-.605469-5.925782.464844-11.90625 3.085938-17.257813 5.347656-10.898437 16.429687-17.804687 28.570312-17.804687h62.632812c21.039063 0 40.308594 11.785156 49.890626 30.515625 4.136718 8.089843 6.25 17.066406 6.148437 26.152343l-.847656 75.511719c-.039063 3.222657 2.5625 5.851563 5.785156 5.851563h14.402344c2.769531 0 5.152343-1.960938 5.679687-4.679688l20.816406-106.769531c3.972657-20.375 11.539063-39.933594 22.757813-57.402344 13.257813-20.644531 22.625-44.039062 28.191406-66.878906 0 0-40.398437-50.765625-97.351562-50.765625-53.714844.003906-116.761719.007812-159.003907.007812zm0 0"/></g><path d="m110.664062 254.425781c-9.902343-31.410156-59.058593-31.695312-85.480468 71.402344-2.507813 10.65625-3.660156 20.425781-5.824219 24.886719-4.882813 8.515625-11.175781 4.226562-17.214844 1.710937-1.128906-.472656-2.347656.507813-2.1171872 1.714844 6.6914062 34.527344 51.6132812 36.15625 78.3320312-39.828125 3.96875-11.320312 6.917969-22.511719 9.335937-32.140625 4.035157-16.046875 2.644532-10.214844 4.164063-16.164063.714844-2.207031 3.585937-8.058593 11.226563-3.984374 11.566406 6.167968 7.578124-7.597657 7.578124-7.597657zm0 0" fill="#ffc305"/><path d="m428.042969 42.851562c0 23.664063-19.183594 42.847657-42.847657 42.847657-23.667968 0-42.851562-19.183594-42.851562-42.847657 0-23.667968 19.183594-42.851562 42.851562-42.851562 23.664063 0 42.847657 19.183594 42.847657 42.851562zm0 0" fill="#ffb69e"/><path d="m409.898438 195.621094-50.722657-52.835938c-7.503906-7.816406-7.25-20.238281.566407-27.742187 7.820312-7.503907 20.238281-7.25 27.746093.566406l40.617188 42.3125 54.734375-27.988281c9.648437-4.9375 21.46875-1.113282 26.402344 8.535156 4.933593 9.648438 1.113281 21.46875-8.535157 26.402344l-67.71875 34.632812c-7.757812 3.964844-17.128906 2.324219-23.089843-3.882812zm0 0" fill="#ffa587"/></svg>