<svg height="512pt" viewBox="-122 0 512 512" width="512pt" xmlns="http://www.w3.org/2000/svg"><path d="m194.261719 512c-13.476563 0-24.398438-10.925781-24.398438-24.398438v-195.03125c0-13.476562 10.921875-24.398437 24.398438-24.398437 13.472656 0 24.398437 10.921875 24.398437 24.398437v195.03125c0 13.472657-10.921875 24.398438-24.398437 24.398438zm0 0" fill="#a56941"/><path d="m135.359375 512c-13.476563 0-24.398437-10.925781-24.398437-24.398438v-195.03125c0-13.476562 10.921874-24.398437 24.398437-24.398437s24.398437 10.921875 24.398437 24.398437v195.03125c0 13.472657-10.921874 24.398438-24.398437 24.398438zm0 0" fill="#965028"/><path d="m206.734375 42.140625c0 23.273437-18.867187 42.140625-42.140625 42.140625s-42.140625-18.867188-42.140625-42.140625 18.867187-42.140625 42.140625-42.140625 42.140625 18.867188 42.140625 42.140625zm0 0" fill="#ffb69e"/><path d="m219.171875 97.714844c-26.296875 0-91.023437 0-109.15625 0-26.8125 0-48.734375 21.476562-48.871094 47.875v.105468 149.378907c0 11.226562 9.105469 20.332031 20.335938 20.332031s20.332031-9.101562 20.332031-20.332031v-149.316407c.042969-3.863281 3.941406-7.378906 8.203125-7.378906h.945313v154.191406h107.699218v-154.191406h.511719c4.261719 0 8.160156 3.511719 8.203125 7.378906v149.3125c0 11.230469 9.101562 20.332032 20.332031 20.332032s20.335938-9.101563 20.335938-20.332032v-149.378906c0-.03125 0-.066406 0-.101562-.132813-26.398438-22.054688-47.875-48.871094-47.875zm0 0" fill="#6c9baa"/><path d="m110.960938 270.078125h107.699218v22.492187h-107.699218zm0 0" fill="#823214"/><path d="m145.597656 273.152344v16.347656c0 4.472656 3.625 8.101562 8.101563 8.101562h22.222656c4.476563 0 8.101563-3.628906 8.101563-8.101562v-16.347656c0-4.476563-3.625-8.101563-8.101563-8.101563h-22.222656c-4.476563 0-8.101563 3.625-8.101563 8.101563zm0 0" fill="#ffa50a"/><path d="m124.199219 341.59375-28.222657 28.398438c-7.992187 8.039062-21 8.039062-28.992187 0l-28.222656-28.398438c-24.824219-24.976562-38.761719-58.765625-38.761719-93.980469v-64.144531c54.320312-15.789062 108.640625-15.789062 162.960938 0v64.144531c0 35.214844-13.933594 69.003907-38.761719 93.980469zm0 0" fill="#46738c"/><g fill="#ffda52"><path d="m81.480469 189.625c21.027343 0 42.324219 2.578125 63.484375 7.675781v50.3125c0 15.160157-2.929688 29.953125-8.710938 43.96875s-14.128906 26.574219-24.816406 37.328125l-28.226562 28.394532c-.589844.597656-1.265626.722656-1.730469.722656-.464844 0-1.140625-.125-1.734375-.722656l-28.222656-28.394532c-10.6875-10.753906-19.035157-23.3125-24.816407-37.328125s-8.710937-28.808593-8.710937-43.96875v-50.3125c21.15625-5.097656 42.457031-7.675781 63.484375-7.675781m0-17.996094c-27.160157 0-54.320313 3.945313-81.480469 11.839844v64.144531c0 35.214844 13.933594 69.003907 38.761719 93.980469l28.222656 28.398438c3.996094 4.019531 9.246094 6.03125 14.496094 6.03125s10.5-2.011719 14.496093-6.03125l28.222657-28.398438c24.828125-24.976562 38.761719-58.765625 38.761719-93.980469v-64.144531c-27.160157-7.894531-54.320313-11.839844-81.480469-11.839844zm0 0"/><path d="m115.875 232.65625c-3.976562 0-7.203125 3.226562-7.203125 7.203125 0 2.25 1.03125 4.253906 2.644531 5.574219l-10.703125 14.769531-15.671875-23.011719c3.089844-1.230468 5.28125-4.242187 5.28125-7.773437 0-4.621094-3.75-8.371094-8.371094-8.371094-4.621093 0-8.367187 3.75-8.367187 8.371094 0 3.5625 2.230469 6.597656 5.371094 7.804687l-15.101563 22.980469-11.050781-14.617187c1.726563-1.316407 2.84375-3.386719 2.84375-5.726563 0-3.976563-3.226563-7.203125-7.203125-7.203125-3.980469 0-7.203125 3.226562-7.203125 7.203125 0 3.980469 3.222656 7.207031 7.203125 7.207031.316406 0 .625-.027344.929688-.066406l7.03125 38.292969c.722656 3.925781 4.140624 6.773437 8.128906 6.773437h36.246094c4.082031 0 7.550781-2.980468 8.171874-7.015625l5.828126-38.09375c.390624.066407.789062.105469 1.195312.105469 3.980469 0 7.207031-3.222656 7.207031-7.203125 0-3.976563-3.226562-7.203125-7.207031-7.203125zm0 0"/></g></svg>