<svg height="512pt" viewBox="-88 0 512 512.00075" width="512pt" xmlns="http://www.w3.org/2000/svg"><path d="m195.523438 512c-12.8125 0-23.199219-10.386719-23.199219-23.199219v-185.445312c0-12.8125 10.386719-23.199219 23.199219-23.199219s23.199218 10.386719 23.199218 23.199219v185.445312c0 12.8125-10.386718 23.199219-23.199218 23.199219zm0 0" fill="#a56941"/><path d="m139.515625 512c-12.8125 0-23.199219-10.386719-23.199219-23.199219v-185.445312c0-12.8125 10.386719-23.199219 23.199219-23.199219s23.203125 10.386719 23.203125 23.199219v185.445312c0 12.8125-10.390625 23.199219-23.203125 23.199219zm0 0" fill="#965028"/><path d="m207.25 67.433594c0 22.128906-17.941406 40.070312-40.070312 40.070312-22.128907 0-40.070313-17.941406-40.070313-40.070312s17.941406-40.070313 40.070313-40.070313c22.128906 0 40.070312 17.941407 40.070312 40.070313zm0 0" fill="#ffb69e"/><path d="m192.515625 16.394531 1.804687 1.371094-.019531 8.503906c-.003906 1.75-1.546875 3.097657-3.28125 2.875l-14.492187-1.867187c-1.527344-.195313-2.675782-1.5-2.679688-3.039063v-.101562c0-.816407.324219-1.601563.902344-2.179688l6.554688-6.554687c.570312-.574219.570312-1.5 0-2.074219l-12.902344-12.898437c-.570313-.574219-1.5-.574219-2.074219 0l-12.898437 12.898437c-.570313.574219-.570313 1.5 0 2.074219l6.601562 6.601562c.574219.574219.898438 1.351563.898438 2.164063.003906 1.546875-1.144532 2.855469-2.679688 3.054687l-14.910156 1.921875c-1.738282.222657-3.277344-1.125-3.28125-2.875l-.019532-8.503906 1.804688-1.371094c.769531-.589843.769531-1.746093 0-2.332031l-12.378906-9.429688c-.96875-.738281-2.355469-.046874-2.355469 1.164063v54.375c0 .859375.695313 1.554687 1.554687 1.554687h77.03125c.859376 0 1.554688-.695312 1.554688-1.554687v-54.375c0-1.210937-1.390625-1.902344-2.351562-1.167969l-12.382813 9.433594c-.769531.585938-.769531 1.742188 0 2.332031zm0 0" fill="#ffda52"/><path d="m18.507812 274.664062v-35l14.484376-.128906v35.003906zm0 0" fill="#a56941"/><path d="m219.210938 120.273438h-103.792969c-25.496094 0-46.339844 20.421874-46.46875 45.621093v37.585938l-42.164063-14.925781c-9.894531-3.503907-21.050781 1.210937-24.902344 10.976562-4.042968 10.25 1.242188 21.726562 11.542969 25.371094l69.601563 24.722656c11.992187 4.261719 24.589844-4.632812 24.589844-17.363281v-66.269531c.019531-3.691407 3.738281-7.050782 7.800781-7.050782h.898437v146.613282h102.40625v-146.613282h.488282c4.0625 0 7.78125 3.359375 7.796874 6.953125v141.574219c0 10.484375 8.152344 19.414062 18.628907 19.785156 11 .390625 20.039062-8.410156 20.039062-19.320312v-142.136719c-.125-25.101563-20.96875-45.523437-46.464843-45.523437zm0 0" fill="#6c9baa"/><path d="m36.753906 221.285156c0 6.335938-5.136718 11.472656-11.472656 11.472656s-11.472656-5.136718-11.472656-11.472656c0-6.335937 5.136718-11.476562 11.472656-11.476562s11.472656 5.140625 11.472656 11.476562zm0 0" fill="#ffc305"/><path d="m36.367188 276.332031-20.921876.183594-10.558593 188.519531 17.203125 43.109375c2.070312 5.191407 9.4375 5.125 11.417968-.097656l16.441407-43.40625zm0 0" fill="#c8e6eb"/><path d="m44.320312 282.003906h-37.015624c-4 .035156-7.2695318-3.175781-7.304688-7.175781s3.179688-7.597656 7.179688-7.632813h37.015624c4-.035156 7.269532 3.632813 7.304688 7.632813v-.453125c.035156 4-3.179688 7.59375-7.179688 7.628906zm0 0" fill="#ffc305"/><path d="m39.535156 241.53125h-28.15625c-.050781-5.917969 4.703125-10.753906 10.621094-10.808594l6.726562-.058594c5.917969-.050781 10.757813 4.703126 10.808594 10.621094zm0 0" fill="#ffc305"/><path d="m26.246094 331.328125c4.339844 21.492187 5.945312 49.652344 6.152344 71.769531.207031 21.875-.898438 50.261719-4.890626 71.863282-4.371093-21.519532-5.976562-49.867188-6.152343-71.765626-.183594-22.117187.929687-50.300781 4.890625-71.867187zm0 0" fill="#a5c8cd"/><path d="m297.183594 371.066406-28.347656 28.527344c-8.03125 8.078125-21.097657 8.078125-29.125 0l-28.351563-28.527344c-24.9375-25.089844-38.9375-59.03125-38.9375-94.40625v-64.4375c54.566406-15.859375 109.132813-15.859375 163.699219 0v64.4375c0 35.375-13.996094 69.316406-38.9375 94.40625zm0 0" fill="#46738c"/><g fill="#ffda52"><path d="m254.269531 218.40625c21.125 0 42.519531 2.589844 63.773438 7.710938v50.539062c0 15.230469-2.945313 30.089844-8.75 44.167969-5.808594 14.082031-14.195313 26.695312-24.929688 37.5l-28.351562 28.523437c-.59375.597656-1.273438.726563-1.742188.726563-.464843 0-1.144531-.128907-1.738281-.726563l-28.351562-28.523437c-10.738282-10.804688-19.125-23.417969-24.929688-37.5-5.808594-14.078125-8.75-28.9375-8.75-44.167969v-50.539062c21.253906-5.121094 42.648438-7.710938 63.769531-7.710938m0-18.078125c-27.28125 0-54.566406 3.964844-81.847656 11.894531v64.4375c0 35.375 13.996094 69.316406 38.933594 94.40625l28.351562 28.527344c4.015625 4.039062 9.289063 6.058594 14.5625 6.058594 5.277344 0 10.550781-2.019532 14.5625-6.058594l28.351563-28.527344c24.9375-25.089844 38.9375-59.03125 38.9375-94.40625v-64.4375c-27.28125-7.929687-54.566406-11.894531-81.851563-11.894531zm0 0"/><path d="m288.824219 261.636719c-3.996094 0-7.234375 3.238281-7.234375 7.234375 0 2.257812 1.03125 4.273437 2.652344 5.601562l-10.75 14.832032-15.746094-23.113282c3.109375-1.238281 5.304687-4.265625 5.304687-7.808594 0-4.644531-3.761719-8.410156-8.40625-8.410156-4.640625 0-8.402343 3.765625-8.402343 8.410156 0 3.578126 2.238281 6.625 5.390624 7.839844l-15.167968 23.082032-11.101563-14.683594c1.734375-1.320313 2.855469-3.402344 2.855469-5.75 0-3.996094-3.238281-7.234375-7.234375-7.234375s-7.238281 3.238281-7.238281 7.234375 3.242187 7.238281 7.238281 7.238281c.316406 0 .625-.027344.933594-.066406l7.066406 38.46875c.722656 3.941406 4.15625 6.800781 8.164063 6.800781h36.410156c4.101562 0 7.585937-2.992188 8.207031-7.042969l5.855469-38.269531c.394531.066406.792968.109375 1.203125.109375 3.996093 0 7.238281-3.242187 7.238281-7.238281s-3.242188-7.234375-7.238281-7.234375zm0 0"/></g></svg>