<svg height="512pt" viewBox="-123 0 512 512.00075" width="512pt" xmlns="http://www.w3.org/2000/svg"><path d="m18.507812 274.664062v-35l14.484376-.128906v35.003906zm0 0" fill="#87afb9"/><path d="m219.210938 120.273438h-103.792969c-25.496094 0-46.339844 20.421874-46.464844 45.621093v37.585938l-42.167969-14.925781c-9.894531-3.503907-21.046875 1.210937-24.902344 10.976562-4.042968 10.25 1.246094 21.726562 11.546876 25.371094l69.597656 24.722656c11.992187 4.261719 24.589844-4.632812 24.589844-17.363281v-66.269531c.019531-3.691407 3.738281-7.050782 7.800781-7.050782h.898437v146.613282h102.40625v-146.613282h.488282c4.0625 0 7.78125 3.359375 7.800781 6.953125v141.574219c0 10.484375 8.148437 19.414062 18.628906 19.785156 10.996094.390625 20.035156-8.410156 20.035156-19.320312v-142.136719c-.125-25.101563-20.96875-45.523437-46.464843-45.523437zm0 0" fill="#ba6746"/><path d="m36.753906 221.285156c0 6.335938-5.136718 11.472656-11.472656 11.472656s-11.472656-5.136718-11.472656-11.472656c0-6.335937 5.136718-11.476562 11.472656-11.476562s11.472656 5.140625 11.472656 11.476562zm0 0" fill="#a5c8cd"/><path d="m36.367188 276.332031-20.921876.183594-10.554687 188.519531 17.199219 43.109375c2.070312 5.191407 9.4375 5.125 11.417968-.097656l16.441407-43.40625zm0 0" fill="#6c9baa"/><path d="m44.320312 282.003906h-37.015624c-4 .035156-7.2695318-3.175781-7.304688-7.175781s3.179688-7.597656 7.179688-7.632813h37.015624c4-.035156 7.269532 3.632813 7.304688 7.632813v-.453125c.035156 4-3.179688 7.59375-7.179688 7.628906zm0 0" fill="#a5c8cd"/><path d="m39.535156 241.53125h-28.15625c-.050781-5.917969 4.703125-10.753906 10.621094-10.808594l6.726562-.058594c5.917969-.050781 10.757813 4.703126 10.808594 10.621094zm0 0" fill="#a5c8cd"/><path d="m26.246094 331.328125c4.339844 21.492187 5.949218 49.652344 6.152344 71.769531.210937 21.875-.898438 50.261719-4.890626 71.863282-4.367187-21.519532-5.976562-49.867188-6.152343-71.765626-.179688-22.117187.929687-50.300781 4.890625-71.867187zm0 0" fill="#55879b"/><path d="m195.523438 512c-12.8125 0-23.199219-10.386719-23.199219-23.199219v-185.445312c0-12.8125 10.386719-23.199219 23.199219-23.199219s23.199218 10.386719 23.199218 23.199219v185.445312c0 12.8125-10.386718 23.199219-23.199218 23.199219zm0 0" fill="#55696e"/><path d="m139.515625 512c-12.8125 0-23.199219-10.386719-23.199219-23.199219v-185.445312c0-12.8125 10.386719-23.199219 23.199219-23.199219 12.816406 0 23.203125 10.386719 23.203125 23.199219v185.445312c0 12.8125-10.386719 23.199219-23.203125 23.199219zm0 0" fill="#748488"/><path d="m219.210938 120.273438h-27.777344c.003906.074218.019531.148437.023437.222656.597657 13.378906-11.816406 24.773437-24.773437 24.773437-13.886719 0-24.167969-11.351562-24.769532-24.773437-.003906-.074219 0-.148438-.003906-.222656h-26.492187c-25.492188 0-46.339844 20.421874-46.464844 45.621093v36.394531h38.667969v-36.296874c.015625-3.691407 3.734375-7.050782 7.796875-7.050782h.898437v146.613282h102.410156v-146.613282h.484376c4.0625 0 7.78125 3.359375 7.800781 6.953125v36.394531h38.667969v-36.492187c-.128907-25.101563-20.972657-45.523437-46.46875-45.523437zm0 0" fill="#ffda52"/><path d="m207.25 67.433594c0 22.128906-17.941406 40.070312-40.070312 40.070312-22.128907 0-40.070313-17.941406-40.070313-40.070312s17.941406-40.070313 40.070313-40.070313c22.128906 0 40.070312 17.941407 40.070312 40.070313zm0 0" fill="#ba6746"/><path d="m192.515625 16.394531 1.804687 1.371094-.019531 8.503906c-.003906 1.75-1.542969 3.097657-3.28125 2.875l-14.488281-1.867187c-1.53125-.195313-2.679688-1.5-2.679688-3.039063v-.101562c-.003906-.816407.320313-1.601563.898438-2.179688l6.554688-6.554687c.570312-.574219.570312-1.5 0-2.074219l-12.902344-12.898437c-.570313-.574219-1.5-.574219-2.074219 0l-12.898437 12.898437c-.570313.574219-.570313 1.5 0 2.074219l6.601562 6.601562c.574219.574219.898438 1.351563.902344 2.164063.003906 1.546875-1.148438 2.855469-2.679688 3.054687l-14.914062 1.921875c-1.738282.226563-3.277344-1.125-3.28125-2.875l-.019532-8.503906 1.804688-1.371094c.769531-.585937.769531-1.746093 0-2.332031l-12.378906-9.429688c-.96875-.734374-2.355469-.046874-2.355469 1.164063v54.378906c0 .855469.695313 1.550781 1.554687 1.550781h77.03125c.859376 0 1.554688-.695312 1.554688-1.550781v-54.378906c0-1.210937-1.390625-1.902344-2.351562-1.167969l-12.382813 9.433594c-.769531.585938-.769531 1.742188 0 2.332031zm0 0" fill="#ffa50a"/></svg>