<svg height="512pt" viewBox="-56 0 512 512.00075" width="512pt" xmlns="http://www.w3.org/2000/svg"><path d="m396.734375 186.523438h-81.136719v-85.707032h81.136719c2.464844 0 4.078125 2.582032 3 4.796875l-17.820313 36.59375c-.449218.921875-.449218 2 0 2.921875l17.820313 36.597656c1.078125 2.214844-.535156 4.796876-3 4.796876zm0 0" fill="#aa321e"/><path d="m74.164062 512c-13.464843 0-24.382812-10.917969-24.382812-24.382812v-194.898438c0-13.464844 10.917969-24.382812 24.382812-24.382812 13.464844 0 24.382813 10.917968 24.382813 24.382812v194.898438c0 13.464843-10.917969 24.382812-24.382813 24.382812zm0 0" fill="#965028"/><path d="m145.535156 42.113281c0 23.257813-18.855468 42.113281-42.113281 42.113281s-42.113281-18.855468-42.113281-42.113281c0-23.257812 18.855468-42.113281 42.113281-42.113281s42.113281 18.855469 42.113281 42.113281zm0 0" fill="#80391b"/><path d="m133.023438 512c-13.464844 0-24.382813-10.917969-24.382813-24.382812v-194.898438c0-13.464844 10.917969-24.382812 24.382813-24.382812 13.46875 0 24.382812 10.917968 24.382812 24.382812v194.898438c.003906 13.464843-10.914062 24.382812-24.382812 24.382812zm0 0" fill="#a56941"/><path d="m286.785156 192.820312c-2.695312-10.898437-13.710937-17.542968-24.601562-14.847656l-55.425782 13.703125v-46.183593c-.132812-26.378907-22.042968-47.84375-48.835937-47.84375-12.363281 0-96.722656 0-109.085937 0-26.792969 0-48.703126 21.464843-48.835938 47.945312v149.28125c0 11.222656 9.097656 20.320312 20.320312 20.320312 11.222657 0 20.320313-9.097656 20.320313-20.320312v-149.179688c.019531-3.875 3.925781-7.410156 8.195313-7.410156h.945312v154.089844h107.628906v-154.085938h.511719c4.269531 0 8.175781 3.53125 8.195313 7.308594v72.035156c0 13.179688 12.386718 22.894532 25.199218 19.726563l80.625-19.9375c10.890625-2.695313 17.539063-13.710937 14.84375-24.601563zm0 0" fill="#6c9baa"/><path d="m157.921875 97.648438h-109.085937c-26.796876 0-48.703126 21.464843-48.835938 47.949218v37.492188h40.640625v-37.390625c.019531-3.878907 3.925781-7.410157 8.195313-7.410157h.945312v154.085938h107.628906c0-18.828125 0-140.582031 0-154.085938h.511719c4.269531 0 8.175781 3.53125 8.195313 7.308594v37.492188h40.640624v-37.597656c-.132812-26.378907-22.042968-47.84375-48.835937-47.84375zm0 0" fill="#a5c8cd"/><path d="m261.832031 512c-5.523437 0-10-4.476562-10-10v-454.84375c0-5.523438 4.476563-10 10-10 5.519531 0 10 4.476562 10 10v454.84375c0 5.523438-4.480469 10-10 10zm0 0" fill="#b48255"/><path d="m257.75 74.550781-20.828125-26.546875c-1.261719-1.609375-1.460937-3.804687-.511719-5.613281l20.832032-39.617187c1.941406-3.699219 7.234374-3.699219 9.179687 0l20.828125 39.617187c.949219 1.808594.75 4.003906-.511719 5.613281l-20.828125 26.546875c-2.078125 2.644531-6.082031 2.644531-8.160156 0zm0 0" fill="#c8e6eb"/><path d="m257.75 74.550781-20.828125-26.546875c-1.261719-1.609375-1.460937-3.804687-.511719-5.613281l20.832032-39.617187c1.941406-3.699219 7.234374-3.699219 9.179687 0l-.511719 71.777343c-2.078125 2.644531-6.082031 2.644531-8.160156 0zm0 0" fill="#a5c8cd"/><path d="m357.628906 156.699219h-108.34375c-3.113281 0-5.636718-2.523438-5.636718-5.636719v-74.433594c0-3.113281 2.523437-5.636718 5.636718-5.636718h108.34375zm0 0" fill="#fa503c"/><path d="m315.597656 156.699219h42.03125l-42.03125 29.824219zm0 0" fill="#872d1e"/><path d="m323.515625 131.304688h-43.34375c-.886719 0-1.609375-.71875-1.609375-1.605469v-25.527344c0-1.5 1.875-2.183594 2.839844-1.035156l6.9375 8.269531c.617187.734375 1.738281.769531 2.398437.074219l9.945313-10.503907c.628906-.664062 1.691406-.667968 2.324218-.007812l10.121094 10.519531c.667969.691407 1.789063.648438 2.398438-.09375l6.746094-8.183593c.957031-1.164063 2.847656-.484376 2.847656 1.019531v25.46875c0 .886719-.71875 1.605469-1.605469 1.605469zm0 0" fill="#ffa50a"/></svg>