<svg height="512pt" viewBox="-124 0 512 512.00026" width="512pt" xmlns="http://www.w3.org/2000/svg"><path d="m122.65625 512c-12.417969 0-22.484375-10.066406-22.484375-22.480469v-179.707031c0-12.414062 10.066406-22.480469 22.484375-22.480469 12.414062 0 22.480469 10.066407 22.480469 22.480469v179.707031c0 12.414063-10.066407 22.480469-22.480469 22.480469zm0 0" fill="#ffb69e"/><path d="m67.984375 512c-12.417969 0-22.484375-10.066406-22.484375-22.480469v-179.707031c0-12.414062 10.066406-22.480469 22.484375-22.480469 12.414063 0 22.480469 10.066407 22.480469 22.480469v179.707031c0 12.414063-10.066406 22.480469-22.480469 22.480469zm0 0" fill="#ffb69e"/><path d="m264.429688 217.324219c-2.484376-10.046875-12.640626-16.171875-22.6875-13.691407l-51.105469 12.640626v-42.585938c-.121094-24.324219-20.320313-44.113281-45.027344-44.113281h-100.582031c-24.703125 0-44.902344 19.789062-45.027344 44.207031v137.644531c0 10.34375 8.386719 18.734375 18.734375 18.734375 5.480469 0 10.398437-2.367187 13.824219-6.121094l-4.03125 126.839844c-.152344 4.808594 3.703125 8.789063 8.511718 8.789063h116.558594c4.808594 0 8.664063-3.980469 8.511719-8.789063l-6.394531-201.253906c1.179687 2.03125 2.742187 3.847656 4.636718 5.332031 4.535157 3.550781 10.453126 4.816407 16.046876 3.433594l74.339843-18.382813c10.042969-2.484374 16.175781-12.640624 13.691407-22.683593zm0 0" fill="#965028"/><g fill="#ffb69e"><path d="m0 300.972656v10.453125c0 10.34375 8.386719 18.734375 18.734375 18.734375s18.734375-8.390625 18.734375-18.734375v-10.453125zm0 0"/><path d="m264.429688 217.324219c-2.484376-10.046875-12.640626-16.171875-22.6875-13.691407l-7.027344 1.738282v38.601562l16.023437-3.964844c10.042969-2.484374 16.175781-12.640624 13.691407-22.683593zm0 0"/><path d="m134.148438 78.367188c0 21.445312-17.382813 38.828124-38.828126 38.828124-21.445312 0-38.832031-17.382812-38.832031-38.828124 0-21.445313 17.386719-38.828126 38.832031-38.828126 21.445313 0 38.828126 17.382813 38.828126 38.828126zm0 0"/></g><path d="m238.796875 512c-5.523437 0-10-4.476562-10-10v-390.867188c0-5.523437 4.476563-10 10-10s10 4.476563 10 10v390.867188c0 5.523438-4.476563 10-10 10zm0 0" fill="#b48255"/><path d="m133.539062 43.984375-6.035156-14.871094c-.855468-2.109375.207032-4.511719 2.34375-5.300781l20.148438-7.433594c4.675781-1.722656 4.015625-8.53125-.902344-9.328125l-41.925781-6.792969c-7.332031-1.1875-14.71875 1.796876-19.164063 7.746094l-25.992187 34.769532c-16.605469 2.960937-27.601563 8.105468-27.601563 13.957031 0 9.179687 27.035156 16.621093 60.386719 16.621093 33.347656 0 60.382813-7.441406 60.382813-16.621093 0-5.121094-8.417969-9.699219-21.640626-12.746094zm0 0" fill="#965028"/><path d="m259.816406 99.550781c0 11.707031-9.492187 21.199219-21.203125 21.199219-11.707031 0-21.199219-9.492188-21.199219-21.199219 0-11.710937 9.492188-21.203125 21.199219-21.203125 11.710938 0 21.203125 9.492188 21.203125 21.203125zm0 0" fill="#ffdc64"/><path d="m88.792969 208.207031h12v251.460938h-12zm0 0" fill="#823214"/><path d="m134.1875 85.367188c-6.714844 0-12.90625 3.890624-15.578125 10.054687-3.894531 8.976563-12.839844 15.261719-23.25 15.261719-10.414063 0-19.359375-6.28125-23.253906-15.261719-2.671875-6.164063-8.859375-10.054687-15.578125-10.054687 0 0 1.777344 140.875 38.304687 141.003906 36.601563.125 39.355469-141.003906 39.355469-141.003906zm0 0" fill="#fff"/></svg>