<svg height="512pt" viewBox="-99 0 512 512" width="512pt" xmlns="http://www.w3.org/2000/svg"><path d="m84.601562 512c-13.363281 0-24.199218-10.832031-24.199218-24.195312v-216.601563c0-13.367187 10.816406-24.199219 24.179687-24.203125 13.363281 0 24.214844 10.832031 24.21875 24.199219v216.601562c0 13.363281-10.832031 24.199219-24.199219 24.199219zm0 0" fill="#a56941"/><path d="m24.199219 512c-13.363281 0-24.199219-10.832031-24.199219-24.195312v-216.601563c0-13.367187 10.816406-24.199219 24.179688-24.203125 13.363281 0 24.214843 10.832031 24.21875 24.199219v216.601562c0 13.363281-10.832032 24.199219-24.199219 24.199219zm0 0" fill="#965028"/><path d="m108.800781 294.960938h-108.800781v-158.695313c0-15.683594 12.714844-28.398437 28.398438-28.398437h52.003906c15.683594 0 28.398437 12.714843 28.398437 28.398437zm0 0" fill="#6c9baa"/><path d="m112.347656 45.175781c0 24.949219-20.222656 45.175781-45.175781 45.175781-24.949219 0-45.175781-20.226562-45.175781-45.175781s20.226562-45.175781 45.175781-45.175781c24.953125 0 45.175781 20.226562 45.175781 45.175781zm0 0" fill="#ffb69e"/><path d="m308.929688 39.132812c-17.140626 13.3125-38.222657 20.539063-59.921876 20.539063h-123.753906c-2.058594 0-3.726562 1.667969-3.726562 3.726563v12.605468c0 2.058594 1.667968 3.726563 3.726562 3.726563h123.753906c21.699219 0 42.78125 7.226562 59.921876 20.535156 2.261718 1.757813 5.554687.144531 5.554687-2.71875v-55.691406c0-2.867188-3.292969-4.480469-5.554687-2.722657zm0 0" fill="#ffda52"/><path d="m252.945312 158.871094-29.042968-14.128906c-1.1875-.578126-2.578125-.578126-3.765625 0l-29.042969 14.128906c-2.859375 1.390625-6.183594-.6875-6.183594-3.867188v-96.136718c0-2.375 1.925782-4.300782 4.300782-4.300782h65.617187c2.375 0 4.300781 1.925782 4.300781 4.300782v96.136718c0 3.179688-3.328125 5.257813-6.183594 3.867188zm0 0" fill="#fa503c"/><path d="m130.320312 167.195312-74.398437-11.386718c-11.292969-1.730469-19.046875-12.285156-17.320313-23.578125 1.730469-11.292969 12.28125-19.054688 23.582032-17.320313l57.546875 8.808594 21.875-61c3.855469-10.753906 15.699219-16.347656 26.453125-12.492188 10.753906 3.855469 16.34375 15.699219 12.488281 26.453126l-27.625 77.046874c-3.339844 9.320313-12.8125 14.964844-22.601563 13.46875zm0 0" fill="#ffb69e"/><path d="m103.195312 121.1875-41.011718-6.277344c-11.300782-1.734375-21.851563 6.027344-23.582032 17.320313-1.726562 11.292969 6.027344 21.847656 17.320313 23.578125l41.179687 6.300781zm0 0" fill="#87afb9"/></svg>