<svg height="511pt" viewBox="-162 0 511 511.99996" width="511pt" xmlns="http://www.w3.org/2000/svg"><path d="m78.273438 512c-12.285157 0-22.246094-9.957031-22.246094-22.242188v-199.117187c0-12.285156 9.941406-22.242187 22.226562-22.246094 12.285156 0 22.261719 9.957031 22.261719 22.246094v199.113281c0 12.285156-9.957031 22.246094-22.242187 22.246094zm0 0" fill="#a56941"/><path d="m22.746094 512c-12.285156 0-22.246094-9.957031-22.246094-22.242188v-199.117187c0-12.285156 9.941406-22.242187 22.226562-22.246094 12.289063 0 22.261719 9.957031 22.261719 22.246094v199.113281c.003907 12.285156-9.957031 22.246094-22.242187 22.246094zm0 0" fill="#965028"/><path d="m100.515625 311.472656h-100.015625v-145.882812c0-14.417969 11.6875-26.105469 26.105469-26.105469h47.804687c14.417969 0 26.105469 11.6875 26.105469 26.105469zm0 0" fill="#6c9baa"/><path d="m90.292969 233.417969-57.898438-52.175781c-7.800781-7.03125-8.425781-19.054688-1.398437-26.859376 7.035156-7.800781 19.058594-8.421874 26.859375-1.394531l48.167969 43.410157 53.96875-27.601563c9.351562-4.785156 20.808593-1.078125 25.589843 8.273437 4.78125 9.351563 1.078125 20.808594-8.269531 25.589844l-65.632812 33.5625c-7.0625 3.613282-15.5625 2.441406-21.386719-2.804687zm0 0" fill="#ffb69e"/><path d="m32.394531 181.242188 28.808594 25.960937 25.917969-27.84375-29.265625-26.371094c-7.800781-7.03125-19.824219-6.40625-26.855469 1.394531-7.03125 7.804688-6.40625 19.828126 1.394531 26.859376zm0 0" fill="#87afb9"/><path d="m135.882812 74.949219h-33.40625c-4.605468-17.917969-20.871093-31.160157-40.226562-31.160157-22.933594 0-41.527344 18.589844-41.527344 41.527344 0 22.933594 18.59375 41.527344 41.527344 41.527344 19.355469 0 35.621094-13.242188 40.226562-31.160156h33.40625c5.722657 0 10.367188-4.640625 10.367188-10.367188 0-5.722656-4.644531-10.367187-10.367188-10.367187zm0 0" fill="#ffb69e"/><path d="m18.617188 7.929688-5.234376 55.859374c-.585937 6.285157 5.480469 11.101563 11.464844 9.101563l59.941406-20.023437c6.925782-2.3125 8.125-11.59375 2.019532-15.59375l-54.707032-35.835938c-5.507812-3.605469-12.871093-.058594-13.484374 6.492188zm0 0" fill="#965028"/></svg>