<svg height="511pt" viewBox="-1 0 511 511.998" width="511pt" xmlns="http://www.w3.org/2000/svg"><path d="m293.78125 422.042969c-.484375 0-.96875-.015625-1.460938-.042969-13.351562-.792969-23.535156-12.261719-22.742187-25.617188l6.007813-101.199218c.609374-10.273438 7.640624-19.035156 17.535156-21.859375l103.613281-29.550781c12.863281-3.667969 26.269531 3.785156 29.9375 16.648437 3.667969 12.867187-3.785156 26.269531-16.648437 29.9375l-87.09375 24.839844-4.992188 84.054687c-.761719 12.867188-11.4375 22.789063-24.15625 22.789063zm0 0" fill="#965028"/><path d="m485.605469 511.996094c-9.792969.003906-19.007813-5.976563-22.667969-15.679688l-40.859375-108.335937c-1.480469-3.921875-1.917969-8.160157-1.265625-12.304688l16.632812-100.359375c2.074219-13.214844 14.46875-22.246094 27.6875-20.171875 13.214844 2.074219 19.132813 12.601563 20.46875 28.128907l-15.9375 93.597656 38.601563 102.347656c4.722656 12.519531-1.597656 26.492188-14.117187 31.214844-2.8125 1.0625-5.703126 1.5625-8.542969 1.5625zm0 0" fill="#a56941"/><path d="m230.992188 195.820312 12.5 7.191407-17.378907 30.214843-12.5-7.191406zm0 0" fill="#a56941"/><path d="m228.1875 236.0625-18.058594-10.390625-99.113281 149.472656c-3.351563 4.984375-5.554687 10.640625-6.457031 16.578125l-5.585938 36.679688c-.839844 5.496094 5.519532 9.15625 9.851563 5.667968l28.898437-23.269531c4.675782-3.765625 8.460938-8.515625 11.082032-13.914062zm0 0" fill="#c8e6eb"/><path d="m232.242188 245.078125-31.945313-18.378906c-3.453125-1.984375-4.644531-6.394531-2.65625-9.847657 1.984375-3.449218 6.394531-4.640624 9.847656-2.652343l31.949219 18.375c3.449219 1.988281 4.640625 6.394531 2.652344 9.847656-1.984375 3.453125-6.394532 4.640625-9.847656 2.65625zm0 0" fill="#ffc305"/><path d="m248.496094 207.976562-24.300782-13.980468c2.9375-5.105469 9.457032-6.863282 14.566407-3.925782l5.804687 3.339844c5.109375 2.9375 6.867188 9.460938 3.929688 14.566406zm0 0" fill="#ffd23c"/><path d="m257.761719 183.617188c0 6.3125-5.113281 11.425781-11.425781 11.425781-6.308594 0-11.425782-5.113281-11.425782-11.425781 0-6.308594 5.117188-11.421876 11.425782-11.421876 6.3125 0 11.425781 5.113282 11.425781 11.421876zm0 0" fill="#a5c8cd"/><path d="m191.699219 278.601562c-7.109375 20.644532-19.921875 45.636719-30.894531 64.730469-10.882813 18.953125-26.132813 42.738281-40.421876 59.246094 7.085938-20.652344 19.980469-45.792969 30.890626-64.730469 10.992187-19.082031 26.15625-42.726562 40.425781-59.246094zm0 0" fill="#a5c8cd"/><path d="m105.863281 414.644531 101.648438-47.191406c6.703125-3.113281 14.410156-3.238281 21.210937-.347656l17 7.222656c2.886719 1.226563 5.53125 2.964844 7.800782 5.132813l49.0625 46.761718c7.117187 6.785156 9.820312 16.992188 6.992187 26.410156l-17.824219 59.363282h-229.359375zm0 0" fill="#55696e"/><path d="m422.722656 288.679688 62.878906-5.40625-13.226562-153.851563c-1.425781-16.5625-16.003906-28.832031-32.566406-27.410156l-53.472656 4.597656c-16.5625 1.421875-28.835938 16.003906-27.410157 32.566406l8.878907 103.277344c2.402343 27.933594 26.988281 48.625 54.917968 46.226563zm0 0" fill="#6c9baa"/><path d="m432.867188 44.554688c0 24.605468-19.949219 44.554687-44.554688 44.554687s-44.554688-19.949219-44.554688-44.554687c0-24.605469 19.949219-44.554688 44.554688-44.554688s44.554688 19.949219 44.554688 44.554688zm0 0" fill="#ffb69e"/><path d="m10.09375 250.363281 27.90625 60.515625c.367188.792969.929688 1.472656 1.640625 1.980469l45.527344 32.609375c8.121093 5.816406 13.613281 14.617188 15.265625 24.46875l23.859375 142.058594h-123.792969v-259.523438c0-5.394531 7.335938-7.003906 9.59375-2.109375zm0 0" fill="#55696e"/><path d="m.5 420.355469 74.609375-38.257813c7.464844-3.828125 16-5.046875 24.242187-3.453125l41.09375 7.9375c10.613282 2.050781 19.828126 8.574219 25.28125 17.90625l14.535157 24.859375c4.714843 8.066406 6.253906 17.609375 4.308593 26.75-3.042968 14.300782 2.492188 29.0625 14.1875 37.835938l24.089844 18.0625h-222.347656zm0 0" fill="#738c96"/><path d="m338.953125 200.390625c-.6875 0-27.863281-1.117187-88.503906-3.578125-11.9375-.488281-21.222657-10.558594-20.738281-22.496094.484374-11.9375 10.558593-21.222656 22.496093-20.738281l81.851563 3.328125 73.769531-38.542969c10.585937-5.53125 23.660156-1.433593 29.191406 9.15625 5.535157 10.589844 1.433594 23.660157-9.15625 29.195313l-78.890625 41.21875c-3.097656 1.617187-6.535156 2.457031-10.019531 2.457031zm0 0" fill="#ffb69e"/><path d="m300.085938 155.527344-47.878907-1.949219c-11.9375-.484375-22.011719 8.800781-22.496093 20.738281-.484376 11.9375 8.800781 22.007813 20.738281 22.496094 20.167969.820312 36.613281 1.488281 49.636719 2.015625zm0 0" fill="#a5c8cd"/><path d="m288.210938 155.042969v43.304687c4.230468.171875 8.195312.332032 11.875.480469v-43.300781zm0 0" fill="#6c9baa"/><path d="m279.546875 154.691406-7.710937-.3125v43.300782c2.652343.109374 5.222656.214843 7.710937.3125zm0 0" fill="#6c9baa"/><path d="m437.019531 127.519531c-5.53125-10.589843-18.605469-14.6875-29.191406-9.15625l-38.148437 19.933594 20.085937 38.320313 38.097656-19.902344c10.589844-5.535156 14.6875-18.605469 9.15625-29.195313zm0 0" fill="#87afb9"/></svg>