<svg height="511pt" viewBox="0 -34 511.99944 511" width="511pt" xmlns="http://www.w3.org/2000/svg"><path d="m372.046875 437.269531-23.851563-180.820312-36.273437 4.785156 37.421875 177.691406c.476562 2.277344 2.484375 3.90625 4.8125 3.90625h13.015625c2.972656 0 5.265625-2.613281 4.875-5.5625zm0 0" fill="#965028"/><path d="m103.890625 438.15625 4.257813-86.039062c.203124-4.144532 1.253906-8.207032 3.082031-11.933594l21.148437-43.113282-32.847656-16.113281-19.886719 40.53125c-4.96875 10.132813-6.894531 21.492188-5.542969 32.699219l10.191407 84.316406c.300781 2.472656 2.398437 4.328125 4.886719 4.328125h9.796874c2.625 0 4.785157-2.054687 4.914063-4.675781zm0 0" fill="#965028"/><path d="m96.410156 216.996094c-8.871094-28.140625-52.003906-26.917969-74.945312 62.605468-2.199219 9.34375-3.210938 17.90625-5.109375 21.820313-3.570313 6.230469-8.003907 4.644531-12.449219 2.664063-2.136719-.953126-4.4375 1.027343-3.796875 3.277343 7.785156 27.3125 45.335937 26.53125 67.976563-37.859375 4.488281-12.789062 9.492187-33.164062 11.839843-42.351562.625-1.9375 3.058594-6.902344 9.839844-3.496094 8.707031 4.378906 6.644531-6.660156 6.644531-6.660156zm0 0" fill="#ffc305"/><path d="m458.972656 136.8125-69.128906-36.222656c.390625-14.566406-5.21875-35.628906-8.40625-46.324219-.289062-.964844-1.003906-1.785156-1.96875-2.070313-1.351562-.402343-2.75.214844-3.378906 1.414063l-40.492188 81.699219-60.09375 62.722656h-88.160156s-52.484375-.050781-71.804688 0c-27.640624.066406-39.449218 44.46875-26.984374 73.292969 1.664062 3.847656 3.617187 7.453125 5.8125 10.789062 10.953124 16.660157 16.710937 36.203125 17.117187 56.136719l26.765625 100.925781c.570312 2.15625 2.523438 3.65625 4.753906 3.65625h10.742188c2.917968 0 5.191406-2.519531 4.894531-5.421875l-8.699219-84.859375c-.53125-5.199219.40625-10.441406 2.707032-15.132812 4.6875-9.554688 14.402343-15.609375 25.046874-15.609375h54.917969c18.449219 0 35.339844 10.332031 43.742188 26.753906 3.628906 7.09375 5.480469 14.964844 5.390625 22.933594l-.746094 66.363281c-.03125 2.738281 2.179688 4.972656 4.921875 4.972656h12.910156c2.355469 0 4.378907-1.667969 4.828125-3.976562l18.59375-95.375c3.449219-17.675781 10.125-34.613281 20.027344-49.65625 22.023438-33.453125 36.789062-73.632813 45.464844-116.324219 2.105468.21875 4.257812.339844 6.457031.339844 11.648437 0 21.042969-4.503906 28.179687-9.585938 6.371094-4.539062 14.875-4.722656 21.433594-.460937 1.484375.960937 3.214844 1.535156 4.980469 1.546875 3.921875.023437 7.28125-2.351563 8.648437-5.804688l3.871094-9.78125 2.042969-5.742187c1.53125-4.304688-.339844-9.078125-4.386719-11.199219zm0 0" fill="#a56941"/><path d="m286.558594 31.585938c0 17.171874-13.917969 31.089843-31.085938 31.089843-17.167968 0-31.085937-13.917969-31.085937-31.089843 0-17.167969 13.917969-31.085938 31.085937-31.085938 17.167969 0 31.085938 13.917969 31.085938 31.085938zm0 0" fill="#ffb69e"/><path d="m202.894531 297.121094c-3.710937 0-7.460937-1.078125-10.757812-3.328125-8.710938-5.949219-10.949219-17.835938-5-26.546875l41.777343-61.167969-65.511718-9.480469c-10.441406-1.507812-17.679688-11.199218-16.171875-21.640625 1.511719-10.441406 11.207031-17.675781 21.640625-16.167969l95.824218 13.863282c6.523438.945312 12.101563 5.1875 14.753907 11.222656 2.652343 6.035156 2.003906 13.011719-1.714844 18.457031l-59.050781 86.460938c-3.699219 5.417969-9.691406 8.328125-15.789063 8.328125zm0 0" fill="#55696e"/><path d="m389.84375 100.589844c.390625-14.566406-5.21875-35.628906-8.40625-46.324219-2.117188-.050781-4.074219 10.144531-5.46875 20.046875-1.53125 10.835938 4.058594 21.433594 13.875 26.277344zm0 0" fill="#965028"/><path d="m148.503906 170.335938 39.484375-97.015626c4.3125-10.59375 16.386719-15.703124 26.996094-11.414062l35.230469 14.238281c5.109375 2.066407 9.1875 6.078125 11.332031 11.152344 2.148437 5.074219 2.1875 10.796875.113281 15.898437l-26.503906 65.183594zm0 0" fill="#a5c8cd"/><path d="m188.746094 162.726562c-3.695313 0-6.914063-2.738281-7.417969-6.503906-.546875-4.101562 2.335937-7.871094 6.4375-8.417968l315.746094-42.1875c4.101562-.542969 7.871093 2.332031 8.421875 6.4375.546875 4.101562-2.335938 7.871093-6.4375 8.417968l-315.746094 42.1875c-.335938.042969-.671875.066406-1.003906.066406zm0 0" fill="#b48255"/><path d="m244.023438 148.59375-42.648438-48.964844c-5.777344-6.628906-5.082031-16.691406 1.546875-22.464844 6.636719-5.777343 16.695313-5.085937 22.46875 1.546876l37.601563 43.171874 46.832031-2.105468c8.804687-.386719 16.226562 6.410156 16.621093 15.195312.394532 8.789063-6.40625 16.230469-15.195312 16.625l-54.503906 2.449219c-4.8125.214844-9.511719-1.761719-12.722656-5.453125zm0 0" fill="#6c9baa"/><path d="m253.191406 110.628906-27.796875-31.917968c-5.777343-6.632813-15.835937-7.328126-22.46875-1.550782-6.632812 5.777344-7.328125 15.839844-1.550781 22.46875l28.414062 32.621094zm0 0" fill="#b4d7dc"/></svg>