<svg height="512pt" viewBox="0 -14 512 511" width="512pt" xmlns="http://www.w3.org/2000/svg"><path d="m22.5625 121.980469h84.234375v112.90625h-84.234375zm0 0" fill="#55879b"/><path d="m512 484.222656h-397.402344c-39.925781 0-72.421875-32.484375-72.441406-72.40625l-.011719-27.757812 45-.023438.011719 27.757813c.007812 15.125 12.316406 27.429687 27.441406 27.429687h397.402344zm0 0" fill="#c8e6eb"/><path d="m358.050781 471.667969c-10.929687 0-19.785156-8.859375-19.785156-19.789063l.011719-205.09375c0-10.925781 8.859375-19.785156 19.789062-19.785156 10.929688.003906 19.785156 8.859375 19.785156 19.789062l-.011718 205.09375c0 10.925782-8.859375 19.785157-19.789063 19.785157zm0 0" fill="#965028"/><path d="m406.273438 471.667969c-10.929688 0-19.789063-8.859375-19.785157-19.789063l.011719-205.09375c0-10.925781 8.859375-19.785156 19.785156-19.785156h.003906c10.929688.003906 19.785157 8.859375 19.785157 19.789062l-.011719 205.09375c-.003906 10.925782-8.863281 19.785157-19.789062 19.785157zm0 0" fill="#a56941"/><path d="m64.644531 71.832031c-2.761719 0-5-2.238281-5-5v-61.332031c0-2.761719 2.238281-5 5-5s5 2.238281 5 5v61.332031c0 2.761719-2.242187 5-5 5zm0 0" fill="#6c9baa"/><path d="m119.757812 397.769531h-110.15625c-5.304687 0-9.601562-4.300781-9.601562-9.601562v-196.496094c0-5.304687 4.300781-9.601563 9.601562-9.601563h110.15625c5.300782 0 9.597657 4.300782 9.597657 9.601563v196.496094c.003906 5.304687-4.296875 9.601562-9.597657 9.601562zm0 0" fill="#6c9baa"/><path d="m6.566406 118.804688 51.742188-72.203126c3.128906-4.359374 9.613281-4.359374 12.738281 0l51.742187 72.203126c3.714844 5.1875.011719 12.398437-6.367187 12.398437h-103.484375c-6.378906.003906-10.085938-7.210937-6.371094-12.398437zm0 0" fill="#a56941"/><path d="m113.53125 37.167969h-51.019531c-1.582031 0-2.867188-1.285157-2.867188-2.871094v-21.4375c0-1.582031 1.285157-2.867187 2.867188-2.867187h51.019531c2.269531 0 3.640625 2.507812 2.417969 4.417968l-4.882813 7.621094c-.601562.941406-.601562 2.152344 0 3.097656l4.882813 7.621094c1.222656 1.910156-.148438 4.417969-2.417969 4.417969zm0 0" fill="#fa503c"/><g fill="#50555a"><path d="m75.519531 169.246094h-21.753906v-18.6875c0-6.007813 4.871094-10.878906 10.875-10.878906 6.007813 0 10.878906 4.871093 10.878906 10.878906zm0 0"/><path d="m80.160156 257.558594h-31.039062v-26.667969c0-8.570313 6.949218-15.519531 15.519531-15.519531 8.574219 0 15.519531 6.945312 15.519531 15.519531zm0 0"/><path d="m80.160156 345.558594h-31.039062v-26.667969c0-8.570313 6.949218-15.519531 15.519531-15.519531 8.574219 0 15.519531 6.945312 15.519531 15.519531zm0 0"/></g><path d="m192 398.683594h-182c-5.523438 0-10-4.476563-10-10 0-5.523438 4.476562-10 10-10h182c5.523438 0 10 4.476562 10 10 0 5.523437-4.476562 10-10 10zm0 0" fill="#6c9baa"/><path d="m338.265625 292.5625h87.808594v-128.078125c0-12.660156-10.261719-22.917969-22.917969-22.917969h-41.972656c-12.65625 0-22.917969 10.257813-22.917969 22.917969zm0 0" fill="#6c9baa"/><path d="m411.996094 94.640625c0 20.136719-16.324219 36.460937-36.460938 36.460937-20.136718 0-36.460937-16.324218-36.460937-36.460937s16.324219-36.460937 36.460937-36.460937c20.136719 0 36.460938 16.324218 36.460938 36.460937zm0 0" fill="#ffb69e"/><path d="m330.734375 224.015625c-6.230469-3.4375-9.601563-10.441406-8.394531-17.453125l12.855468-74.640625c1.5625-9.085937 10.191407-15.1875 19.285157-13.621094 9.085937 1.5625 15.183593 10.199219 13.621093 19.285157l-4.671874 27.136718 15.019531-13.539062c6.847656-6.171875 17.402343-5.625 23.578125 1.226562 6.171875 6.851563 5.625 17.40625-1.226563 23.578125l-50.828125 45.808594c-5.226562 4.710937-12.941406 5.691406-19.238281 2.21875zm0 0" fill="#ffb69e"/><path d="m402.027344 152.410156c-6.175782-6.851562-16.730469-7.398437-23.578125-1.226562l-15.019531 13.539062s-8.257813 27.679688-8.503907 28.886719l12.476563 12.476563 33.398437-30.097657c6.851563-6.171875 7.398438-16.730469 1.226563-23.578125zm0 0" fill="#87afb9"/><path d="m490.90625 160.085938c-11.445312-21.421876-80.644531-50.9375-102.0625-39.496094-1.101562.589844-2.042969 1.277344-2.859375 2.050781l-16.597656-17.238281c-2.445313-2.539063-6.71875-1.519532-7.75 1.851562l-6.625 21.613282c-1.035157 3.371093 1.933593 6.613281 5.382812 5.878906l21.839844-4.644532c-3.019531 18.554688 21.742187 53.90625 31.105469 71.425782 11.445312 21.417968 38.085937 29.503906 59.503906 18.0625 21.421875-11.445313 29.507812-38.085938 18.0625-59.503906zm0 0" fill="#c8a06e"/><path d="m335.960938 225.847656c-9.085938-1.5625-15.183594-10.199218-13.617188-19.285156l12.851562-74.640625c1.5625-9.085937 10.191407-15.1875 19.285157-13.621094 9.085937 1.5625 15.183593 10.199219 13.621093 19.285157l-12.855468 74.640624c-1.558594 9.070313-10.175782 15.1875-19.285156 13.621094zm0 0" fill="#ffb69e"/></svg>