<svg height="512pt" viewBox="-65 0 512 512" width="512pt" xmlns="http://www.w3.org/2000/svg"><path d="m74.164062 512c-13.46875 0-24.382812-10.917969-24.382812-24.382812v-194.898438c0-13.464844 10.914062-24.382812 24.382812-24.382812 13.464844 0 24.382813 10.917968 24.382813 24.382812v194.898438c0 13.464843-10.917969 24.382812-24.382813 24.382812zm0 0" fill="#965028"/><path d="m145.535156 42.113281c0 23.257813-18.855468 42.113281-42.113281 42.113281s-42.113281-18.855468-42.113281-42.113281c0-23.257812 18.855468-42.113281 42.113281-42.113281s42.113281 18.855469 42.113281 42.113281zm0 0" fill="#80391b"/><path d="m133.023438 512c-13.464844 0-24.382813-10.917969-24.382813-24.382812v-194.898438c0-13.464844 10.917969-24.382812 24.382813-24.382812 13.46875 0 24.382812 10.917968 24.382812 24.382812v194.898438c0 13.464843-10.914062 24.382812-24.382812 24.382812zm0 0" fill="#a56941"/><path d="m286.785156 192.816406c-2.695312-10.894531-13.714844-17.539062-24.601562-14.847656l-55.425782 13.707031v-46.183593c-.132812-26.382813-22.042968-47.84375-48.835937-47.84375-12.363281 0-96.722656 0-109.085937 0-26.796876 0-48.703126 21.460937-48.835938 47.945312v149.28125c0 11.222656 9.097656 20.316406 20.320312 20.316406 11.222657 0 20.320313-9.09375 20.320313-20.316406v-149.179688c.015625-3.878906 3.925781-7.410156 8.195313-7.410156h.945312v154.089844h107.628906v-154.089844h.511719c4.269531 0 8.175781 3.535156 8.195313 7.308594v72.039062c0 13.179688 12.386718 22.890626 25.199218 19.726563l80.625-19.9375c10.890625-2.695313 17.539063-13.710937 14.84375-24.605469zm0 0" fill="#6c9baa"/><path d="m157.921875 97.648438h-109.085937c-26.796876 0-48.703126 21.460937-48.835938 47.945312v37.496094h40.640625v-37.394532c.015625-3.875 3.925781-7.410156 8.195313-7.410156h.945312v154.089844h107.628906c0-18.828125 0-140.585938 0-154.089844h.511719c4.269531 0 8.175781 3.535156 8.195313 7.308594v37.496094h40.640624v-37.597656c-.132812-26.382813-22.042968-47.84375-48.835937-47.84375zm0 0" fill="#a5c8cd"/><path d="m353.339844 142.433594c6.074218 0 11 4.925781 11 11 0 6.078125-4.925782 11-11 11h-94.664063c-6.078125 0-11-4.921875-11-11 0-6.074219 4.921875-11 11-11z" fill="#b48255"/><path d="m364.800781 287.738281h-100v-145.304687h88c6.625 0 12 5.375 12 12zm0 0" fill="#ffd23c"/><path d="m370.464844 298.738281h-94.664063c-6.078125 0-11-4.925781-11-11 0-6.078125 4.921875-11 11-11h94.664063c6.074218 0 11 4.921875 11 11 0 6.074219-4.925782 11-11 11zm0 0" fill="#ffe65a"/><g fill="#b48255"><path d="m286.550781 287.738281c0 6.074219-4.925781 11-11 11-6.078125 0-11-4.925781-11-11 0-6.078125 4.921875-11 11-11 6.074219 0 11 4.921875 11 11zm0 0"/><path d="m315.488281 175.101562h-28c-2.761719 0-5-2.238281-5-5 0-2.761718 2.238281-5 5-5h28c2.761719 0 5 2.238282 5 5 0 2.761719-2.238281 5-5 5zm0 0"/><path d="m341.488281 208.101562h-54c-2.761719 0-5-2.238281-5-5 0-2.761718 2.238281-5 5-5h54c2.761719 0 5 2.238282 5 5 0 2.761719-2.238281 5-5 5zm0 0"/><path d="m341.488281 232.101562h-54c-2.761719 0-5-2.238281-5-5 0-2.761718 2.238281-5 5-5h54c2.761719 0 5 2.238282 5 5 0 2.761719-2.238281 5-5 5zm0 0"/></g><path d="m264.800781 162.085938v-19.652344h-6.125c-2.351562 0-4.523437.746094-6.3125 2 6.652344 3.417968 11.28125 10.027344 12.4375 17.652344zm0 0" fill="#ffda52"/></svg>