<svg height="512pt" viewBox="0 -72 512 512" width="512pt" xmlns="http://www.w3.org/2000/svg"><path d="m496.96875 284.21875h-404.789062c-8.300782 0-15.027344-6.730469-15.027344-15.03125s6.726562-15.027344 15.027344-15.027344h404.789062c8.300781 0 15.03125 6.726563 15.03125 15.027344s-6.730469 15.03125-15.03125 15.03125zm0 0" fill="#b48255"/><path d="m71.640625 309.765625h-71.640625v-81.15625h71.640625c22.410156 0 40.578125 18.167969 40.578125 40.578125s-18.167969 40.578125-40.578125 40.578125zm0 0" fill="#ffda52"/><path d="m50.097656 309.765625h21.542969c.503906 0 1.003906-.019531 1.503906-.035156v-81.082031c-.5-.019532-1-.039063-1.503906-.039063h-21.542969zm0 0" fill="#fa870a"/><path d="m175.953125 358.082031c-8.414063-11.835937-5.640625-28.253906 6.195313-36.667969l72.507812-51.550781-72.875-18.8125c-14.0625-3.628906-22.519531-17.972656-18.886719-32.035156 3.628907-14.058594 17.96875-22.515625 32.03125-18.886719l127.613281 32.949219c9.90625 2.554687 17.425782 10.621094 19.285157 20.679687 1.859375 10.058594-2.285157 20.285157-10.621094 26.210938l-118.582031 84.308594c-11.882813 8.445312-28.285156 5.589844-36.667969-6.195313zm0 0" fill="#965028"/><path d="m424.539062 48.367188c0 26.710937-21.65625 48.363281-48.367187 48.363281s-48.363281-21.652344-48.363281-48.363281c0-26.714844 21.652344-48.367188 48.363281-48.367188s48.367187 21.652344 48.367187 48.367188zm0 0" fill="#ffb69e"/><path d="m346.730469 111.976562-22.09375-22.042968c-10.890625-10.867188-25.828125-16.683594-41.199219-16.046875-15.367188.640625-29.773438 7.675781-39.722656 19.40625l-70.164063 83.492187c-13.335937 15.714844-19.25 43.300782-8.375 61.21875l117.226563-15.292968 20.941406-20.992188 43.441406-43.539062c12.742188-12.773438 12.71875-33.460938-.054687-46.203126zm0 0" fill="#827ddc"/><path d="m371.542969 256.167969-65.980469-45.242188c-4.546875-3.121093-7.75-7.835937-8.972656-13.210937l-18.683594-82.078125c-2.6875-11.800781 4.703125-23.542969 16.503906-26.230469 11.800782-2.683594 23.542969 4.703125 26.230469 16.503906l16.777344 73.71875 58.90625 40.394532c9.980469 6.84375 12.527343 20.480468 5.683593 30.460937-6.847656 9.984375-20.488281 12.523437-30.464843 5.683594zm0 0" fill="#ffb69e"/><path d="m289.472656 166.457031 42.550782-10.535156-11.382813-50.011719c-2.6875-11.800781-14.425781-19.1875-26.230469-16.503906-11.800781 2.6875-19.1875 14.429688-16.503906 26.230469zm0 0" fill="#5046af"/></svg>