<svg viewBox="0 0 512 512" xmlns="http://www.w3.org/2000/svg" xmlns:xlink="http://www.w3.org/1999/xlink"><linearGradient id="a" gradientTransform="matrix(1 0 0 -1 0 -16582)" gradientUnits="userSpaceOnUse" x1="0" x2="512" y1="-16838" y2="-16838"><stop offset="0" stop-color="#00f1ff"/><stop offset=".231" stop-color="#00d8ff"/><stop offset=".5138" stop-color="#00c0ff"/><stop offset=".7773" stop-color="#00b2ff"/><stop offset="1" stop-color="#00adff"/></linearGradient><path d="m512 256c0 141.386719-114.613281 256-256 256s-256-114.613281-256-256 114.613281-256 256-256 256 114.613281 256 256zm0 0" fill="url(#a)"/><g fill="#fff"><path d="m120.222656 261.042969c0 11.914062 9.691406 21.609375 21.609375 21.609375 11.914063 0 21.609375-9.695313 21.609375-21.609375 0-11.917969-9.695312-21.609375-21.609375-21.609375-11.917969 0-21.609375 9.691406-21.609375 21.609375zm0 0"/><path d="m223.949219 150.832031c0 11.914063 9.695312 21.609375 21.613281 21.609375 11.914062 0 21.609375-9.695312 21.609375-21.609375 0-11.917969-9.695313-21.609375-21.609375-21.609375-11.917969-.003906-21.613281 9.691406-21.613281 21.609375zm0 0"/><path d="m184.492188 200.695312c8.429687-8.429687 8.429687-22.144531 0-30.574218v-.003906c-8.429688-8.425782-22.144532-8.425782-30.574219.003906-8.429688 8.429687-8.429688 22.144531 0 30.574218 4.214843 4.214844 9.75 6.324219 15.285156 6.324219 5.539063-.003906 11.074219-2.109375 15.289063-6.324219zm0 0"/><path d="m171.367188 353.964844c5.769531 0 11.195312-2.246094 15.28125-6.328125 4.078124-4.085938 6.328124-9.511719 6.328124-15.285157 0-5.777343-2.25-11.203124-6.332031-15.285156-8.425781-8.425781-22.132812-8.425781-30.558593 0-4.082032 4.082032-6.328126 9.511719-6.328126 15.285156 0 5.773438 2.246094 11.203126 6.328126 15.285157 4.082031 4.082031 9.507812 6.328125 15.28125 6.328125zm0 0"/><path d="m431.605469 174.445312c-4-37.386718-25.003907-59.054687-47.105469-76.894531-31.078125-25.09375-70.574219-26.496093-72.238281-26.542969-5.417969-.144531-10.492188 2.621094-13.28125 7.261719-2.792969 4.636719-2.867188 10.421875-.195313 15.132813 10.625 18.722656 5.902344 31.851562-.632812 50.027344-4.828125 13.429687-10.300782 28.648437-7.9375 46.441406 2.558594 19.257812 12.0625 36.3125 26.757812 48.019531.246094.195313.503906.378906.75.570313v42.542968c-19.460937 1.199219-34.289062 5.261719-45.058594 12.347656-13.40625 8.8125-20.492187 22.300782-20.492187 39.003907 0 11.859375 3.554687 21.507812 6.691406 30.019531 2.980469 8.09375 5.554688 15.082031 5.554688 24.007812 0 16.335938-9.011719 24.617188-26.78125 24.617188-83.023438 0-145.632813-66.636719-145.632813-155 0-85.464844 69.53125-155 155-155 3.277344 0 6.597656.105469 9.871094.308594 8.277344.515625 15.390625-5.765625 15.90625-14.03125.519531-8.269532-5.765625-15.390625-14.035156-15.910156-3.894532-.246094-7.84375-.367188-11.742188-.367188-102.011718 0-185 82.988281-185 185 0 49.816406 17.433594 96.121094 49.089844 130.386719 32.539062 35.21875 77.476562 54.613281 126.542969 54.613281 24.441406 0 37.953125-10.378906 44.984375-19.082031 7.605468-9.417969 11.796875-22.035157 11.796875-35.535157 0-14.277343-3.933594-24.953124-7.40625-34.375-2.703125-7.34375-4.839844-13.144531-4.839844-19.652343 0-6.644531 2.019531-10.683594 6.972656-13.9375 4.359375-2.867188 12.722657-6.171875 28.578125-7.351563v84.355469c-.472656 11.425781 3.570313 22.472656 11.40625 31.144531 7.835938 8.679688 18.582032 13.785156 30.261719 14.378906.753906.035157 1.5.058594 2.25.058594 23.121094-.003906 42.5-18.199218 43.6875-41.550781.421875-8.273437-5.941406-15.320313-14.21875-15.742187-8.246094-.441407-15.320313 5.945312-15.742187 14.21875-.386719 7.582031-6.859376 13.425781-14.457032 13.054687-3.671875-.1875-7.054687-1.792969-9.519531-4.523437-1.484375-1.644532-3.933594-5.113282-3.6875-9.933594l.019531-.378906v-144.253907c4.246094.789063 8.582032 1.199219 12.972656 1.199219 2.566407 0 5.152344-.136719 7.746094-.410156 2.332032-.25 4.636719-.609375 6.910156-1.074219v78.585937c0 8.28125 6.714844 15 15 15 8.28125 0 15-6.71875 15-15v-92.691406c3.960938-3.183594 7.621094-6.800781 10.886719-10.847656 11.929688-14.777344 17.390625-33.320312 15.367188-52.210938zm-66.332031 48.40625c-10.824219 1.152344-21.34375-1.84375-29.609376-8.425781-8.601562-6.851562-14.183593-16.976562-15.714843-28.507812-1.398438-10.554688 2.230469-20.648438 6.433593-32.339844 4.917969-13.675781 10.667969-29.667969 7.925782-48.421875 9.847656 2.867188 21.367187 7.679688 31.347656 15.734375 20.304688 16.394531 33.429688 31.605469 36.121094 56.746094 1.167968 10.917969-1.988282 21.636719-8.878906 30.175781-6.894532 8.539062-16.707032 13.878906-27.625 15.039062zm0 0"/></g></svg>