<svg viewBox="0 0 512 512" xmlns="http://www.w3.org/2000/svg" xmlns:xlink="http://www.w3.org/1999/xlink"><linearGradient id="a" gradientTransform="matrix(1 0 0 -1 0 -18006)" gradientUnits="userSpaceOnUse" x1="0" x2="512" y1="-18262" y2="-18262"><stop offset="0" stop-color="#00f1ff"/><stop offset=".231" stop-color="#00d8ff"/><stop offset=".5138" stop-color="#00c0ff"/><stop offset=".7773" stop-color="#00b2ff"/><stop offset="1" stop-color="#00adff"/></linearGradient><path d="m512 256c0 141.386719-114.613281 256-256 256s-256-114.613281-256-256 114.613281-256 256-256 256 114.613281 256 256zm0 0" fill="url(#a)"/><g fill="#fff"><path d="m418 237.347656c0-14.328125-5.859375-27.582031-15.863281-36.933594 1.265625-4.480468 1.914062-9.144531 1.914062-13.871093 0-24.941407-18.113281-45.722657-41.871093-49.910157-4.726563-23.128906-25.332032-40.589843-49.96875-40.589843-10.210938 0-19.933594 3.105469-28.078126 8.648437-10.179687-13.289062-26.125-21.691406-43.5625-21.691406-17.566406 0-33.226562 8.347656-43.292968 21.296875-8.023438-5.296875-17.523438-8.253906-27.488282-8.253906-24.636718 0-45.246093 17.460937-49.96875 40.589843-23.761718 4.1875-41.875 24.96875-41.875 49.910157 0 5.871093 1.277344 12.632812 3.421876 18.828125-11.148438 11.246094-17.371094 24.957031-17.371094 38.839844 0 27.953124 22.742187 50.695312 50.695312 50.695312 9.445313 0 16.679688-1.023438 23.0625-1.925781 6.664063-.945313 12.644532-1.792969 21.007813-1.546875 7.378906 18.882812 25.761719 32.304687 47.226562 32.304687 10.785157 0 22.710938-.25 35.097657-1.261719.332031.351563.6875.695313 1.058593 1.019532 25.964844 22.546875 52.816407 45.859375 79.957031 104.78125 2.53125 5.488281 7.960938 8.726562 13.632813 8.726562 2.101563 0 4.234375-.441406 6.269531-1.378906 7.523438-3.46875 10.8125-12.378906 7.347656-19.902344-11.921874-25.878906-23.976562-45.660156-35.875-61.589844 14.632813 3.382813 29.28125 5.300782 42.5 5.300782 27.386719 0 49.664063-22.28125 49.664063-49.664063 0-11.347656-3.851563-21.816406-10.320313-30.191406 13.660157-9.089844 22.679688-24.625 22.679688-42.230469zm-50.695312 20.695313c-.875 0-1.746094.074219-2.605469.230469l-11.671875 2.058593c-7.65625 1.351563-13.011719 8.332031-12.335938 16.078125.679688 7.746094 7.167969 13.691406 14.945313 13.691406 11.03125 0 20.007812 8.824219 20.007812 19.667969s-8.824219 19.664063-19.667969 19.664063c-21.003906 0-46.972656-5.949219-68.636718-15.035156 6.613281-1.933594 13.128906-4.25 19.441406-7.042969 7.578125-3.347657 11.007812-12.203125 7.660156-19.78125s-12.207031-11.007813-19.785156-7.660157c-27.726562 12.25-61.949219 13.824219-88.664062 13.824219-11.414063 0-20.695313-9.285156-20.695313-20.695312 0-11.410157 9.28125-20.695313 20.695313-20.695313 58.765624 0 65.109374-30.171875 65.109374-43.144531 0-23.410156-19.046874-42.457031-42.457031-42.457031-8.285156 0-15 6.714844-15 15s6.714844 15 15 15c6.867188 0 12.457031 5.589844 12.457031 12.457031 0 11.863281-24.554687 13.144531-35.109374 13.144531-23.945313 0-44.054688 16.695313-49.332032 39.054688-9.472656-.058594-16.589844.949218-23.113281 1.875-5.925781.835937-11.523437 1.628906-18.851563 1.628906-11.414062 0-20.695312-9.28125-20.695312-20.691406 0-10.753906 9.761719-19.164063 13.960938-22.277344 4.046874-3.007812 6.316406-7.84375 6.035156-12.878906l-.113282-2.058594c-.136718-2.46875-.882812-4.863281-2.167968-6.976562-1.972656-3.234376-3.765625-9.660157-3.765625-13.480469 0-9.328125 6.207031-17.230469 14.707031-19.804688 7.65625 18.398438 25.894531 31.378907 47.132812 31.378907 8.285157 0 15-6.714844 15-15 0-8.28125-6.714843-15-15-15-11.574218 0-20.988281-9.28125-20.988281-20.691407 0-.117187-.015625-.230469-.015625-.34375 0-.117187.015625-.226562.015625-.34375 0-11.410156 9.417969-20.695312 20.988281-20.695312 6.410157 0 12.171876 2.949219 16 8.027343-.105468 1.398438-.175781 2.804688-.175781 4.230469 0 8.285157 6.714844 15 15 15 8.285157 0 15-6.714843 15-15 0-13.949219 11.195313-25.300781 24.957031-25.300781 11.765626 0 22.046876 8.519531 24.449219 20.253906 1.414063 6.910156 7.449219 11.902344 14.5 11.992188l1.214844.015625c5.660156.113281 10.886719-3.050781 13.5-8.078125 3.625-6.976563 10.34375-11.140625 17.976563-11.140625 11.570312 0 20.984374 9.285156 20.984374 20.695312 0 11.410157-9.28125 20.695313-20.691406 20.695313-8.285156 0-15 6.714844-15 15s6.714844 15 15 15c20.875 0 38.839844-12.6875 46.601563-30.753906 8.617187 2.496093 14.945312 10.449218 14.945312 19.863281 0 3.839843-1.027343 7.550781-2.96875 10.734375-1.433593 2.355468-2.191406 5.054687-2.191406 7.808594v.6875c0 5.640624 3.167969 10.808593 8.199219 13.367187 6.832031 3.476563 10.90625 10.28125 10.90625 18.207031.003906 11.410156-9.28125 20.695313-20.691406 20.695313zm0 0"/><path d="m382.90625 386.367188c-2.617188-7.859376-11.113281-12.105469-18.972656-9.488282-7.859375 2.621094-12.105469 11.113282-9.488282 18.976563 6.828126 20.476562 16.753907 34.347656 17.171876 34.925781 2.929687 4.058594 7.503906 6.207031 12.148437 6.207031 3.03125 0 6.089844-.917969 8.742187-2.820312 6.71875-4.816407 8.253907-14.179688 3.460938-20.910157-.078125-.109374-7.757812-10.984374-13.0625-26.890624zm0 0"/></g></svg>