<svg viewBox="0 0 512 512" xmlns="http://www.w3.org/2000/svg" xmlns:xlink="http://www.w3.org/1999/xlink"><linearGradient id="a" gradientTransform="matrix(1 0 0 -1 0 -18006)" gradientUnits="userSpaceOnUse" x1="0" x2="512" y1="-18262" y2="-18262"><stop offset="0" stop-color="#00f1ff"/><stop offset=".231" stop-color="#00d8ff"/><stop offset=".5138" stop-color="#00c0ff"/><stop offset=".7773" stop-color="#00b2ff"/><stop offset="1" stop-color="#00adff"/></linearGradient><path d="m512 256c0 141.386719-114.613281 256-256 256s-256-114.613281-256-256 114.613281-256 256-256 256 114.613281 256 256zm0 0" fill="url(#a)"/><g fill="#fff"><path d="m418 253.152344c8.285156 0 15-6.714844 15-15v-75.507813c0-30.980469-25.203125-56.1875-56.1875-56.1875h-16.574219v-12.457031c0-8.285156-6.71875-15-15-15-8.285156 0-15 6.714844-15 15v12.457031h-59.925781v-12.457031c0-8.285156-6.714844-15-15-15s-15 6.714844-15 15v12.457031h-59.238281v-12.457031c0-8.285156-6.714844-15-15-15-8.28125 0-15 6.714844-15 15v12.457031h-15.886719c-30.984375 0-56.1875 25.207031-56.1875 56.1875v214.167969c0 30.984375 25.203125 56.1875 56.1875 56.1875h172.984375c.445313 0 .882813-.027344 1.320313-.066406.472656.042968.945312.066406 1.417968.066406 4 0 7.925782-1.601562 10.808594-4.597656l107.085938-111.203125c4.171874-4.332031 5.355468-10.738281 3-16.273438-2.355469-5.535156-7.789063-9.128906-13.804688-9.128906h-65.898438c-30.980468 0-56.1875 25.207031-56.1875 56.1875v55.015625h-160.726562c-14.441406 0-26.1875-11.746094-26.1875-26.1875v-214.167969c0-14.4375 11.746094-26.1875 26.1875-26.1875h15.890625v12.457031c0 8.285157 6.714844 15 15 15 8.28125 0 15-6.714843 15-15v-12.457031h59.234375v12.457031c0 8.285157 6.71875 15 15 15 8.285156 0 15-6.714843 15-15v-12.457031h59.925781v12.457031c0 8.285157 6.714844 15 15 15 8.285157 0 15-6.714843 15-15v-12.457031h16.574219c14.441406 0 26.1875 11.746094 26.1875 26.1875v75.507813c0 8.285156 6.714844 15 15 15zm-92.085938 94.832031c0-14.441406 11.746094-26.1875 26.1875-26.1875h30.628907l-56.816407 59zm0 0"/><path d="m255.3125 352c8.285156 0 15-6.714844 15-15v-112.574219c0-5.726562-3.257812-10.949219-8.398438-13.472656-5.140624-2.519531-11.265624-1.890625-15.789062 1.613281l-27.457031 21.28125c-6.550781 5.074219-7.742188 14.496094-2.667969 21.042969s14.496094 7.746094 21.042969 2.667969l3.269531-2.535156v81.976562c0 8.285156 6.714844 15 15 15zm0 0"/></g></svg>