<svg viewBox="0 0 512 512" xmlns="http://www.w3.org/2000/svg" xmlns:xlink="http://www.w3.org/1999/xlink"><linearGradient id="a" gradientTransform="matrix(1 0 0 -1 0 -15158)" gradientUnits="userSpaceOnUse" x1="0" x2="512" y1="-15414" y2="-15414"><stop offset="0" stop-color="#00f1ff"/><stop offset=".231" stop-color="#00d8ff"/><stop offset=".5138" stop-color="#00c0ff"/><stop offset=".7773" stop-color="#00b2ff"/><stop offset="1" stop-color="#00adff"/></linearGradient><path d="m512 256c0 141.386719-114.613281 256-256 256s-256-114.613281-256-256 114.613281-256 256-256 256 114.613281 256 256zm0 0" fill="url(#a)"/><g fill="#fff"><path d="m426.980469 351.324219c-3.132813-5.160157-8.882813-7.738281-14.511719-7.101563-.878906-.160156-1.78125-.257812-2.707031-.257812h-95.949219c2.542969-9.769532 3.863281-19.933594 3.863281-30.304688 0-21.179687-5.757812-41.402344-15.949219-59 .09375-.683594.164063-1.378906.164063-2.09375v-103.066406h25.601563v103.066406c0 2.984375.890624 5.898438 2.554687 8.375l36.476563 54.230469c2.898437 4.304687 7.632812 6.628906 12.460937 6.628906 2.878906 0 5.789063-.828125 8.359375-2.558593 6.871094-4.625 8.695312-13.941407 4.070312-20.816407l-33.925781-50.433593v-98.632813c7.359375-.960937 13.042969-7.238281 13.042969-14.859375 0-8.28125-6.714844-15-15-15h-81.683594c-8.285156 0-15 6.71875-15 15 0 7.621094 5.683594 13.898438 13.042969 14.859375v70.894531c-9.480469-7.464844-20.160156-13.589844-31.78125-18.023437v-93.257813c8.011719-.3125 14.417969-6.886718 14.417969-14.972656 0-8.28125-6.71875-15-15-15h-85.121094c-8.28125 0-15 6.71875-15 15 0 8.285156 6.71875 15 15 15h.789062v93.25c-45.792968 17.621094-76.605468 62.308594-76.1875 112.425781.535157 64.46875 53.171876 117.34375 117.535157 118.304688.140625.003906.28125.019531.425781.019531h175.84375c11.050781 0 21.441406-4.304688 29.253906-12.117188l18.816406-18.816406c13.523438-13.53125 16.035157-34.394531 6.097657-50.742187zm-311.101563-3.441407h14.503906c8.28125 0 15-6.71875 15-15 0-8.285156-6.71875-15-15-15h-21.277343c-.054688-1.148437-.09375-2.300781-.101563-3.457031-.335937-40.472656 26.46875-76.199219 65.183594-86.886719 6.503906-1.796874 11.007812-7.710937 11.007812-14.460937v-104.078125h24.914063v104.078125c0 6.75 4.507813 12.664063 11.011719 14.460937 39.1875 10.816407 66.558594 46.230469 66.558594 86.121094 0 1.414063-.039063 2.820313-.105469 4.222656h-76.878907c-8.28125 0-15 6.714844-15 15 0 8.28125 6.71875 15 15 15h70.222657c-4.472657 10.789063-11.085938 20.691407-19.628907 29.175782-17.019531 16.894531-39.59375 26.125-63.597656 25.9375-36.675781-.257813-68.363281-23.046875-81.8125-55.113282zm283.789063 32.96875-18.816407 18.820313c-2.148437 2.144531-5.003906 3.328125-8.039062 3.328125h-95.355469c1.691407-1.5 3.351563-3.050781 4.96875-4.652344 7.4375-7.386718 13.773438-15.582031 18.945313-24.378906h101.570312c-.257812 2.53125-1.363281 4.972656-3.273437 6.882812zm0 0"/><path d="m237.464844 286.890625c0 7.582031-6.144532 13.726563-13.726563 13.726563s-13.730469-6.144532-13.730469-13.726563 6.148438-13.730469 13.730469-13.730469 13.726563 6.148438 13.726563 13.730469zm0 0"/><path d="m183.925781 315.035156c0 7.582032-6.148437 13.726563-13.730469 13.726563-7.582031 0-13.730468-6.144531-13.730468-13.726563 0-7.582031 6.148437-13.730468 13.730468-13.730468 7.582032 0 13.730469 6.148437 13.730469 13.730468zm0 0"/><path d="m195.59375 258.746094c0 7.582031-6.148438 13.730468-13.730469 13.730468s-13.726562-6.148437-13.726562-13.730468c0-7.582032 6.144531-13.730469 13.726562-13.730469s13.730469 6.148437 13.730469 13.730469zm0 0"/></g></svg>