<svg viewBox="0 0 512 512" xmlns="http://www.w3.org/2000/svg" xmlns:xlink="http://www.w3.org/1999/xlink"><linearGradient id="a" gradientTransform="matrix(1 0 0 -1 0 -13734)" gradientUnits="userSpaceOnUse" x1="0" x2="512" y1="-13990" y2="-13990"><stop offset="0" stop-color="#00f1ff"/><stop offset=".231" stop-color="#00d8ff"/><stop offset=".5138" stop-color="#00c0ff"/><stop offset=".7773" stop-color="#00b2ff"/><stop offset="1" stop-color="#00adff"/></linearGradient><path d="m512 256c0 141.386719-114.613281 256-256 256s-256-114.613281-256-256 114.613281-256 256-256 256 114.613281 256 256zm0 0" fill="url(#a)"/><g fill="#fff"><path d="m420.789062 375.894531-31.664062-45.230469c-2.804688-4.011718-7.394531-6.398437-12.289062-6.398437h-49.617188v-115.53125c0-7.761719 6.3125-14.078125 14.078125-14.078125 7.761719 0 14.078125 6.316406 14.078125 14.078125v66.558594c0 8.28125 6.714844 15 15 15s15-6.71875 15-15v-81.28125h23.125c8.285156 0 15-6.71875 15-15v-34.894531c0-6.027344-3.605469-11.46875-9.15625-13.816407l-152.824219-64.617187c-3.742187-1.582032-7.964843-1.578125-11.707031.007812l-152.175781 64.621094c-5.539063 2.351562-9.136719 7.785156-9.136719 13.804688v34.894531c0 8.285156 6.714844 15 15 15h19.246094v136.832031l-31.535156 45.054688c-3.207032 4.582031-3.597657 10.566406-1.015626 15.527343 2.582032 4.960938 7.710938 8.074219 13.304688 8.074219h305c5.59375 0 10.722656-3.113281 13.304688-8.074219 2.582031-4.960937 2.191406-10.945312-1.015626-15.53125zm-151.726562-51.628906v-115.53125c0-7.761719 6.316406-14.078125 14.078125-14.078125s14.078125 6.316406 14.078125 14.078125v115.53125zm-116.316406-115.53125c0-7.761719 6.316406-14.078125 14.078125-14.078125 7.765625 0 14.082031 6.316406 14.082031 14.078125v115.53125h-28.160156zm58.160156 0c0-7.761719 6.3125-14.078125 14.078125-14.078125 7.761719 0 14.078125 6.316406 14.078125 14.078125v115.53125h-28.15625zm-92.40625-54.691406 137.1875-58.253907 137.8125 58.273438v9.949219h-275zm13.808594 215.457031 10.664062-15.234375h226.054688l10.664062 15.234375zm0 0"/><path d="m268.925781 137.007812c0 7.140626-5.789062 12.925782-12.925781 12.925782s-12.925781-5.785156-12.925781-12.925782c0-7.136718 5.789062-12.921874 12.925781-12.921874s12.925781 5.785156 12.925781 12.921874zm0 0"/></g></svg>