<svg viewBox="0 0 512 512" xmlns="http://www.w3.org/2000/svg" xmlns:xlink="http://www.w3.org/1999/xlink"><linearGradient id="a" gradientTransform="matrix(1 0 0 -1 0 -15158)" gradientUnits="userSpaceOnUse" x1="0" x2="512" y1="-15414" y2="-15414"><stop offset="0" stop-color="#00f1ff"/><stop offset=".231" stop-color="#00d8ff"/><stop offset=".5138" stop-color="#00c0ff"/><stop offset=".7773" stop-color="#00b2ff"/><stop offset="1" stop-color="#00adff"/></linearGradient><path d="m512 256c0 141.386719-114.613281 256-256 256s-256-114.613281-256-256 114.613281-256 256-256 256 114.613281 256 256zm0 0" fill="url(#a)"/><g fill="#fff"><path d="m338.507812 154.6875c29.886719 0 57.214844-18.355469 68.003907-45.675781 3.042969-7.707031-.734375-16.417969-8.441407-19.460938-7.703124-3.042969-16.417968.734375-19.460937 8.4375-6.304687 15.96875-22.421875 26.699219-40.101563 26.699219h-168.878906c-30.160156 0-56.449218 13.28125-76.019531 38.414062-14.25 18.304688-19.9375 36.71875-20.175781 37.496094-2.40625 7.925782 2.074218 16.300782 10 18.707032 1.453125.441406 2.917968.648437 4.359375.648437 6.433593 0 12.382812-4.171875 14.347656-10.644531.167969-.546875 17.160156-54.621094 67.488281-54.621094h21.296875c-.257812 4.15625-.519531 8.523438-.789062 13.042969-2.558594 42.851562-6.066407 101.539062-15.960938 149.796875-5.214843 25.429687-11.640625 44.964844-19.097656 58.0625-10.195313 17.910156-18.808594 17.910156-21.636719 17.910156-8.285156 0-15 6.714844-15 15s6.714844 15 15 15c13.175782 0 32.148438-5.738281 47.707032-33.066406 9.148437-16.070313 16.480468-37.945313 22.414062-66.878906 10.328125-50.359376 13.90625-110.28125 16.519531-154.035157.308594-5.179687.605469-10.164062.898438-14.832031zm0 0"/><path d="m392.875 332.117188c-8.234375-.167969-15.136719 6.398437-15.3125 14.679687 0 .121094-.417969 12.363281-6.328125 24.394531-7.375 15.011719-19.703125 22.308594-37.691406 22.308594-8.898438 0-15.488281-2.546875-20.148438-7.789062-10.691406-12.03125-10.515625-35.976563-9.550781-44.144532.019531-.171875.039062-.34375.054688-.515625.066406-.746093 6.679687-75.375 11.332031-138.878906.605469-8.265625-5.601563-15.453125-13.863281-16.058594-8.261719-.601562-15.449219 5.601563-16.054688 13.863281-4.507812 61.511719-10.867188 133.542969-11.277344 138.1875-.652344 5.550782-4.21875 43.539063 16.839844 67.363282 10.390625 11.757812 25.144531 17.972656 42.667969 17.972656 29.292969 0 52.238281-13.878906 64.621093-39.078125 8.75-17.8125 9.355469-35.082031 9.394532-36.992187.171875-8.285157-6.398438-15.140626-14.683594-15.3125zm0 0"/></g></svg>