<svg viewBox="0 0 512 512" xmlns="http://www.w3.org/2000/svg" xmlns:xlink="http://www.w3.org/1999/xlink"><linearGradient id="a" gradientTransform="matrix(1 0 0 -1 0 -16582)" gradientUnits="userSpaceOnUse" x1="0" x2="512" y1="-16838" y2="-16838"><stop offset="0" stop-color="#00f1ff"/><stop offset=".231" stop-color="#00d8ff"/><stop offset=".5138" stop-color="#00c0ff"/><stop offset=".7773" stop-color="#00b2ff"/><stop offset="1" stop-color="#00adff"/></linearGradient><path d="m512 256c0 141.386719-114.613281 256-256 256s-256-114.613281-256-256 114.613281-256 256-256 256 114.613281 256 256zm0 0" fill="url(#a)"/><g fill="#fff"><path d="m103.5 194.75h52.988281c8.28125 0 15-6.714844 15-15s-6.71875-15-15-15h-52.988281c-8.285156 0-15 6.714844-15 15s6.714844 15 15 15zm0 0"/><path d="m408.5 164.75h-92.402344c-8.285156 0-15 6.714844-15 15s6.714844 15 15 15h92.402344c8.285156 0 15-6.714844 15-15s-6.714844-15-15-15zm0 0"/><path d="m350.988281 118.5h57.511719c8.285156 0 15-6.714844 15-15s-6.714844-15-15-15h-57.511719c-8.285156 0-15 6.714844-15 15s6.714844 15 15 15zm0 0"/><path d="m103.5 118.5h113.082031c8.285157 0 15-6.714844 15-15s-6.714843-15-15-15h-113.082031c-8.285156 0-15 6.714844-15 15s6.714844 15 15 15zm0 0"/><path d="m407.855469 393.5h-98.222657c-8.28125 0-15 6.714844-15 15s6.71875 15 15 15h98.222657c8.28125 0 15-6.714844 15-15s-6.71875-15-15-15zm0 0"/><path d="m168.117188 393.5h-64.617188c-8.285156 0-15 6.714844-15 15s6.714844 15 15 15h64.617188c8.285156 0 15-6.714844 15-15s-6.714844-15-15-15zm0 0"/><path d="m103.5 347.25h47.816406c8.285156 0 15-6.714844 15-15s-6.714844-15-15-15h-47.816406c-8.285156 0-15 6.714844-15 15s6.714844 15 15 15zm0 0"/><path d="m408.5 317.25h-41.355469c-8.285156 0-15 6.714844-15 15s6.714844 15 15 15h41.355469c8.285156 0 15-6.714844 15-15s-6.714844-15-15-15zm0 0"/><path d="m408.5 241h-25.847656c-8.285156 0-15 6.714844-15 15s6.714844 15 15 15h25.847656c8.285156 0 15-6.714844 15-15s-6.714844-15-15-15zm0 0"/><path d="m103.5 271h24.554688c8.285156 0 15-6.714844 15-15s-6.714844-15-15-15h-24.554688c-8.285156 0-15 6.714844-15 15s6.714844 15 15 15zm0 0"/><path d="m348.671875 277.265625c0-38.324219-30.582031-69.644531-68.625-70.839844v-36.128906c3.980469-2.023437 7.980469-4.03125 11.964844-6.03125 10.253906-4.542969 26.945312-17.824219 26.945312-40.085937 0-21.007813-14.351562-35.679688-34.902343-35.679688-.191407 0-.382813.003906-.523438.007812-16.125.273438-33.484375 11.957032-33.484375 36.964844v26.613282c-17.347656 9.300781-34.070313 19.363281-48.339844 31.226562-27.042969 22.476562-40.1875 47.5-40.1875 76.492188 0 51.742187 38.609375 94.632812 88.527344 101.382812v21.464844c0 5.878906-5.199219 10.847656-11.355469 10.847656-6.058594 0-10.984375-4.863281-10.984375-10.847656 0-8.285156-6.71875-15-15-15-8.285156 0-15 6.714844-15 15 0 22.523437 18.386719 40.847656 40.984375 40.847656 22.804688 0 41.355469-18.324219 41.355469-40.847656v-22.09375c39.054687-7.589844 68.625-42.054688 68.625-83.292969zm-68.625-151.792969c0-6.902344 2.699219-6.949218 4.066406-6.972656h.050781c3.148438.007812 4.792969.3125 4.792969 5.679688 0 7.433593-7.050781 11.582031-8.910156 12.546874zm-30 147.855469c-1.234375-2.132813-1.953125-4.597656-1.953125-7.234375 0-3.734375.691406-7.304688 1.953125-10.597656zm-58.527344-13.523437c0-31.996094 25.816407-54.25 58.527344-73.371094v26.804687c-18.984375 10.007813-31.953125 29.945313-31.953125 52.855469 0 20.179688 13.507812 37.257812 31.953125 42.691406v22.011719c-33.300781-6.453125-58.527344-35.832031-58.527344-70.992187zm88.527344 69.859374v-93.210937c21.496094 1.171875 38.625 19.027344 38.625 40.8125 0 24.597656-16.277344 45.464844-38.625 52.398437zm0 0"/></g></svg>