<svg viewBox="0 0 512 512" xmlns="http://www.w3.org/2000/svg" xmlns:xlink="http://www.w3.org/1999/xlink"><linearGradient id="a" gradientTransform="matrix(1 0 0 -1 0 -13734)" gradientUnits="userSpaceOnUse" x1="0" x2="512" y1="-13990" y2="-13990"><stop offset="0" stop-color="#00f1ff"/><stop offset=".231" stop-color="#00d8ff"/><stop offset=".5138" stop-color="#00c0ff"/><stop offset=".7773" stop-color="#00b2ff"/><stop offset="1" stop-color="#00adff"/></linearGradient><path d="m512 256c0 141.386719-114.613281 256-256 256s-256-114.613281-256-256 114.613281-256 256-256 256 114.613281 256 256zm0 0" fill="url(#a)"/><path d="m256 56c-110.28125 0-200 89.71875-200 200s89.71875 200 200 200c36.570312 0 72.355469-9.96875 103.484375-28.824219 7.085937-4.289062 9.351563-13.515625 5.058594-20.601562-4.292969-7.085938-13.515625-9.351563-20.601563-5.054688-22.167968 13.425781-47.128906 21.523438-72.941406 23.796875v-154.316406h57.636719c1.601562 21.742188 6.699219 42.863281 15.21875 62.96875 2.421875 5.71875 7.976562 9.152344 13.820312 9.152344 1.949219 0 3.933594-.382813 5.84375-1.191406 7.628907-3.230469 11.191407-12.035157 7.960938-19.664063-6.941407-16.382813-11.199219-33.570313-12.738281-51.265625h66.585937c-2.519531 28.199219-12.125 55.375-28.152344 79.355469-4.605469 6.886719-2.753906 16.203125 4.132813 20.804687 6.886718 4.605469 16.203125 2.753906 20.804687-4.132812 22.167969-33.160156 33.886719-71.550782 33.886719-111.027344 0-110.28125-89.71875-200-200-200zm136 98.113281c18.515625 24.652344 30.484375 54.480469 33.328125 86.886719h-66.582031c2.789062-31.492188 14.300781-61.585938 33.253906-86.886719zm-151-67.445312v154.332031h-57.636719c-1.578125-21.433594-6.558593-42.269531-14.863281-62.121094-3.195312-7.644531-11.984375-11.25-19.625-8.050781-7.644531 3.195313-11.246094 11.980469-8.050781 19.625 6.761719 16.167969 10.914062 33.113281 12.429687 50.546875h-66.585937c7.1875-81.792969 72.539062-147.144531 154.332031-154.332031zm-121 271.21875c-18.515625-24.648438-30.484375-54.480469-33.332031-86.886719h66.582031c-2.789062 31.464844-14.304688 61.597656-33.25 86.886719zm121 67.445312c-38.679688-3.398437-73.675781-19.800781-100.59375-44.800781 24.984375-31.378906 39.929688-69.605469 42.933594-109.53125h57.660156zm30-338.664062c38.675781 3.398437 73.671875 19.796875 100.585938 44.792969-25 31.394531-39.929688 69.574218-42.929688 109.539062h-57.65625zm0 0" fill="#fff"/></svg>